<?xml version="1.0" encoding="UTF-8" standalone="no"?>
<!DOCTYPE svg PUBLIC "-//W3C//DTD SVG 1.1//EN"
 "http://www.w3.org/Graphics/SVG/1.1/DTD/svg11.dtd">
<!-- Generated by graphviz version 7.1.0 (0)
 -->
<!-- Title: /home/toby/Code/BNO085&#45;I2C&#45;Firmware/src/bno08x.h Pages: 1 -->
<svg width="173pt" height="148pt"
 viewBox="0.00 0.00 172.50 148.00" xmlns="http://www.w3.org/2000/svg" xmlns:xlink="http://www.w3.org/1999/xlink">
<g id="graph0" class="graph" transform="scale(1 1) rotate(0) translate(4 144)">
<title>/home/toby/Code/BNO085&#45;I2C&#45;Firmware/src/bno08x.h</title>
<!-- Node1 -->
<g id="node1" class="node">
<title>Node1</title>
<g id="a_node1"><a xlink:title=" ">
<polygon fill="#999999" stroke="#666666" points="164.5,-140 27.5,-140 27.5,-110 164.5,-110 164.5,-140"/>
<text text-anchor="start" x="35.5" y="-128" font-family="Helvetica,sans-Serif" font-size="10.00">/home/toby/Code/BNO085</text>
<text text-anchor="middle" x="96" y="-117" font-family="Helvetica,sans-Serif" font-size="10.00">&#45;I2C&#45;Firmware/src/bno08x.h</text>
</a>
</g>
</g>
<!-- Node2 -->
<g id="node2" class="node">
<title>Node2</title>
<g id="a_node2"><a xlink:title=" ">
<polygon fill="#e0e0e0" stroke="#999999" points="48,-19 0,-19 0,0 48,0 48,-19"/>
<text text-anchor="middle" x="24" y="-7" font-family="Helvetica,sans-Serif" font-size="10.00">stdint.h</text>
</a>
</g>
</g>
<!-- Node1&#45;&gt;Node2 -->
<g id="edge1" class="edge">
<title>Node1&#45;&gt;Node2</title>
<path fill="none" stroke="#63b8ff" d="M75.68,-109.67C64.26,-100.64 50.62,-88.05 42,-74 33.83,-60.68 29.26,-43.52 26.77,-30.4"/>
<polygon fill="#63b8ff" stroke="#63b8ff" points="30.27,-30.12 25.21,-20.81 23.36,-31.24 30.27,-30.12"/>
</g>
<!-- Node3 -->
<g id="node3" class="node">
<title>Node3</title>
<g id="a_node3"><a xlink:title=" ">
<polygon fill="#e0e0e0" stroke="#999999" points="160,-19 104,-19 104,0 160,0 160,-19"/>
<text text-anchor="middle" x="132" y="-7" font-family="Helvetica,sans-Serif" font-size="10.00">stdbool.h</text>
</a>
</g>
</g>
<!-- Node1&#45;&gt;Node3 -->
<g id="edge2" class="edge">
<title>Node1&#45;&gt;Node3</title>
<path fill="none" stroke="#63b8ff" d="M118.93,-109.62C130.58,-100.9 143.61,-88.63 150,-74 156.38,-59.4 150.52,-41.92 143.83,-29"/>
<polygon fill="#63b8ff" stroke="#63b8ff" points="147.06,-27.6 139.03,-20.7 141,-31.11 147.06,-27.6"/>
</g>
<!-- Node4 -->
<g id="node4" class="node">
<title>Node4</title>
<g id="a_node4"><a xlink:href="sensor__reports_8h_source.html" target="_top" xlink:title=" ">
<polygon fill="white" stroke="#666666" points="141,-74 51,-74 51,-55 141,-55 141,-74"/>
<text text-anchor="middle" x="96" y="-62" font-family="Helvetica,sans-Serif" font-size="10.00">sensor_reports.h</text>
</a>
</g>
</g>
<!-- Node1&#45;&gt;Node4 -->
<g id="edge3" class="edge">
<title>Node1&#45;&gt;Node4</title>
<path fill="none" stroke="#63b8ff" d="M96,-109.54C96,-102.34 96,-93.53 96,-85.68"/>
<polygon fill="#63b8ff" stroke="#63b8ff" points="99.5,-85.69 96,-75.69 92.5,-85.69 99.5,-85.69"/>
</g>
<!-- Node4&#45;&gt;Node2 -->
<g id="edge4" class="edge">
<title>Node4&#45;&gt;Node2</title>
<path fill="none" stroke="#63b8ff" d="M83.79,-54.51C73.17,-46.7 57.56,-35.21 44.96,-25.93"/>
<polygon fill="#63b8ff" stroke="#63b8ff" points="47.38,-23.36 37.25,-20.26 43.23,-29 47.38,-23.36"/>
</g>
<!-- Node4&#45;&gt;Node3 -->
<g id="edge5" class="edge">
<title>Node4&#45;&gt;Node3</title>
<path fill="none" stroke="#63b8ff" d="M101.94,-54.75C106.71,-47.73 113.56,-37.64 119.52,-28.87"/>
<polygon fill="#63b8ff" stroke="#63b8ff" points="122.35,-30.93 125.08,-20.69 116.56,-27 122.35,-30.93"/>
</g>
</g>
</svg>
