<?xml version="1.0" encoding="UTF-8" standalone="no"?>
<!DOCTYPE svg PUBLIC "-//W3C//DTD SVG 1.1//EN"
 "http://www.w3.org/Graphics/SVG/1.1/DTD/svg11.dtd">
<!-- Generated by graphviz version 7.1.0 (0)
 -->
<!-- Title: /home/toby/Code/BNO085&#45;I2C&#45;Firmware/src/bno08x.h Pages: 1 -->
<svg width="179pt" height="148pt"
 viewBox="0.00 0.00 178.50 148.00" xmlns="http://www.w3.org/2000/svg" xmlns:xlink="http://www.w3.org/1999/xlink">
<g id="graph0" class="graph" transform="scale(1 1) rotate(0) translate(4 144)">
<title>/home/toby/Code/BNO085&#45;I2C&#45;Firmware/src/bno08x.h</title>
<!-- Node1 -->
<g id="node1" class="node">
<title>Node1</title>
<g id="a_node1"><a xlink:title="Defines the top level entities for the library.">
<polygon fill="#999999" stroke="#666666" points="140.41,-140 3.41,-140 3.41,-110 140.41,-110 140.41,-140"/>
<text text-anchor="start" x="11.41" y="-128" font-family="Helvetica,sans-Serif" font-size="10.00">/home/toby/Code/BNO085</text>
<text text-anchor="middle" x="71.91" y="-117" font-family="Helvetica,sans-Serif" font-size="10.00">&#45;I2C&#45;Firmware/src/bno08x.h</text>
</a>
</g>
</g>
<!-- Node2 -->
<g id="node2" class="node">
<title>Node2</title>
<g id="a_node2"><a xlink:title=" ">
<polygon fill="#e0e0e0" stroke="#999999" points="54.91,-19 6.91,-19 6.91,0 54.91,0 54.91,-19"/>
<text text-anchor="middle" x="30.91" y="-7" font-family="Helvetica,sans-Serif" font-size="10.00">stdint.h</text>
</a>
</g>
</g>
<!-- Node1&#45;&gt;Node2 -->
<g id="edge1" class="edge">
<title>Node1&#45;&gt;Node2</title>
<path fill="none" stroke="#63b8ff" d="M40.3,-109.63C26.13,-101.39 10.85,-89.55 2.91,-74 -4.86,-58.78 4.58,-40.93 14.54,-28.04"/>
<polygon fill="#63b8ff" stroke="#63b8ff" points="17.2,-30.31 21,-20.43 11.86,-25.78 17.2,-30.31"/>
</g>
<!-- Node3 -->
<g id="node3" class="node">
<title>Node3</title>
<g id="a_node3"><a xlink:title=" ">
<polygon fill="#e0e0e0" stroke="#999999" points="140.91,-19 84.91,-19 84.91,0 140.91,0 140.91,-19"/>
<text text-anchor="middle" x="112.91" y="-7" font-family="Helvetica,sans-Serif" font-size="10.00">stdbool.h</text>
</a>
</g>
</g>
<!-- Node1&#45;&gt;Node3 -->
<g id="edge2" class="edge">
<title>Node1&#45;&gt;Node3</title>
<path fill="none" stroke="#63b8ff" d="M122.02,-109.6C139.34,-101.96 156.89,-90.59 166.91,-74 177.88,-55.83 158.56,-37.64 140.06,-25.42"/>
<polygon fill="#63b8ff" stroke="#63b8ff" points="141.98,-22.49 131.63,-20.23 138.31,-28.45 141.98,-22.49"/>
</g>
<!-- Node4 -->
<g id="node4" class="node">
<title>Node4</title>
<g id="a_node4"><a xlink:href="i2c_8h_source.html" target="_top" xlink:title=" ">
<polygon fill="white" stroke="#666666" points="49.91,-74 11.91,-74 11.91,-55 49.91,-55 49.91,-74"/>
<text text-anchor="middle" x="30.91" y="-62" font-family="Helvetica,sans-Serif" font-size="10.00">i2c.h</text>
</a>
</g>
</g>
<!-- Node1&#45;&gt;Node4 -->
<g id="edge3" class="edge">
<title>Node1&#45;&gt;Node4</title>
<path fill="none" stroke="#63b8ff" d="M61.78,-109.54C56.25,-101.65 49.35,-91.81 43.48,-83.44"/>
<polygon fill="#63b8ff" stroke="#63b8ff" points="46.47,-81.59 37.86,-75.41 40.73,-85.61 46.47,-81.59"/>
</g>
<!-- Node5 -->
<g id="node5" class="node">
<title>Node5</title>
<g id="a_node5"><a xlink:href="sensor__reports_8h_source.html" target="_top" xlink:title=" ">
<polygon fill="white" stroke="#666666" points="157.91,-74 67.91,-74 67.91,-55 157.91,-55 157.91,-74"/>
<text text-anchor="middle" x="112.91" y="-62" font-family="Helvetica,sans-Serif" font-size="10.00">sensor_reports.h</text>
</a>
</g>
</g>
<!-- Node1&#45;&gt;Node5 -->
<g id="edge6" class="edge">
<title>Node1&#45;&gt;Node5</title>
<path fill="none" stroke="#63b8ff" d="M82.05,-109.54C87.58,-101.65 94.47,-91.81 100.34,-83.44"/>
<polygon fill="#63b8ff" stroke="#63b8ff" points="103.09,-85.61 105.96,-75.41 97.36,-81.59 103.09,-85.61"/>
</g>
<!-- Node4&#45;&gt;Node2 -->
<g id="edge4" class="edge">
<title>Node4&#45;&gt;Node2</title>
<path fill="none" stroke="#63b8ff" d="M30.91,-54.75C30.91,-48.27 30.91,-39.16 30.91,-30.9"/>
<polygon fill="#63b8ff" stroke="#63b8ff" points="34.41,-30.96 30.91,-20.96 27.41,-30.96 34.41,-30.96"/>
</g>
<!-- Node4&#45;&gt;Node3 -->
<g id="edge5" class="edge">
<title>Node4&#45;&gt;Node3</title>
<path fill="none" stroke="#63b8ff" d="M44.82,-54.51C57.15,-46.54 75.39,-34.75 89.89,-25.38"/>
<polygon fill="#63b8ff" stroke="#63b8ff" points="91.44,-28.55 97.94,-20.18 87.64,-22.67 91.44,-28.55"/>
</g>
<!-- Node5&#45;&gt;Node2 -->
<g id="edge7" class="edge">
<title>Node5&#45;&gt;Node2</title>
<path fill="none" stroke="#63b8ff" d="M99,-54.51C86.68,-46.54 68.44,-34.75 53.94,-25.38"/>
<polygon fill="#63b8ff" stroke="#63b8ff" points="56.19,-22.67 45.89,-20.18 52.39,-28.55 56.19,-22.67"/>
</g>
<!-- Node5&#45;&gt;Node3 -->
<g id="edge8" class="edge">
<title>Node5&#45;&gt;Node3</title>
<path fill="none" stroke="#63b8ff" d="M112.91,-54.75C112.91,-48.27 112.91,-39.16 112.91,-30.9"/>
<polygon fill="#63b8ff" stroke="#63b8ff" points="116.41,-30.96 112.91,-20.96 109.41,-30.96 116.41,-30.96"/>
</g>
</g>
</svg>
