<?xml version="1.0" encoding="UTF-8" standalone="no"?>
<!DOCTYPE svg PUBLIC "-//W3C//DTD SVG 1.1//EN"
 "http://www.w3.org/Graphics/SVG/1.1/DTD/svg11.dtd">
<!-- Generated by graphviz version 7.1.0 (0)
 -->
<!-- Title: /home/toby/Code/BNO085&#45;I2C&#45;Firmware/src/bno08x.h Pages: 1 -->
<svg width="337pt" height="148pt"
 viewBox="0.00 0.00 336.50 148.00" xmlns="http://www.w3.org/2000/svg" xmlns:xlink="http://www.w3.org/1999/xlink">
<g id="graph0" class="graph" transform="scale(1 1) rotate(0) translate(4 144)">
<title>/home/toby/Code/BNO085&#45;I2C&#45;Firmware/src/bno08x.h</title>
<!-- Node1 -->
<g id="node1" class="node">
<title>Node1</title>
<g id="a_node1"><a xlink:title="Defines the top level entities for the library.">
<polygon fill="#999999" stroke="#666666" points="236,-140 99,-140 99,-110 236,-110 236,-140"/>
<text text-anchor="start" x="107" y="-128" font-family="Helvetica,sans-Serif" font-size="10.00">/home/toby/Code/BNO085</text>
<text text-anchor="middle" x="167.5" y="-117" font-family="Helvetica,sans-Serif" font-size="10.00">&#45;I2C&#45;Firmware/src/bno08x.h</text>
</a>
</g>
</g>
<!-- Node2 -->
<g id="node2" class="node">
<title>Node2</title>
<g id="a_node2"><a xlink:title=" ">
<polygon fill="#e0e0e0" stroke="#999999" points="115.5,-19 67.5,-19 67.5,0 115.5,0 115.5,-19"/>
<text text-anchor="middle" x="91.5" y="-7" font-family="Helvetica,sans-Serif" font-size="10.00">stdint.h</text>
</a>
</g>
</g>
<!-- Node1&#45;&gt;Node2 -->
<g id="edge1" class="edge">
<title>Node1&#45;&gt;Node2</title>
<path fill="none" stroke="#63b8ff" d="M104.79,-109.55C86.41,-102.08 68.35,-90.84 57.5,-74 47.61,-58.65 60.07,-40.15 72.59,-27.09"/>
<polygon fill="#63b8ff" stroke="#63b8ff" points="74.73,-29.89 79.51,-20.43 69.88,-24.85 74.73,-29.89"/>
</g>
<!-- Node3 -->
<g id="node3" class="node">
<title>Node3</title>
<g id="a_node3"><a xlink:title=" ">
<polygon fill="#e0e0e0" stroke="#999999" points="195.5,-19 139.5,-19 139.5,0 195.5,0 195.5,-19"/>
<text text-anchor="middle" x="167.5" y="-7" font-family="Helvetica,sans-Serif" font-size="10.00">stdbool.h</text>
</a>
</g>
</g>
<!-- Node1&#45;&gt;Node3 -->
<g id="edge2" class="edge">
<title>Node1&#45;&gt;Node3</title>
<path fill="none" stroke="#63b8ff" d="M190.43,-109.62C202.08,-100.9 215.11,-88.63 221.5,-74 229.86,-54.87 211.64,-37.13 194.15,-25.29"/>
<polygon fill="#63b8ff" stroke="#63b8ff" points="196.3,-22.51 185.97,-20.16 192.58,-28.44 196.3,-22.51"/>
</g>
<!-- Node4 -->
<g id="node4" class="node">
<title>Node4</title>
<g id="a_node4"><a xlink:href="i2c_8h.html" target="_top" xlink:title="I2C related definitions.">
<polygon fill="white" stroke="#666666" points="104.5,-74 66.5,-74 66.5,-55 104.5,-55 104.5,-74"/>
<text text-anchor="middle" x="85.5" y="-62" font-family="Helvetica,sans-Serif" font-size="10.00">i2c.h</text>
</a>
</g>
</g>
<!-- Node1&#45;&gt;Node4 -->
<g id="edge3" class="edge">
<title>Node1&#45;&gt;Node4</title>
<path fill="none" stroke="#63b8ff" d="M147.23,-109.54C134.96,-100.78 119.32,-89.63 106.85,-80.73"/>
<polygon fill="#63b8ff" stroke="#63b8ff" points="109.07,-78.01 98.89,-75.05 105,-83.71 109.07,-78.01"/>
</g>
<!-- Node6 -->
<g id="node6" class="node">
<title>Node6</title>
<g id="a_node6"><a xlink:href="sensors_8h.html" target="_top" xlink:title="Sensor related definitions.">
<polygon fill="white" stroke="#666666" points="328.5,-74 268.5,-74 268.5,-55 328.5,-55 328.5,-74"/>
<text text-anchor="middle" x="298.5" y="-62" font-family="Helvetica,sans-Serif" font-size="10.00">sensors.h</text>
</a>
</g>
</g>
<!-- Node1&#45;&gt;Node6 -->
<g id="edge7" class="edge">
<title>Node1&#45;&gt;Node6</title>
<path fill="none" stroke="#63b8ff" d="M199.88,-109.54C220.82,-100.19 247.88,-88.1 268.36,-78.96"/>
<polygon fill="#63b8ff" stroke="#63b8ff" points="269.6,-82.24 277.31,-74.96 266.75,-75.85 269.6,-82.24"/>
</g>
<!-- Node7 -->
<g id="node7" class="node">
<title>Node7</title>
<g id="a_node7"><a xlink:href="sensor__reports_8h.html" target="_top" xlink:title="Definitions for all input reports available from the BNO08x.">
<polygon fill="white" stroke="#666666" points="212.5,-74 122.5,-74 122.5,-55 212.5,-55 212.5,-74"/>
<text text-anchor="middle" x="167.5" y="-62" font-family="Helvetica,sans-Serif" font-size="10.00">sensor_reports.h</text>
</a>
</g>
</g>
<!-- Node1&#45;&gt;Node7 -->
<g id="edge8" class="edge">
<title>Node1&#45;&gt;Node7</title>
<path fill="none" stroke="#63b8ff" d="M167.5,-109.54C167.5,-102.34 167.5,-93.53 167.5,-85.68"/>
<polygon fill="#63b8ff" stroke="#63b8ff" points="171,-85.69 167.5,-75.69 164,-85.69 171,-85.69"/>
</g>
<!-- Node4&#45;&gt;Node2 -->
<g id="edge4" class="edge">
<title>Node4&#45;&gt;Node2</title>
<path fill="none" stroke="#63b8ff" d="M86.49,-54.75C87.23,-48.19 88.28,-38.95 89.22,-30.6"/>
<polygon fill="#63b8ff" stroke="#63b8ff" points="92.67,-31.28 90.32,-20.95 85.71,-30.49 92.67,-31.28"/>
</g>
<!-- Node4&#45;&gt;Node3 -->
<g id="edge5" class="edge">
<title>Node4&#45;&gt;Node3</title>
<path fill="none" stroke="#63b8ff" d="M99.41,-54.51C111.74,-46.54 129.97,-34.75 144.47,-25.38"/>
<polygon fill="#63b8ff" stroke="#63b8ff" points="146.03,-28.55 152.52,-20.18 142.23,-22.67 146.03,-28.55"/>
</g>
<!-- Node5 -->
<g id="node5" class="node">
<title>Node5</title>
<g id="a_node5"><a xlink:title=" ">
<polygon fill="#e0e0e0" stroke="#999999" points="49,-19 0,-19 0,0 49,0 49,-19"/>
<text text-anchor="middle" x="24.5" y="-7" font-family="Helvetica,sans-Serif" font-size="10.00">string.h</text>
</a>
</g>
</g>
<!-- Node4&#45;&gt;Node5 -->
<g id="edge6" class="edge">
<title>Node4&#45;&gt;Node5</title>
<path fill="none" stroke="#63b8ff" d="M75.15,-54.51C66.42,-46.93 53.71,-35.88 43.2,-26.75"/>
<polygon fill="#63b8ff" stroke="#63b8ff" points="45.68,-24.27 35.84,-20.35 41.09,-29.55 45.68,-24.27"/>
</g>
<!-- Node7&#45;&gt;Node2 -->
<g id="edge9" class="edge">
<title>Node7&#45;&gt;Node2</title>
<path fill="none" stroke="#63b8ff" d="M154.61,-54.51C143.4,-46.7 126.93,-35.21 113.62,-25.93"/>
<polygon fill="#63b8ff" stroke="#63b8ff" points="115.65,-23.07 105.44,-20.22 111.64,-28.81 115.65,-23.07"/>
</g>
<!-- Node7&#45;&gt;Node3 -->
<g id="edge10" class="edge">
<title>Node7&#45;&gt;Node3</title>
<path fill="none" stroke="#63b8ff" d="M167.5,-54.75C167.5,-48.27 167.5,-39.16 167.5,-30.9"/>
<polygon fill="#63b8ff" stroke="#63b8ff" points="171,-30.96 167.5,-20.96 164,-30.96 171,-30.96"/>
</g>
</g>
</svg>
