<?xml version="1.0" encoding="UTF-8" standalone="no"?>
<!DOCTYPE svg PUBLIC "-//W3C//DTD SVG 1.1//EN"
 "http://www.w3.org/Graphics/SVG/1.1/DTD/svg11.dtd">
<!-- Generated by graphviz version 7.1.0 (0)
 -->
<!-- Title: Graph Legend Pages: 1 -->
<svg width="509pt" height="159pt"
 viewBox="0.00 0.00 509.00 159.00" xmlns="http://www.w3.org/2000/svg" xmlns:xlink="http://www.w3.org/1999/xlink">
<g id="graph0" class="graph" transform="scale(1 1) rotate(0) translate(4 155)">
<title>Graph Legend</title>
<!-- Node9 -->
<g id="node1" class="node">
<title>Node9</title>
<g id="a_node1"><a xlink:title=" ">
<polygon fill="#999999" stroke="#666666" points="292,-19 238,-19 238,0 292,0 292,-19"/>
<text text-anchor="middle" x="265" y="-7" font-family="Helvetica,sans-Serif" font-size="10.00">Inherited</text>
</a>
</g>
</g>
<!-- Node10 -->
<g id="node2" class="node">
<title>Node10</title>
<g id="a_node2"><a xlink:href="url.html" xlink:title=" ">
<polygon fill="white" stroke="#666666" points="66,-85 0,-85 0,-66 66,-66 66,-85"/>
<text text-anchor="middle" x="33" y="-73" font-family="Helvetica,sans-Serif" font-size="10.00">PublicBase</text>
</a>
</g>
</g>
<!-- Node10&#45;&gt;Node9 -->
<g id="edge1" class="edge">
<title>Node10&#45;&gt;Node9</title>
<path fill="none" stroke="#63b8ff" d="M76.08,-62.62C123.37,-49.57 197.86,-29.02 237.71,-18.03"/>
<polygon fill="#63b8ff" stroke="#63b8ff" points="75.43,-59.17 66.72,-65.2 77.29,-65.91 75.43,-59.17"/>
</g>
<!-- Node11 -->
<g id="node3" class="node">
<title>Node11</title>
<g id="a_node3"><a xlink:href="url.html" xlink:title=" ">
<polygon fill="#fff0f0" stroke="red" points="62.5,-151 3.5,-151 3.5,-132 62.5,-132 62.5,-151"/>
<text text-anchor="middle" x="33" y="-139" font-family="Helvetica,sans-Serif" font-size="10.00">Truncated</text>
</a>
</g>
</g>
<!-- Node11&#45;&gt;Node10 -->
<g id="edge2" class="edge">
<title>Node11&#45;&gt;Node10</title>
<path fill="none" stroke="#63b8ff" d="M33,-120.18C33,-108.44 33,-94.27 33,-85.32"/>
<polygon fill="#63b8ff" stroke="#63b8ff" points="29.5,-120.09 33,-130.09 36.5,-120.09 29.5,-120.09"/>
</g>
<!-- Node13 -->
<g id="node4" class="node">
<title>Node13</title>
<polygon fill="white" stroke="#666666" points="165.5,-85 84.5,-85 84.5,-66 165.5,-66 165.5,-85"/>
<text text-anchor="middle" x="125" y="-73" font-family="Helvetica,sans-Serif" font-size="10.00">ProtectedBase</text>
</g>
<!-- Node13&#45;&gt;Node9 -->
<g id="edge3" class="edge">
<title>Node13&#45;&gt;Node9</title>
<path fill="none" stroke="darkgreen" d="M154.67,-60.94C182.13,-48.38 222.16,-30.08 245.7,-19.32"/>
<polygon fill="darkgreen" stroke="darkgreen" points="153.48,-57.63 145.84,-64.97 156.39,-64 153.48,-57.63"/>
</g>
<!-- Node14 -->
<g id="node5" class="node">
<title>Node14</title>
<polygon fill="white" stroke="#666666" points="252.5,-85 183.5,-85 183.5,-66 252.5,-66 252.5,-85"/>
<text text-anchor="middle" x="218" y="-73" font-family="Helvetica,sans-Serif" font-size="10.00">PrivateBase</text>
</g>
<!-- Node14&#45;&gt;Node9 -->
<g id="edge4" class="edge">
<title>Node14&#45;&gt;Node9</title>
<path fill="none" stroke="#8b1a1a" d="M231.3,-56.4C240.2,-44.27 251.53,-28.84 258.52,-19.32"/>
<polygon fill="#8b1a1a" stroke="#8b1a1a" points="228.53,-54.25 225.43,-64.38 234.17,-58.39 228.53,-54.25"/>
</g>
<!-- Node15 -->
<g id="node6" class="node">
<title>Node15</title>
<g id="a_node6"><a xlink:title=" ">
<polygon fill="#e0e0e0" stroke="#999999" points="353.5,-85 270.5,-85 270.5,-66 353.5,-66 353.5,-85"/>
<text text-anchor="middle" x="312" y="-73" font-family="Helvetica,sans-Serif" font-size="10.00">Undocumented</text>
</a>
</g>
</g>
<!-- Node15&#45;&gt;Node9 -->
<g id="edge5" class="edge">
<title>Node15&#45;&gt;Node9</title>
<path fill="none" stroke="#63b8ff" d="M298.7,-56.4C289.8,-44.27 278.47,-28.84 271.48,-19.32"/>
<polygon fill="#63b8ff" stroke="#63b8ff" points="295.83,-58.39 304.57,-64.38 301.47,-54.25 295.83,-58.39"/>
</g>
<!-- Node16 -->
<g id="node7" class="node">
<title>Node16</title>
<polygon fill="white" stroke="#666666" points="442.5,-85 371.5,-85 371.5,-66 442.5,-66 442.5,-85"/>
<text text-anchor="middle" x="407" y="-73" font-family="Helvetica,sans-Serif" font-size="10.00">Templ&lt; int &gt;</text>
</g>
<!-- Node16&#45;&gt;Node9 -->
<g id="edge6" class="edge">
<title>Node16&#45;&gt;Node9</title>
<path fill="none" stroke="#63b8ff" d="M376.91,-60.94C349.05,-48.38 308.45,-30.08 284.58,-19.32"/>
<polygon fill="#63b8ff" stroke="#63b8ff" points="375.32,-64.06 385.88,-64.98 378.2,-57.68 375.32,-64.06"/>
</g>
<!-- Node17 -->
<g id="node8" class="node">
<title>Node17</title>
<polygon fill="white" stroke="#666666" points="440.5,-151 373.5,-151 373.5,-132 440.5,-132 440.5,-151"/>
<text text-anchor="middle" x="407" y="-139" font-family="Helvetica,sans-Serif" font-size="10.00">Templ&lt; T &gt;</text>
</g>
<!-- Node17&#45;&gt;Node16 -->
<g id="edge7" class="edge">
<title>Node17&#45;&gt;Node16</title>
<path fill="none" stroke="orange" stroke-dasharray="5,2" d="M407,-120.18C407,-108.44 407,-94.27 407,-85.32"/>
<polygon fill="orange" stroke="orange" points="403.5,-120.09 407,-130.09 410.5,-120.09 403.5,-120.09"/>
<text text-anchor="middle" x="421.5" y="-106" font-family="Helvetica,sans-Serif" font-size="10.00">&lt; int &gt;</text>
</g>
<!-- Node18 -->
<g id="node9" class="node">
<title>Node18</title>
<polygon fill="white" stroke="#666666" points="501,-85 461,-85 461,-66 501,-66 501,-85"/>
<text text-anchor="middle" x="481" y="-73" font-family="Helvetica,sans-Serif" font-size="10.00">Used</text>
</g>
<!-- Node18&#45;&gt;Node9 -->
<g id="edge8" class="edge">
<title>Node18&#45;&gt;Node9</title>
<path fill="none" stroke="#9a32cd" stroke-dasharray="5,2" d="M449.66,-65.22C407.37,-52.68 332.7,-30.56 292.48,-18.64"/>
<polygon fill="#9a32cd" stroke="#9a32cd" points="448.65,-68.56 459.23,-68.05 450.63,-61.85 448.65,-68.56"/>
<text text-anchor="middle" x="415.5" y="-40" font-family="Helvetica,sans-Serif" font-size="10.00">m_usedClass</text>
</g>
</g>
</svg>
