<?xml version="1.0" encoding="UTF-8" standalone="no"?>
<!DOCTYPE svg PUBLIC "-//W3C//DTD SVG 1.1//EN"
 "http://www.w3.org/Graphics/SVG/1.1/DTD/svg11.dtd">
<!-- Generated by graphviz version 7.1.0 (0)
 -->
<!-- Title: /home/toby/Code/BNO085&#45;I2C&#45;Firmware/src/i2c.h Pages: 1 -->
<svg width="198pt" height="93pt"
 viewBox="0.00 0.00 197.50 93.00" xmlns="http://www.w3.org/2000/svg" xmlns:xlink="http://www.w3.org/1999/xlink">
<g id="graph0" class="graph" transform="scale(1 1) rotate(0) translate(4 89)">
<title>/home/toby/Code/BNO085&#45;I2C&#45;Firmware/src/i2c.h</title>
<!-- Node1 -->
<g id="node1" class="node">
<title>Node1</title>
<g id="a_node1"><a xlink:title="I2C related definitions.">
<polygon fill="#999999" stroke="#666666" points="160,-85 28,-85 28,-55 160,-55 160,-85"/>
<text text-anchor="start" x="36" y="-73" font-family="Helvetica,sans-Serif" font-size="10.00">/home/toby/Code/BNO085</text>
<text text-anchor="middle" x="94" y="-62" font-family="Helvetica,sans-Serif" font-size="10.00">&#45;I2C&#45;Firmware/src/i2c.h</text>
</a>
</g>
</g>
<!-- Node2 -->
<g id="node2" class="node">
<title>Node2</title>
<g id="a_node2"><a xlink:title=" ">
<polygon fill="#e0e0e0" stroke="#999999" points="48,-19 0,-19 0,0 48,0 48,-19"/>
<text text-anchor="middle" x="24" y="-7" font-family="Helvetica,sans-Serif" font-size="10.00">stdint.h</text>
</a>
</g>
</g>
<!-- Node1&#45;&gt;Node2 -->
<g id="edge1" class="edge">
<title>Node1&#45;&gt;Node2</title>
<path fill="none" stroke="#63b8ff" d="M76.7,-54.54C66.53,-46.04 53.66,-35.29 43.18,-26.53"/>
<polygon fill="#63b8ff" stroke="#63b8ff" points="45.46,-23.87 35.54,-20.15 40.97,-29.24 45.46,-23.87"/>
</g>
<!-- Node3 -->
<g id="node3" class="node">
<title>Node3</title>
<g id="a_node3"><a xlink:title=" ">
<polygon fill="#e0e0e0" stroke="#999999" points="122,-19 66,-19 66,0 122,0 122,-19"/>
<text text-anchor="middle" x="94" y="-7" font-family="Helvetica,sans-Serif" font-size="10.00">stdbool.h</text>
</a>
</g>
</g>
<!-- Node1&#45;&gt;Node3 -->
<g id="edge2" class="edge">
<title>Node1&#45;&gt;Node3</title>
<path fill="none" stroke="#63b8ff" d="M94,-54.54C94,-47.34 94,-38.53 94,-30.68"/>
<polygon fill="#63b8ff" stroke="#63b8ff" points="97.5,-30.69 94,-20.69 90.5,-30.69 97.5,-30.69"/>
</g>
<!-- Node4 -->
<g id="node4" class="node">
<title>Node4</title>
<g id="a_node4"><a xlink:title=" ">
<polygon fill="#e0e0e0" stroke="#999999" points="189.5,-19 140.5,-19 140.5,0 189.5,0 189.5,-19"/>
<text text-anchor="middle" x="165" y="-7" font-family="Helvetica,sans-Serif" font-size="10.00">string.h</text>
</a>
</g>
</g>
<!-- Node1&#45;&gt;Node4 -->
<g id="edge3" class="edge">
<title>Node1&#45;&gt;Node4</title>
<path fill="none" stroke="#63b8ff" d="M111.55,-54.54C121.97,-45.96 135.18,-35.07 145.87,-26.26"/>
<polygon fill="#63b8ff" stroke="#63b8ff" points="147.81,-29.2 153.3,-20.14 143.36,-23.8 147.81,-29.2"/>
</g>
</g>
</svg>
