<?xml version="1.0" encoding="UTF-8" standalone="no"?>
<!DOCTYPE svg PUBLIC "-//W3C//DTD SVG 1.1//EN"
 "http://www.w3.org/Graphics/SVG/1.1/DTD/svg11.dtd">
<!-- Generated by graphviz version 7.1.0 (0)
 -->
<!-- Title: /home/toby/Code/BNO085&#45;I2C&#45;Firmware/src/i2c.h Pages: 1 -->
<svg width="304pt" height="104pt"
 viewBox="0.00 0.00 303.50 104.00" xmlns="http://www.w3.org/2000/svg" xmlns:xlink="http://www.w3.org/1999/xlink">
<g id="graph0" class="graph" transform="scale(1 1) rotate(0) translate(4 100)">
<title>/home/toby/Code/BNO085&#45;I2C&#45;Firmware/src/i2c.h</title>
<!-- Node1 -->
<g id="node1" class="node">
<title>Node1</title>
<g id="a_node1"><a xlink:title="I2C related definitions.">
<polygon fill="#999999" stroke="#666666" points="212.5,-96 80.5,-96 80.5,-66 212.5,-66 212.5,-96"/>
<text text-anchor="start" x="88.5" y="-84" font-family="Helvetica,sans-Serif" font-size="10.00">/home/toby/Code/BNO085</text>
<text text-anchor="middle" x="146.5" y="-73" font-family="Helvetica,sans-Serif" font-size="10.00">&#45;I2C&#45;Firmware/src/i2c.h</text>
</a>
</g>
</g>
<!-- Node2 -->
<g id="node2" class="node">
<title>Node2</title>
<g id="a_node2"><a xlink:href="bno08x_8h.html" target="_top" xlink:title="Defines the top level entities for the library.">
<polygon fill="white" stroke="#666666" points="137,-30 0,-30 0,0 137,0 137,-30"/>
<text text-anchor="start" x="8" y="-18" font-family="Helvetica,sans-Serif" font-size="10.00">/home/toby/Code/BNO085</text>
<text text-anchor="middle" x="68.5" y="-7" font-family="Helvetica,sans-Serif" font-size="10.00">&#45;I2C&#45;Firmware/src/bno08x.h</text>
</a>
</g>
</g>
<!-- Node1&#45;&gt;Node2 -->
<g id="edge1" class="edge">
<title>Node1&#45;&gt;Node2</title>
<path fill="none" stroke="#63b8ff" d="M120.54,-58.7C109.2,-49.4 96.2,-38.73 86.03,-30.39"/>
<polygon fill="#63b8ff" stroke="#63b8ff" points="118.07,-61.2 128.02,-64.84 122.51,-55.79 118.07,-61.2"/>
</g>
<!-- Node3 -->
<g id="node3" class="node">
<title>Node3</title>
<g id="a_node3"><a xlink:href="parsers_8h.html" target="_top" xlink:title="BNO08x data frame parser definitions.">
<polygon fill="white" stroke="#666666" points="295.5,-30 155.5,-30 155.5,0 295.5,0 295.5,-30"/>
<text text-anchor="start" x="163.5" y="-18" font-family="Helvetica,sans-Serif" font-size="10.00">/home/toby/Code/BNO085</text>
<text text-anchor="middle" x="225.5" y="-7" font-family="Helvetica,sans-Serif" font-size="10.00">&#45;I2C&#45;Firmware/src/parsers.h</text>
</a>
</g>
</g>
<!-- Node1&#45;&gt;Node3 -->
<g id="edge2" class="edge">
<title>Node1&#45;&gt;Node3</title>
<path fill="none" stroke="#63b8ff" d="M172.79,-58.7C184.28,-49.4 197.44,-38.73 207.74,-30.39"/>
<polygon fill="#63b8ff" stroke="#63b8ff" points="170.78,-55.83 165.21,-64.84 175.18,-61.27 170.78,-55.83"/>
</g>
</g>
</svg>
