<?xml version="1.0" encoding="UTF-8" standalone="no"?>
<!DOCTYPE svg PUBLIC "-//W3C//DTD SVG 1.1//EN"
 "http://www.w3.org/Graphics/SVG/1.1/DTD/svg11.dtd">
<!-- Generated by graphviz version 7.1.0 (0)
 -->
<!-- Title: /home/toby/Code/BNO085&#45;I2C&#45;Firmware/src/main.c Pages: 1 -->
<svg width="322pt" height="203pt"
 viewBox="0.00 0.00 322.09 203.00" xmlns="http://www.w3.org/2000/svg" xmlns:xlink="http://www.w3.org/1999/xlink">
<g id="graph0" class="graph" transform="scale(1 1) rotate(0) translate(4 199)">
<title>/home/toby/Code/BNO085&#45;I2C&#45;Firmware/src/main.c</title>
<!-- Node1 -->
<g id="node1" class="node">
<title>Node1</title>
<g id="a_node1"><a xlink:title="Main.">
<polygon fill="#999999" stroke="#666666" points="177,-195 45,-195 45,-165 177,-165 177,-195"/>
<text text-anchor="start" x="53" y="-183" font-family="Helvetica,sans-Serif" font-size="10.00">/home/toby/Code/BNO085</text>
<text text-anchor="middle" x="111" y="-172" font-family="Helvetica,sans-Serif" font-size="10.00">&#45;I2C&#45;Firmware/src/main.c</text>
</a>
</g>
</g>
<!-- Node2 -->
<g id="node2" class="node">
<title>Node2</title>
<g id="a_node2"><a xlink:title=" ">
<polygon fill="#e0e0e0" stroke="#999999" points="46,-129 0,-129 0,-110 46,-110 46,-129"/>
<text text-anchor="middle" x="23" y="-117" font-family="Helvetica,sans-Serif" font-size="10.00">stdio.h</text>
</a>
</g>
</g>
<!-- Node1&#45;&gt;Node2 -->
<g id="edge1" class="edge">
<title>Node1&#45;&gt;Node2</title>
<path fill="none" stroke="#63b8ff" d="M89.25,-164.54C76.03,-155.75 59.17,-144.54 45.76,-135.63"/>
<polygon fill="#63b8ff" stroke="#63b8ff" points="47.83,-132.81 37.57,-130.18 43.96,-138.63 47.83,-132.81"/>
</g>
<!-- Node3 -->
<g id="node3" class="node">
<title>Node3</title>
<g id="a_node3"><a xlink:href="defs_8h_source.html" target="_top" xlink:title=" ">
<polygon fill="white" stroke="#666666" points="108,-129 64,-129 64,-110 108,-110 108,-129"/>
<text text-anchor="middle" x="86" y="-117" font-family="Helvetica,sans-Serif" font-size="10.00">defs.h</text>
</a>
</g>
</g>
<!-- Node1&#45;&gt;Node3 -->
<g id="edge2" class="edge">
<title>Node1&#45;&gt;Node3</title>
<path fill="none" stroke="#63b8ff" d="M104.82,-164.54C101.6,-157 97.61,-147.67 94.14,-139.55"/>
<polygon fill="#63b8ff" stroke="#63b8ff" points="97.45,-138.39 90.3,-130.57 91.01,-141.14 97.45,-138.39"/>
</g>
<!-- Node4 -->
<g id="node4" class="node">
<title>Node4</title>
<g id="a_node4"><a xlink:href="bno08x_8h_source.html" target="_top" xlink:title=" ">
<polygon fill="white" stroke="#666666" points="220,-129 164,-129 164,-110 220,-110 220,-129"/>
<text text-anchor="middle" x="192" y="-117" font-family="Helvetica,sans-Serif" font-size="10.00">bno08x.h</text>
</a>
</g>
</g>
<!-- Node1&#45;&gt;Node4 -->
<g id="edge3" class="edge">
<title>Node1&#45;&gt;Node4</title>
<path fill="none" stroke="#63b8ff" d="M131.02,-164.54C143.15,-155.78 158.6,-144.63 170.91,-135.73"/>
<polygon fill="#63b8ff" stroke="#63b8ff" points="172.7,-138.75 178.76,-130.06 168.61,-133.08 172.7,-138.75"/>
</g>
<!-- Node7 -->
<g id="node7" class="node">
<title>Node7</title>
<g id="a_node7"><a xlink:href="i2c_8h_source.html" target="_top" xlink:title=" ">
<polygon fill="white" stroke="#666666" points="155,-74 117,-74 117,-55 155,-55 155,-74"/>
<text text-anchor="middle" x="136" y="-62" font-family="Helvetica,sans-Serif" font-size="10.00">i2c.h</text>
</a>
</g>
</g>
<!-- Node1&#45;&gt;Node7 -->
<g id="edge12" class="edge">
<title>Node1&#45;&gt;Node7</title>
<path fill="none" stroke="#63b8ff" d="M114.17,-164.63C118.6,-144.49 126.68,-107.83 131.67,-85.18"/>
<polygon fill="#63b8ff" stroke="#63b8ff" points="135.02,-86.23 133.75,-75.71 128.18,-84.72 135.02,-86.23"/>
</g>
<!-- Node5 -->
<g id="node5" class="node">
<title>Node5</title>
<g id="a_node5"><a xlink:title=" ">
<polygon fill="#e0e0e0" stroke="#999999" points="207,-19 159,-19 159,0 207,0 207,-19"/>
<text text-anchor="middle" x="183" y="-7" font-family="Helvetica,sans-Serif" font-size="10.00">stdint.h</text>
</a>
</g>
</g>
<!-- Node4&#45;&gt;Node5 -->
<g id="edge4" class="edge">
<title>Node4&#45;&gt;Node5</title>
<path fill="none" stroke="#63b8ff" d="M191.26,-109.66C189.84,-92.57 186.68,-54.61 184.7,-30.92"/>
<polygon fill="#63b8ff" stroke="#63b8ff" points="188.19,-30.64 183.87,-20.97 181.22,-31.22 188.19,-30.64"/>
</g>
<!-- Node6 -->
<g id="node6" class="node">
<title>Node6</title>
<g id="a_node6"><a xlink:title=" ">
<polygon fill="#e0e0e0" stroke="#999999" points="284,-19 228,-19 228,0 284,0 284,-19"/>
<text text-anchor="middle" x="256" y="-7" font-family="Helvetica,sans-Serif" font-size="10.00">stdbool.h</text>
</a>
</g>
</g>
<!-- Node4&#45;&gt;Node6 -->
<g id="edge5" class="edge">
<title>Node4&#45;&gt;Node6</title>
<path fill="none" stroke="#63b8ff" d="M220.41,-116.64C248.45,-113.12 289.95,-102.99 310,-74 322.2,-56.36 302.18,-37.87 283.16,-25.42"/>
<polygon fill="#63b8ff" stroke="#63b8ff" points="285.13,-22.52 274.77,-20.29 281.48,-28.49 285.13,-22.52"/>
</g>
<!-- Node4&#45;&gt;Node7 -->
<g id="edge6" class="edge">
<title>Node4&#45;&gt;Node7</title>
<path fill="none" stroke="#63b8ff" d="M182.5,-109.51C174.57,-102 163.05,-91.1 153.46,-82.03"/>
<polygon fill="#63b8ff" stroke="#63b8ff" points="156.13,-79.73 146.46,-75.4 151.32,-84.81 156.13,-79.73"/>
</g>
<!-- Node8 -->
<g id="node8" class="node">
<title>Node8</title>
<g id="a_node8"><a xlink:href="sensor__reports_8h_source.html" target="_top" xlink:title=" ">
<polygon fill="white" stroke="#666666" points="301,-74 211,-74 211,-55 301,-55 301,-74"/>
<text text-anchor="middle" x="256" y="-62" font-family="Helvetica,sans-Serif" font-size="10.00">sensor_reports.h</text>
</a>
</g>
</g>
<!-- Node4&#45;&gt;Node8 -->
<g id="edge9" class="edge">
<title>Node4&#45;&gt;Node8</title>
<path fill="none" stroke="#63b8ff" d="M202.86,-109.51C212.11,-101.85 225.62,-90.66 236.71,-81.47"/>
<polygon fill="#63b8ff" stroke="#63b8ff" points="238.67,-84.4 244.14,-75.32 234.2,-79.01 238.67,-84.4"/>
</g>
<!-- Node7&#45;&gt;Node5 -->
<g id="edge7" class="edge">
<title>Node7&#45;&gt;Node5</title>
<path fill="none" stroke="#63b8ff" d="M143.76,-54.75C150.19,-47.5 159.51,-36.98 167.46,-28.02"/>
<polygon fill="#63b8ff" stroke="#63b8ff" points="170.05,-30.38 174.07,-20.57 164.81,-25.73 170.05,-30.38"/>
</g>
<!-- Node7&#45;&gt;Node6 -->
<g id="edge8" class="edge">
<title>Node7&#45;&gt;Node6</title>
<path fill="none" stroke="#63b8ff" d="M155.28,-54.98C174.21,-46.62 203.38,-33.74 225.46,-23.99"/>
<polygon fill="#63b8ff" stroke="#63b8ff" points="226.85,-27.2 234.58,-19.96 224.02,-20.8 226.85,-27.2"/>
</g>
<!-- Node8&#45;&gt;Node5 -->
<g id="edge10" class="edge">
<title>Node8&#45;&gt;Node5</title>
<path fill="none" stroke="#63b8ff" d="M243.62,-54.51C232.85,-46.7 217.03,-35.21 204.25,-25.93"/>
<polygon fill="#63b8ff" stroke="#63b8ff" points="206.57,-23.29 196.43,-20.25 202.46,-28.95 206.57,-23.29"/>
</g>
<!-- Node8&#45;&gt;Node6 -->
<g id="edge11" class="edge">
<title>Node8&#45;&gt;Node6</title>
<path fill="none" stroke="#63b8ff" d="M256,-54.75C256,-48.27 256,-39.16 256,-30.9"/>
<polygon fill="#63b8ff" stroke="#63b8ff" points="259.5,-30.96 256,-20.96 252.5,-30.96 259.5,-30.96"/>
</g>
</g>
</svg>
