<?xml version="1.0" encoding="UTF-8" standalone="no"?>
<!DOCTYPE svg PUBLIC "-//W3C//DTD SVG 1.1//EN"
 "http://www.w3.org/Graphics/SVG/1.1/DTD/svg11.dtd">
<!-- Generated by graphviz version 7.1.0 (0)
 -->
<!-- Title: /home/toby/Code/BNO085&#45;I2C&#45;Firmware/src/parsers.h Pages: 1 -->
<svg width="198pt" height="148pt"
 viewBox="0.00 0.00 197.50 148.00" xmlns="http://www.w3.org/2000/svg" xmlns:xlink="http://www.w3.org/1999/xlink">
<g id="graph0" class="graph" transform="scale(1 1) rotate(0) translate(4 144)">
<title>/home/toby/Code/BNO085&#45;I2C&#45;Firmware/src/parsers.h</title>
<!-- Node1 -->
<g id="node1" class="node">
<title>Node1</title>
<g id="a_node1"><a xlink:title="BNO08x data frame parser definitions.">
<polygon fill="#999999" stroke="#666666" points="164,-140 24,-140 24,-110 164,-110 164,-140"/>
<text text-anchor="start" x="32" y="-128" font-family="Helvetica,sans-Serif" font-size="10.00">/home/toby/Code/BNO085</text>
<text text-anchor="middle" x="94" y="-117" font-family="Helvetica,sans-Serif" font-size="10.00">&#45;I2C&#45;Firmware/src/parsers.h</text>
</a>
</g>
</g>
<!-- Node2 -->
<g id="node2" class="node">
<title>Node2</title>
<g id="a_node2"><a xlink:href="i2c_8h.html" target="_top" xlink:title="I2C related definitions.">
<polygon fill="white" stroke="#666666" points="113,-74 75,-74 75,-55 113,-55 113,-74"/>
<text text-anchor="middle" x="94" y="-62" font-family="Helvetica,sans-Serif" font-size="10.00">i2c.h</text>
</a>
</g>
</g>
<!-- Node1&#45;&gt;Node2 -->
<g id="edge1" class="edge">
<title>Node1&#45;&gt;Node2</title>
<path fill="none" stroke="#63b8ff" d="M94,-109.54C94,-102.34 94,-93.53 94,-85.68"/>
<polygon fill="#63b8ff" stroke="#63b8ff" points="97.5,-85.69 94,-75.69 90.5,-85.69 97.5,-85.69"/>
</g>
<!-- Node3 -->
<g id="node3" class="node">
<title>Node3</title>
<g id="a_node3"><a xlink:title=" ">
<polygon fill="#e0e0e0" stroke="#999999" points="48,-19 0,-19 0,0 48,0 48,-19"/>
<text text-anchor="middle" x="24" y="-7" font-family="Helvetica,sans-Serif" font-size="10.00">stdint.h</text>
</a>
</g>
</g>
<!-- Node2&#45;&gt;Node3 -->
<g id="edge2" class="edge">
<title>Node2&#45;&gt;Node3</title>
<path fill="none" stroke="#63b8ff" d="M82.13,-54.51C71.91,-46.77 56.93,-35.43 44.74,-26.2"/>
<polygon fill="#63b8ff" stroke="#63b8ff" points="46.99,-23.52 36.91,-20.27 42.77,-29.1 46.99,-23.52"/>
</g>
<!-- Node4 -->
<g id="node4" class="node">
<title>Node4</title>
<g id="a_node4"><a xlink:title=" ">
<polygon fill="#e0e0e0" stroke="#999999" points="122,-19 66,-19 66,0 122,0 122,-19"/>
<text text-anchor="middle" x="94" y="-7" font-family="Helvetica,sans-Serif" font-size="10.00">stdbool.h</text>
</a>
</g>
</g>
<!-- Node2&#45;&gt;Node4 -->
<g id="edge3" class="edge">
<title>Node2&#45;&gt;Node4</title>
<path fill="none" stroke="#63b8ff" d="M94,-54.75C94,-48.27 94,-39.16 94,-30.9"/>
<polygon fill="#63b8ff" stroke="#63b8ff" points="97.5,-30.96 94,-20.96 90.5,-30.96 97.5,-30.96"/>
</g>
<!-- Node5 -->
<g id="node5" class="node">
<title>Node5</title>
<g id="a_node5"><a xlink:title=" ">
<polygon fill="#e0e0e0" stroke="#999999" points="189.5,-19 140.5,-19 140.5,0 189.5,0 189.5,-19"/>
<text text-anchor="middle" x="165" y="-7" font-family="Helvetica,sans-Serif" font-size="10.00">string.h</text>
</a>
</g>
</g>
<!-- Node2&#45;&gt;Node5 -->
<g id="edge4" class="edge">
<title>Node2&#45;&gt;Node5</title>
<path fill="none" stroke="#63b8ff" d="M106.04,-54.51C116.41,-46.77 131.6,-35.43 143.97,-26.2"/>
<polygon fill="#63b8ff" stroke="#63b8ff" points="146,-29.05 151.92,-20.26 141.81,-23.44 146,-29.05"/>
</g>
</g>
</svg>
