<?xml version="1.0" encoding="UTF-8" standalone="no"?>
<!DOCTYPE svg PUBLIC "-//W3C//DTD SVG 1.1//EN"
 "http://www.w3.org/Graphics/SVG/1.1/DTD/svg11.dtd">
<!-- Generated by graphviz version 7.1.0 (0)
 -->
<!-- Title: /home/toby/Code/BNO085&#45;I2C&#45;Firmware/src/sensor_reports.h Pages: 1 -->
<svg width="140pt" height="104pt"
 viewBox="0.00 0.00 140.00 104.00" xmlns="http://www.w3.org/2000/svg" xmlns:xlink="http://www.w3.org/1999/xlink">
<g id="graph0" class="graph" transform="scale(1 1) rotate(0) translate(4 100)">
<title>/home/toby/Code/BNO085&#45;I2C&#45;Firmware/src/sensor_reports.h</title>
<!-- Node1 -->
<g id="node1" class="node">
<title>Node1</title>
<g id="a_node1"><a xlink:title="Definitions for all input reports available from the BNO08x.">
<polygon fill="#999999" stroke="#666666" points="132,-96 0,-96 0,-55 132,-55 132,-96"/>
<text text-anchor="start" x="8" y="-84" font-family="Helvetica,sans-Serif" font-size="10.00">/home/toby/Code/BNO085</text>
<text text-anchor="start" x="8" y="-73" font-family="Helvetica,sans-Serif" font-size="10.00">&#45;I2C&#45;Firmware/src/sensor</text>
<text text-anchor="middle" x="66" y="-62" font-family="Helvetica,sans-Serif" font-size="10.00">_reports.h</text>
</a>
</g>
</g>
<!-- Node2 -->
<g id="node2" class="node">
<title>Node2</title>
<g id="a_node2"><a xlink:title=" ">
<polygon fill="#e0e0e0" stroke="#999999" points="55,-19 7,-19 7,0 55,0 55,-19"/>
<text text-anchor="middle" x="31" y="-7" font-family="Helvetica,sans-Serif" font-size="10.00">stdint.h</text>
</a>
</g>
</g>
<!-- Node1&#45;&gt;Node2 -->
<g id="edge1" class="edge">
<title>Node1&#45;&gt;Node2</title>
<path fill="none" stroke="#63b8ff" d="M55.12,-54.6C50.65,-46.43 45.5,-37.02 41.12,-29"/>
<polygon fill="#63b8ff" stroke="#63b8ff" points="44.33,-27.58 36.46,-20.49 38.19,-30.94 44.33,-27.58"/>
</g>
<!-- Node3 -->
<g id="node3" class="node">
<title>Node3</title>
<g id="a_node3"><a xlink:title=" ">
<polygon fill="#e0e0e0" stroke="#999999" points="129,-19 73,-19 73,0 129,0 129,-19"/>
<text text-anchor="middle" x="101" y="-7" font-family="Helvetica,sans-Serif" font-size="10.00">stdbool.h</text>
</a>
</g>
</g>
<!-- Node1&#45;&gt;Node3 -->
<g id="edge2" class="edge">
<title>Node1&#45;&gt;Node3</title>
<path fill="none" stroke="#63b8ff" d="M76.88,-54.6C81.35,-46.43 86.5,-37.02 90.88,-29"/>
<polygon fill="#63b8ff" stroke="#63b8ff" points="93.81,-30.94 95.54,-20.49 87.67,-27.58 93.81,-30.94"/>
</g>
</g>
</svg>
