<?xml version="1.0" encoding="UTF-8" standalone="no"?>
<!DOCTYPE svg PUBLIC "-//W3C//DTD SVG 1.1//EN"
 "http://www.w3.org/Graphics/SVG/1.1/DTD/svg11.dtd">
<!-- Generated by graphviz version 7.1.0 (0)
 -->
<!-- Title: sensor Pages: 1 -->
<svg width="506pt" height="1444pt"
 viewBox="0.00 0.00 506.00 1444.01" xmlns="http://www.w3.org/2000/svg" xmlns:xlink="http://www.w3.org/1999/xlink">
<g id="graph0" class="graph" transform="scale(1 1) rotate(0) translate(4 1440.01)">
<title>sensor</title>
<!-- Node1 -->
<g id="node1" class="node">
<title>Node1</title>
<g id="a_node1"><a xlink:title="Stores an instance of a single sensor.">
<polygon fill="#999999" stroke="#666666" points="498,-727.51 452,-727.51 452,-708.51 498,-708.51 498,-727.51"/>
<text text-anchor="middle" x="475" y="-715.51" font-family="Helvetica,sans-Serif" font-size="10.00">sensor</text>
</a>
</g>
</g>
<!-- Node2 -->
<g id="node2" class="node">
<title>Node2</title>
<g id="a_node2"><a xlink:href="unioninput__report.html" target="_top" xlink:title=" ">
<polygon fill="white" stroke="#bfbfbf" points="361,-727.51 293,-727.51 293,-708.51 361,-708.51 361,-727.51"/>
<text text-anchor="middle" x="327" y="-715.51" font-family="Helvetica,sans-Serif" font-size="10.00">input_report</text>
</a>
</g>
</g>
<!-- Node2&#45;&gt;Node1 -->
<g id="edge1" class="edge">
<title>Node2&#45;&gt;Node1</title>
<path fill="none" stroke="#9a32cd" stroke-dasharray="5,2" d="M372.66,-718.01C398.77,-718.01 430.61,-718.01 451.55,-718.01"/>
<polygon fill="#9a32cd" stroke="#9a32cd" points="373.01,-714.51 363.01,-718.01 373.01,-721.51 373.01,-714.51"/>
<text text-anchor="middle" x="406.5" y="-721.01" font-family="Helvetica,sans-Serif" font-size="10.00"> input_report</text>
</g>
<!-- Node3 -->
<g id="node3" class="node">
<title>Node3</title>
<g id="a_node3"><a xlink:href="structaccelerometer__report.html" target="_top" xlink:title="Holds the report data for the accelerometer.">
<polygon fill="white" stroke="#666666" points="122,-1420.51 13,-1420.51 13,-1401.51 122,-1401.51 122,-1420.51"/>
<text text-anchor="middle" x="67.5" y="-1408.51" font-family="Helvetica,sans-Serif" font-size="10.00">accelerometer_report</text>
</a>
</g>
</g>
<!-- Node3&#45;&gt;Node2 -->
<g id="edge2" class="edge">
<title>Node3&#45;&gt;Node2</title>
<path fill="none" stroke="#9a32cd" stroke-dasharray="5,2" d="M124.62,-1422.6C171.62,-1428.72 236.96,-1428.21 275,-1389.01 323.15,-1339.38 325.86,-807.66 326,-727.98"/>
<polygon fill="#9a32cd" stroke="#9a32cd" points="125.28,-1419.16 114.89,-1421.18 124.28,-1426.09 125.28,-1419.16"/>
<text text-anchor="middle" x="214" y="-1428.01" font-family="Helvetica,sans-Serif" font-size="10.00"> accelerometer</text>
</g>
<!-- Node4 -->
<g id="node4" class="node">
<title>Node4</title>
<g id="a_node4"><a xlink:href="structgyroscope__report.html" target="_top" xlink:title="Holds the report data for the gyroscope.">
<polygon fill="white" stroke="#666666" points="113.5,-1383.51 21.5,-1383.51 21.5,-1364.51 113.5,-1364.51 113.5,-1383.51"/>
<text text-anchor="middle" x="67.5" y="-1371.51" font-family="Helvetica,sans-Serif" font-size="10.00">gyroscope_report</text>
</a>
</g>
</g>
<!-- Node4&#45;&gt;Node2 -->
<g id="edge3" class="edge">
<title>Node4&#45;&gt;Node2</title>
<path fill="none" stroke="#9a32cd" stroke-dasharray="5,2" d="M125.13,-1375.18C179.07,-1374.97 254.92,-1370.81 275,-1350.01 320.2,-1303.18 325.41,-803.49 325.94,-727.63"/>
<polygon fill="#9a32cd" stroke="#9a32cd" points="125.16,-1371.68 115.16,-1375.16 125.15,-1378.68 125.16,-1371.68"/>
<text text-anchor="middle" x="214" y="-1377.01" font-family="Helvetica,sans-Serif" font-size="10.00"> gyroscope</text>
</g>
<!-- Node5 -->
<g id="node5" class="node">
<title>Node5</title>
<g id="a_node5"><a xlink:href="structmagnetic__field__report.html" target="_top" xlink:title="Holds the report data for the magnetic field.">
<polygon fill="white" stroke="#666666" points="122.5,-1346.51 12.5,-1346.51 12.5,-1327.51 122.5,-1327.51 122.5,-1346.51"/>
<text text-anchor="middle" x="67.5" y="-1334.51" font-family="Helvetica,sans-Serif" font-size="10.00">magnetic_field_report</text>
</a>
</g>
</g>
<!-- Node5&#45;&gt;Node2 -->
<g id="edge4" class="edge">
<title>Node5&#45;&gt;Node2</title>
<path fill="none" stroke="#9a32cd" stroke-dasharray="5,2" d="M134.33,-1336.06C187.4,-1333.8 256.18,-1326.95 275,-1307.01 316.48,-1263.06 324.8,-801.52 325.87,-727.89"/>
<polygon fill="#9a32cd" stroke="#9a32cd" points="134.31,-1332.56 124.45,-1336.43 134.57,-1339.56 134.31,-1332.56"/>
<text text-anchor="middle" x="214" y="-1338.01" font-family="Helvetica,sans-Serif" font-size="10.00"> magnetic_field</text>
</g>
<!-- Node6 -->
<g id="node6" class="node">
<title>Node6</title>
<g id="a_node6"><a xlink:href="structlinear__acceleration__report.html" target="_top" xlink:title="Holds the report data for the linear acceleration.">
<polygon fill="white" stroke="#666666" points="116.5,-1309.01 18.5,-1309.01 18.5,-1279.01 116.5,-1279.01 116.5,-1309.01"/>
<text text-anchor="start" x="26.5" y="-1297.01" font-family="Helvetica,sans-Serif" font-size="10.00">linear_acceleration</text>
<text text-anchor="middle" x="67.5" y="-1286.01" font-family="Helvetica,sans-Serif" font-size="10.00">_report</text>
</a>
</g>
</g>
<!-- Node6&#45;&gt;Node2 -->
<g id="edge5" class="edge">
<title>Node6&#45;&gt;Node2</title>
<path fill="none" stroke="#9a32cd" stroke-dasharray="5,2" d="M128.46,-1293.88C182.15,-1292.39 255.35,-1286.5 275,-1266.01 313.85,-1225.49 324.35,-797.58 325.81,-727.65"/>
<polygon fill="#9a32cd" stroke="#9a32cd" points="128.42,-1290.38 118.5,-1294.11 128.58,-1297.38 128.42,-1290.38"/>
<text text-anchor="middle" x="214" y="-1295.01" font-family="Helvetica,sans-Serif" font-size="10.00"> linear_acceleration</text>
</g>
<!-- Node7 -->
<g id="node7" class="node">
<title>Node7</title>
<g id="a_node7"><a xlink:href="structrotation__vector__report.html" target="_top" xlink:title="Holds the report data for the rotation vector.">
<polygon fill="white" stroke="#666666" points="123,-1260.51 12,-1260.51 12,-1241.51 123,-1241.51 123,-1260.51"/>
<text text-anchor="middle" x="67.5" y="-1248.51" font-family="Helvetica,sans-Serif" font-size="10.00">rotation_vector_report</text>
</a>
</g>
</g>
<!-- Node7&#45;&gt;Node2 -->
<g id="edge6" class="edge">
<title>Node7&#45;&gt;Node2</title>
<path fill="none" stroke="#9a32cd" stroke-dasharray="5,2" d="M134.63,-1252.35C187.51,-1251.89 255.86,-1247.36 275,-1228.01 311.6,-1190.99 323.9,-795.53 325.75,-727.84"/>
<polygon fill="#9a32cd" stroke="#9a32cd" points="134.77,-1248.84 124.78,-1252.38 134.79,-1255.84 134.77,-1248.84"/>
<text text-anchor="middle" x="214" y="-1254.01" font-family="Helvetica,sans-Serif" font-size="10.00"> rotation_vector</text>
</g>
<!-- Node8 -->
<g id="node8" class="node">
<title>Node8</title>
<g id="a_node8"><a xlink:href="structgravity__report.html" target="_top" xlink:title="Holds the report data for the gravity.">
<polygon fill="white" stroke="#666666" points="106,-1223.51 29,-1223.51 29,-1204.51 106,-1204.51 106,-1223.51"/>
<text text-anchor="middle" x="67.5" y="-1211.51" font-family="Helvetica,sans-Serif" font-size="10.00">gravity_report</text>
</a>
</g>
</g>
<!-- Node8&#45;&gt;Node2 -->
<g id="edge7" class="edge">
<title>Node8&#45;&gt;Node2</title>
<path fill="none" stroke="#9a32cd" stroke-dasharray="5,2" d="M117.69,-1214.32C171.76,-1213.54 253.8,-1208.67 275,-1187.01 308.37,-1152.91 323.24,-792.37 325.65,-727.86"/>
<polygon fill="#9a32cd" stroke="#9a32cd" points="117.76,-1210.82 107.79,-1214.41 117.82,-1217.82 117.76,-1210.82"/>
<text text-anchor="middle" x="214" y="-1216.01" font-family="Helvetica,sans-Serif" font-size="10.00"> gravity</text>
</g>
<!-- Node9 -->
<g id="node9" class="node">
<title>Node9</title>
<g id="a_node9"><a xlink:href="structuncalibrated__gyroscope__report.html" target="_top" xlink:title="Holds the report data for the uncalibrated gyroscope.">
<polygon fill="white" stroke="#666666" points="127,-1186.01 8,-1186.01 8,-1156.01 127,-1156.01 127,-1186.01"/>
<text text-anchor="start" x="16" y="-1174.01" font-family="Helvetica,sans-Serif" font-size="10.00">uncalibrated_gyroscope</text>
<text text-anchor="middle" x="67.5" y="-1163.01" font-family="Helvetica,sans-Serif" font-size="10.00">_report</text>
</a>
</g>
</g>
<!-- Node9&#45;&gt;Node2 -->
<g id="edge8" class="edge">
<title>Node9&#45;&gt;Node2</title>
<path fill="none" stroke="#9a32cd" stroke-dasharray="5,2" d="M138.72,-1172.57C190.89,-1172.12 256.16,-1167.63 275,-1149.01 306.08,-1118.28 322.71,-789.27 325.56,-727.85"/>
<polygon fill="#9a32cd" stroke="#9a32cd" points="138.97,-1169.07 128.98,-1172.6 138.99,-1176.07 138.97,-1169.07"/>
<text text-anchor="middle" x="214" y="-1175.01" font-family="Helvetica,sans-Serif" font-size="10.00"> uncalibrated_gyroscope</text>
</g>
<!-- Node10 -->
<g id="node10" class="node">
<title>Node10</title>
<g id="a_node10"><a xlink:href="structgame__rotation__vector__report.html" target="_top" xlink:title="Holds the report data for the game rotation vector.">
<polygon fill="white" stroke="#666666" points="122.5,-1138.01 12.5,-1138.01 12.5,-1108.01 122.5,-1108.01 122.5,-1138.01"/>
<text text-anchor="start" x="20.5" y="-1126.01" font-family="Helvetica,sans-Serif" font-size="10.00">game_rotation_vector</text>
<text text-anchor="middle" x="67.5" y="-1115.01" font-family="Helvetica,sans-Serif" font-size="10.00">_report</text>
</a>
</g>
</g>
<!-- Node10&#45;&gt;Node2 -->
<g id="edge9" class="edge">
<title>Node10&#45;&gt;Node2</title>
<path fill="none" stroke="#9a32cd" stroke-dasharray="5,2" d="M134.06,-1134.42C179.71,-1138.34 238.69,-1134.69 275,-1099.01 329.62,-1045.33 327.3,-781.69 326.23,-727.68"/>
<polygon fill="#9a32cd" stroke="#9a32cd" points="134.57,-1130.95 124.26,-1133.43 133.86,-1137.92 134.57,-1130.95"/>
<text text-anchor="middle" x="214" y="-1138.01" font-family="Helvetica,sans-Serif" font-size="10.00"> game_rotation_vector</text>
</g>
<!-- Node11 -->
<g id="node11" class="node">
<title>Node11</title>
<g id="a_node11"><a xlink:href="structgeomagnetic__rotation__vector__report.html" target="_top" xlink:title="Holds the report data for the geomagnetic rotation vector.">
<polygon fill="white" stroke="#666666" points="122.5,-1090.01 12.5,-1090.01 12.5,-1060.01 122.5,-1060.01 122.5,-1090.01"/>
<text text-anchor="start" x="20.5" y="-1078.01" font-family="Helvetica,sans-Serif" font-size="10.00">geomagnetic_rotation</text>
<text text-anchor="middle" x="67.5" y="-1067.01" font-family="Helvetica,sans-Serif" font-size="10.00">_vector_report</text>
</a>
</g>
</g>
<!-- Node11&#45;&gt;Node2 -->
<g id="edge10" class="edge">
<title>Node11&#45;&gt;Node2</title>
<path fill="none" stroke="#9a32cd" stroke-dasharray="5,2" d="M133.97,-1074.41C186.81,-1072.47 255.45,-1066.19 275,-1047.01 321.83,-1001.06 325.71,-777.91 325.99,-727.95"/>
<polygon fill="#9a32cd" stroke="#9a32cd" points="134.02,-1070.91 124.13,-1074.72 134.24,-1077.9 134.02,-1070.91"/>
<text text-anchor="start" x="165.5" y="-1087.01" font-family="Helvetica,sans-Serif" font-size="10.00"> geomagnetic_rotation</text>
<text text-anchor="middle" x="214" y="-1076.01" font-family="Helvetica,sans-Serif" font-size="10.00">_vector</text>
</g>
<!-- Node12 -->
<g id="node12" class="node">
<title>Node12</title>
<g id="a_node12"><a xlink:href="structpressure__report.html" target="_top" xlink:title="Holds the report data for the pressure.">
<polygon fill="white" stroke="#666666" points="110,-1041.51 25,-1041.51 25,-1022.51 110,-1022.51 110,-1041.51"/>
<text text-anchor="middle" x="67.5" y="-1029.51" font-family="Helvetica,sans-Serif" font-size="10.00">pressure_report</text>
</a>
</g>
</g>
<!-- Node12&#45;&gt;Node2 -->
<g id="edge11" class="edge">
<title>Node12&#45;&gt;Node2</title>
<path fill="none" stroke="#9a32cd" stroke-dasharray="5,2" d="M121.46,-1033.35C175.21,-1033.53 253.47,-1030.14 275,-1010.01 317.38,-970.37 324.67,-773.99 325.81,-727.77"/>
<polygon fill="#9a32cd" stroke="#9a32cd" points="121.6,-1029.85 111.57,-1033.27 121.55,-1036.85 121.6,-1029.85"/>
<text text-anchor="middle" x="214" y="-1035.01" font-family="Helvetica,sans-Serif" font-size="10.00"> pressure</text>
</g>
<!-- Node13 -->
<g id="node13" class="node">
<title>Node13</title>
<g id="a_node13"><a xlink:href="structambient__light__report.html" target="_top" xlink:title="Holds the report data for the ambient light.">
<polygon fill="white" stroke="#666666" points="120,-1004.51 15,-1004.51 15,-985.51 120,-985.51 120,-1004.51"/>
<text text-anchor="middle" x="67.5" y="-992.51" font-family="Helvetica,sans-Serif" font-size="10.00">ambient_light_report</text>
</a>
</g>
</g>
<!-- Node13&#45;&gt;Node2 -->
<g id="edge12" class="edge">
<title>Node13&#45;&gt;Node2</title>
<path fill="none" stroke="#9a32cd" stroke-dasharray="5,2" d="M131.73,-996.22C184.61,-995.84 254.59,-991.63 275,-973.01 312.18,-939.07 323.29,-770.76 325.53,-727.93"/>
<polygon fill="#9a32cd" stroke="#9a32cd" points="131.89,-992.72 121.9,-996.24 131.91,-999.72 131.89,-992.72"/>
<text text-anchor="middle" x="214" y="-998.01" font-family="Helvetica,sans-Serif" font-size="10.00"> ambient_light</text>
</g>
<!-- Node14 -->
<g id="node14" class="node">
<title>Node14</title>
<g id="a_node14"><a xlink:href="structhumidity__report.html" target="_top" xlink:title="Holds the report data for the humidity.">
<polygon fill="white" stroke="#666666" points="109.5,-967.51 25.5,-967.51 25.5,-948.51 109.5,-948.51 109.5,-967.51"/>
<text text-anchor="middle" x="67.5" y="-955.51" font-family="Helvetica,sans-Serif" font-size="10.00">humidity_report</text>
</a>
</g>
</g>
<!-- Node14&#45;&gt;Node2 -->
<g id="edge13" class="edge">
<title>Node14&#45;&gt;Node2</title>
<path fill="none" stroke="#9a32cd" stroke-dasharray="5,2" d="M121.25,-958.83C174.82,-958.53 252.94,-954.57 275,-935.01 306.85,-906.76 321.62,-766.8 325.15,-728"/>
<polygon fill="#9a32cd" stroke="#9a32cd" points="121.4,-955.33 111.4,-958.84 121.41,-962.33 121.4,-955.33"/>
<text text-anchor="middle" x="214" y="-961.01" font-family="Helvetica,sans-Serif" font-size="10.00"> humidity</text>
</g>
<!-- Node15 -->
<g id="node15" class="node">
<title>Node15</title>
<g id="a_node15"><a xlink:href="structproximity__report.html" target="_top" xlink:title="Holds the report data for the proximity.">
<polygon fill="white" stroke="#666666" points="111,-930.51 24,-930.51 24,-911.51 111,-911.51 111,-930.51"/>
<text text-anchor="middle" x="67.5" y="-918.51" font-family="Helvetica,sans-Serif" font-size="10.00">proximity_report</text>
</a>
</g>
</g>
<!-- Node15&#45;&gt;Node2 -->
<g id="edge14" class="edge">
<title>Node15&#45;&gt;Node2</title>
<path fill="none" stroke="#9a32cd" stroke-dasharray="5,2" d="M122.46,-921.62C175.83,-921.09 252.69,-916.9 275,-898.01 327.79,-853.29 328.04,-758.37 326.63,-727.75"/>
<polygon fill="#9a32cd" stroke="#9a32cd" points="122.61,-918.12 112.63,-921.67 122.65,-925.12 122.61,-918.12"/>
<text text-anchor="middle" x="214" y="-923.01" font-family="Helvetica,sans-Serif" font-size="10.00"> proximity</text>
</g>
<!-- Node16 -->
<g id="node16" class="node">
<title>Node16</title>
<g id="a_node16"><a xlink:href="structtemperature__report.html" target="_top" xlink:title="Holds the report data for the temperature.">
<polygon fill="white" stroke="#666666" points="117,-893.51 18,-893.51 18,-874.51 117,-874.51 117,-893.51"/>
<text text-anchor="middle" x="67.5" y="-881.51" font-family="Helvetica,sans-Serif" font-size="10.00">temperature_report</text>
</a>
</g>
</g>
<!-- Node16&#45;&gt;Node2 -->
<g id="edge15" class="edge">
<title>Node16&#45;&gt;Node2</title>
<path fill="none" stroke="#9a32cd" stroke-dasharray="5,2" d="M128.74,-884.21C181.47,-883.16 253,-878.42 275,-861.01 317.78,-827.14 324.72,-754.55 325.81,-728"/>
<polygon fill="#9a32cd" stroke="#9a32cd" points="128.92,-880.7 118.97,-884.35 129.02,-887.7 128.92,-880.7"/>
<text text-anchor="middle" x="214" y="-886.01" font-family="Helvetica,sans-Serif" font-size="10.00"> temperature</text>
</g>
<!-- Node17 -->
<g id="node17" class="node">
<title>Node17</title>
<g id="a_node17"><a xlink:href="structuncalibrated__magnetic__field__report.html" target="_top" xlink:title="Holds the report data for the uncalibrated magnetic field.">
<polygon fill="white" stroke="#666666" points="124.5,-856.01 10.5,-856.01 10.5,-826.01 124.5,-826.01 124.5,-856.01"/>
<text text-anchor="start" x="18.5" y="-844.01" font-family="Helvetica,sans-Serif" font-size="10.00">uncalibrated_magnetic</text>
<text text-anchor="middle" x="67.5" y="-833.01" font-family="Helvetica,sans-Serif" font-size="10.00">_field_report</text>
</a>
</g>
</g>
<!-- Node17&#45;&gt;Node2 -->
<g id="edge16" class="edge">
<title>Node17&#45;&gt;Node2</title>
<path fill="none" stroke="#9a32cd" stroke-dasharray="5,2" d="M136.18,-837.64C187.56,-833.91 253,-826.27 275,-811.01 304.5,-790.53 318.65,-747.29 323.72,-727.84"/>
<polygon fill="#9a32cd" stroke="#9a32cd" points="136.03,-834.14 126.29,-838.32 136.51,-841.13 136.03,-834.14"/>
<text text-anchor="start" x="163.5" y="-849.01" font-family="Helvetica,sans-Serif" font-size="10.00"> uncalibrated_magnetic</text>
<text text-anchor="middle" x="214" y="-838.01" font-family="Helvetica,sans-Serif" font-size="10.00">_field</text>
</g>
<!-- Node18 -->
<g id="node18" class="node">
<title>Node18</title>
<g id="a_node18"><a xlink:href="structtap__detector__report.html" target="_top" xlink:title="Holds the report data for the tap detector.">
<polygon fill="white" stroke="#666666" points="118,-807.51 17,-807.51 17,-788.51 118,-788.51 118,-807.51"/>
<text text-anchor="middle" x="67.5" y="-795.51" font-family="Helvetica,sans-Serif" font-size="10.00">tap_detector_report</text>
</a>
</g>
</g>
<!-- Node18&#45;&gt;Node2 -->
<g id="edge17" class="edge">
<title>Node18&#45;&gt;Node2</title>
<path fill="none" stroke="#9a32cd" stroke-dasharray="5,2" d="M129.44,-797.97C172.14,-795.75 229.46,-788.25 275,-766.01 293.35,-757.04 309.58,-739.17 318.57,-727.94"/>
<polygon fill="#9a32cd" stroke="#9a32cd" points="129.45,-794.46 119.6,-798.39 129.74,-801.46 129.45,-794.46"/>
<text text-anchor="middle" x="214" y="-799.01" font-family="Helvetica,sans-Serif" font-size="10.00"> tap_detector</text>
</g>
<!-- Node19 -->
<g id="node19" class="node">
<title>Node19</title>
<g id="a_node19"><a xlink:href="structstep__counter__report.html" target="_top" xlink:title="Holds the report data for the step counter.">
<polygon fill="white" stroke="#666666" points="119.5,-770.51 15.5,-770.51 15.5,-751.51 119.5,-751.51 119.5,-770.51"/>
<text text-anchor="middle" x="67.5" y="-758.51" font-family="Helvetica,sans-Serif" font-size="10.00">step_counter_report</text>
</a>
</g>
</g>
<!-- Node19&#45;&gt;Node2 -->
<g id="edge18" class="edge">
<title>Node19&#45;&gt;Node2</title>
<path fill="none" stroke="#9a32cd" stroke-dasharray="5,2" d="M131.02,-755.02C172.19,-750.47 227.14,-743.23 275,-733.01 281.5,-731.62 288.38,-729.82 294.9,-727.96"/>
<polygon fill="#9a32cd" stroke="#9a32cd" points="130.86,-751.52 121.29,-756.07 131.61,-758.48 130.86,-751.52"/>
<text text-anchor="middle" x="214" y="-754.01" font-family="Helvetica,sans-Serif" font-size="10.00"> step_counter</text>
</g>
<!-- Node20 -->
<g id="node20" class="node">
<title>Node20</title>
<g id="a_node20"><a xlink:href="structsignificant__motion__report.html" target="_top" xlink:title="Holds the report data for the significant motion.">
<polygon fill="white" stroke="#666666" points="115,-733.01 20,-733.01 20,-703.01 115,-703.01 115,-733.01"/>
<text text-anchor="start" x="28" y="-721.01" font-family="Helvetica,sans-Serif" font-size="10.00">significant_motion</text>
<text text-anchor="middle" x="67.5" y="-710.01" font-family="Helvetica,sans-Serif" font-size="10.00">_report</text>
</a>
</g>
</g>
<!-- Node20&#45;&gt;Node2 -->
<g id="edge19" class="edge">
<title>Node20&#45;&gt;Node2</title>
<path fill="none" stroke="#9a32cd" stroke-dasharray="5,2" d="M126.65,-718.01C177.81,-718.01 250.5,-718.01 292.51,-718.01"/>
<polygon fill="#9a32cd" stroke="#9a32cd" points="126.94,-714.51 116.94,-718.01 126.94,-721.51 126.94,-714.51"/>
<text text-anchor="middle" x="214" y="-721.01" font-family="Helvetica,sans-Serif" font-size="10.00"> significant_motion</text>
</g>
<!-- Node21 -->
<g id="node21" class="node">
<title>Node21</title>
<g id="a_node21"><a xlink:href="structstability__classifier__report.html" target="_top" xlink:title="Holds the report data for the stability classifier.">
<polygon fill="white" stroke="#666666" points="115,-685.01 20,-685.01 20,-655.01 115,-655.01 115,-685.01"/>
<text text-anchor="start" x="28" y="-673.01" font-family="Helvetica,sans-Serif" font-size="10.00">stability_classifier</text>
<text text-anchor="middle" x="67.5" y="-662.01" font-family="Helvetica,sans-Serif" font-size="10.00">_report</text>
</a>
</g>
</g>
<!-- Node21&#45;&gt;Node2 -->
<g id="edge20" class="edge">
<title>Node21&#45;&gt;Node2</title>
<path fill="none" stroke="#9a32cd" stroke-dasharray="5,2" d="M126.46,-677.25C168.06,-682.94 225.31,-691.78 275,-703.01 281.3,-704.43 287.97,-706.2 294.33,-708.01"/>
<polygon fill="#9a32cd" stroke="#9a32cd" points="127.04,-673.8 116.66,-675.93 126.1,-680.74 127.04,-673.8"/>
<text text-anchor="middle" x="214" y="-706.01" font-family="Helvetica,sans-Serif" font-size="10.00"> stability_classifier</text>
</g>
<!-- Node22 -->
<g id="node22" class="node">
<title>Node22</title>
<g id="a_node22"><a xlink:href="structraw__accelerometer__report.html" target="_top" xlink:title="Holds the report data for the raw accelerometer.">
<polygon fill="white" stroke="#666666" points="132.5,-636.51 2.5,-636.51 2.5,-617.51 132.5,-617.51 132.5,-636.51"/>
<text text-anchor="middle" x="67.5" y="-624.51" font-family="Helvetica,sans-Serif" font-size="10.00">raw_accelerometer_report</text>
</a>
</g>
</g>
<!-- Node22&#45;&gt;Node2 -->
<g id="edge21" class="edge">
<title>Node22&#45;&gt;Node2</title>
<path fill="none" stroke="#9a32cd" stroke-dasharray="5,2" d="M144.01,-630.33C184.79,-634.74 234.85,-644.55 275,-666.01 294.18,-676.26 310.61,-696.21 319.33,-708.2"/>
<polygon fill="#9a32cd" stroke="#9a32cd" points="144.57,-626.87 134.28,-629.37 143.88,-633.83 144.57,-626.87"/>
<text text-anchor="middle" x="214" y="-669.01" font-family="Helvetica,sans-Serif" font-size="10.00"> raw_accelerometer</text>
</g>
<!-- Node23 -->
<g id="node23" class="node">
<title>Node23</title>
<g id="a_node23"><a xlink:href="structraw__gyroscope__report.html" target="_top" xlink:title="Holds the report data for the raw gyroscope.">
<polygon fill="white" stroke="#666666" points="124,-599.51 11,-599.51 11,-580.51 124,-580.51 124,-599.51"/>
<text text-anchor="middle" x="67.5" y="-587.51" font-family="Helvetica,sans-Serif" font-size="10.00">raw_gyroscope_report</text>
</a>
</g>
</g>
<!-- Node23&#45;&gt;Node2 -->
<g id="edge22" class="edge">
<title>Node23&#45;&gt;Node2</title>
<path fill="none" stroke="#9a32cd" stroke-dasharray="5,2" d="M135.78,-583.06C179.24,-582.05 234.94,-587.63 275,-616.01 306.99,-638.66 320,-687.29 324.26,-708.16"/>
<polygon fill="#9a32cd" stroke="#9a32cd" points="135.82,-579.56 125.96,-583.43 136.08,-586.56 135.82,-579.56"/>
<text text-anchor="middle" x="214" y="-619.01" font-family="Helvetica,sans-Serif" font-size="10.00"> raw_gyroscope</text>
</g>
<!-- Node24 -->
<g id="node24" class="node">
<title>Node24</title>
<g id="a_node24"><a xlink:href="structraw__magnetometer__report.html" target="_top" xlink:title="Holds the report data for the raw magnetometer.">
<polygon fill="white" stroke="#666666" points="133,-562.51 2,-562.51 2,-543.51 133,-543.51 133,-562.51"/>
<text text-anchor="middle" x="67.5" y="-550.51" font-family="Helvetica,sans-Serif" font-size="10.00">raw_magnetometer_report</text>
</a>
</g>
</g>
<!-- Node24&#45;&gt;Node2 -->
<g id="edge23" class="edge">
<title>Node24&#45;&gt;Node2</title>
<path fill="none" stroke="#9a32cd" stroke-dasharray="5,2" d="M125.17,-541.41C170.37,-535.55 232.87,-535.46 275,-568.01 320.49,-603.15 325.7,-680.89 326.07,-708.25"/>
<polygon fill="#9a32cd" stroke="#9a32cd" points="124.68,-537.94 115.28,-542.84 125.68,-544.87 124.68,-537.94"/>
<text text-anchor="middle" x="214" y="-571.01" font-family="Helvetica,sans-Serif" font-size="10.00"> raw_magnetometer</text>
</g>
<!-- Node25 -->
<g id="node25" class="node">
<title>Node25</title>
<g id="a_node25"><a xlink:href="structstep__detector__report.html" target="_top" xlink:title="Holds the report data for the step detector.">
<polygon fill="white" stroke="#666666" points="121,-525.51 14,-525.51 14,-506.51 121,-506.51 121,-525.51"/>
<text text-anchor="middle" x="67.5" y="-513.51" font-family="Helvetica,sans-Serif" font-size="10.00">step_detector_report</text>
</a>
</g>
</g>
<!-- Node25&#45;&gt;Node2 -->
<g id="edge24" class="edge">
<title>Node25&#45;&gt;Node2</title>
<path fill="none" stroke="#9a32cd" stroke-dasharray="5,2" d="M113.01,-503.51C158.76,-493.58 229.54,-486.66 275,-523.01 304.93,-546.93 320.97,-672.63 324.99,-708.46"/>
<polygon fill="#9a32cd" stroke="#9a32cd" points="112.37,-500.07 103.42,-505.74 113.95,-506.89 112.37,-500.07"/>
<text text-anchor="middle" x="214" y="-526.01" font-family="Helvetica,sans-Serif" font-size="10.00"> step_detector</text>
</g>
<!-- Node26 -->
<g id="node26" class="node">
<title>Node26</title>
<g id="a_node26"><a xlink:href="structshake__detector__report.html" target="_top" xlink:title="Holds the report data for the shake detector.">
<polygon fill="white" stroke="#666666" points="124,-488.51 11,-488.51 11,-469.51 124,-469.51 124,-488.51"/>
<text text-anchor="middle" x="67.5" y="-476.51" font-family="Helvetica,sans-Serif" font-size="10.00">shake_detector_report</text>
</a>
</g>
</g>
<!-- Node26&#45;&gt;Node2 -->
<g id="edge25" class="edge">
<title>Node26&#45;&gt;Node2</title>
<path fill="none" stroke="#9a32cd" stroke-dasharray="5,2" d="M135.64,-470.56C187.66,-465.59 254.26,-463.16 275,-480.01 311.41,-509.58 323.02,-666.84 325.47,-708.09"/>
<polygon fill="#9a32cd" stroke="#9a32cd" points="135.55,-467.05 125.95,-471.54 136.25,-474.02 135.55,-467.05"/>
<text text-anchor="middle" x="214" y="-483.01" font-family="Helvetica,sans-Serif" font-size="10.00"> shake_detector</text>
</g>
<!-- Node27 -->
<g id="node27" class="node">
<title>Node27</title>
<g id="a_node27"><a xlink:href="structflip__detector__report.html" target="_top" xlink:title="Holds the report data for the flip detector.">
<polygon fill="white" stroke="#666666" points="118,-451.51 17,-451.51 17,-432.51 118,-432.51 118,-451.51"/>
<text text-anchor="middle" x="67.5" y="-439.51" font-family="Helvetica,sans-Serif" font-size="10.00">flip_detector_report</text>
</a>
</g>
</g>
<!-- Node27&#45;&gt;Node2 -->
<g id="edge26" class="edge">
<title>Node27&#45;&gt;Node2</title>
<path fill="none" stroke="#9a32cd" stroke-dasharray="5,2" d="M113.18,-429.51C159.39,-419.54 230.83,-412.82 275,-451.01 314.99,-485.57 324.04,-664.07 325.68,-708.15"/>
<polygon fill="#9a32cd" stroke="#9a32cd" points="112.44,-426.09 103.49,-431.75 114.02,-432.91 112.44,-426.09"/>
<text text-anchor="middle" x="214" y="-454.01" font-family="Helvetica,sans-Serif" font-size="10.00"> flip_detector</text>
</g>
<!-- Node28 -->
<g id="node28" class="node">
<title>Node28</title>
<g id="a_node28"><a xlink:href="structpickup__detector__report.html" target="_top" xlink:title="Holds the report data for the pickup detector.">
<polygon fill="white" stroke="#666666" points="125.5,-414.51 9.5,-414.51 9.5,-395.51 125.5,-395.51 125.5,-414.51"/>
<text text-anchor="middle" x="67.5" y="-402.51" font-family="Helvetica,sans-Serif" font-size="10.00">pickup_detector_report</text>
</a>
</g>
</g>
<!-- Node28&#45;&gt;Node2 -->
<g id="edge27" class="edge">
<title>Node28&#45;&gt;Node2</title>
<path fill="none" stroke="#9a32cd" stroke-dasharray="5,2" d="M137.08,-396.18C189.05,-391.13 254.84,-388.79 275,-406.01 322.27,-446.37 325.82,-659.55 326.01,-708.14"/>
<polygon fill="#9a32cd" stroke="#9a32cd" points="136.99,-392.67 127.4,-397.17 137.7,-399.64 136.99,-392.67"/>
<text text-anchor="middle" x="214" y="-409.01" font-family="Helvetica,sans-Serif" font-size="10.00"> pickup_detector</text>
</g>
<!-- Node29 -->
<g id="node29" class="node">
<title>Node29</title>
<g id="a_node29"><a xlink:href="structstability__detector__report.html" target="_top" xlink:title="Holds the report data for the stability detector.">
<polygon fill="white" stroke="#666666" points="113,-377.01 22,-377.01 22,-347.01 113,-347.01 113,-377.01"/>
<text text-anchor="start" x="30" y="-365.01" font-family="Helvetica,sans-Serif" font-size="10.00">stability_detector</text>
<text text-anchor="middle" x="67.5" y="-354.01" font-family="Helvetica,sans-Serif" font-size="10.00">_report</text>
</a>
</g>
</g>
<!-- Node29&#45;&gt;Node2 -->
<g id="edge28" class="edge">
<title>Node29&#45;&gt;Node2</title>
<path fill="none" stroke="#9a32cd" stroke-dasharray="5,2" d="M124.51,-348.83C170.86,-341.51 235.3,-340.21 275,-377.01 325.05,-423.39 326.4,-657.64 326.1,-708.33"/>
<polygon fill="#9a32cd" stroke="#9a32cd" points="124.19,-345.33 114.93,-350.48 125.38,-352.23 124.19,-345.33"/>
<text text-anchor="middle" x="214" y="-380.01" font-family="Helvetica,sans-Serif" font-size="10.00"> stability_detector</text>
</g>
<!-- Node30 -->
<g id="node30" class="node">
<title>Node30</title>
<g id="a_node30"><a xlink:href="structpersonal__activity__classifier__report.html" target="_top" xlink:title="Holds the report data for the personal activity classifier.">
<polygon fill="white" stroke="#666666" points="135,-329.01 0,-329.01 0,-299.01 135,-299.01 135,-329.01"/>
<text text-anchor="start" x="8" y="-317.01" font-family="Helvetica,sans-Serif" font-size="10.00">personal_activity_classifier</text>
<text text-anchor="middle" x="67.5" y="-306.01" font-family="Helvetica,sans-Serif" font-size="10.00">_report</text>
</a>
</g>
</g>
<!-- Node30&#45;&gt;Node2 -->
<g id="edge29" class="edge">
<title>Node30&#45;&gt;Node2</title>
<path fill="none" stroke="#9a32cd" stroke-dasharray="5,2" d="M146.6,-297.83C189.87,-293.67 241.52,-297.41 275,-329.01 331.84,-382.65 327.76,-652.75 326.3,-708.09"/>
<polygon fill="#9a32cd" stroke="#9a32cd" points="146.26,-294.34 136.72,-298.95 147.05,-301.3 146.26,-294.34"/>
<text text-anchor="middle" x="214" y="-332.01" font-family="Helvetica,sans-Serif" font-size="10.00"> personal_activity_classifier</text>
</g>
<!-- Node31 -->
<g id="node31" class="node">
<title>Node31</title>
<g id="a_node31"><a xlink:href="structsleep__detector__report.html" target="_top" xlink:title="Holds the report data for the sleep detector.">
<polygon fill="white" stroke="#666666" points="123,-280.51 12,-280.51 12,-261.51 123,-261.51 123,-280.51"/>
<text text-anchor="middle" x="67.5" y="-268.51" font-family="Helvetica,sans-Serif" font-size="10.00">sleep_detector_report</text>
</a>
</g>
</g>
<!-- Node31&#45;&gt;Node2 -->
<g id="edge30" class="edge">
<title>Node31&#45;&gt;Node2</title>
<path fill="none" stroke="#9a32cd" stroke-dasharray="5,2" d="M112.3,-258.47C158.95,-248.06 231.87,-240.71 275,-281.01 307.44,-311.32 323.02,-647.02 325.61,-708.4"/>
<polygon fill="#9a32cd" stroke="#9a32cd" points="111.72,-255.01 102.8,-260.73 113.34,-261.82 111.72,-255.01"/>
<text text-anchor="middle" x="214" y="-284.01" font-family="Helvetica,sans-Serif" font-size="10.00"> sleep_detector</text>
</g>
<!-- Node32 -->
<g id="node32" class="node">
<title>Node32</title>
<g id="a_node32"><a xlink:href="structtilt__detector__report.html" target="_top" xlink:title="Holds the report data for the tilt detector.">
<polygon fill="white" stroke="#666666" points="116.5,-243.51 18.5,-243.51 18.5,-224.51 116.5,-224.51 116.5,-243.51"/>
<text text-anchor="middle" x="67.5" y="-231.51" font-family="Helvetica,sans-Serif" font-size="10.00">tilt_detector_report</text>
</a>
</g>
</g>
<!-- Node32&#45;&gt;Node2 -->
<g id="edge31" class="edge">
<title>Node32&#45;&gt;Node2</title>
<path fill="none" stroke="#9a32cd" stroke-dasharray="5,2" d="M127.92,-225.87C181.21,-220.03 254.13,-216.13 275,-235.01 311.51,-268.02 323.85,-642.64 325.73,-708.23"/>
<polygon fill="#9a32cd" stroke="#9a32cd" points="127.57,-222.38 118.03,-227 128.37,-229.34 127.57,-222.38"/>
<text text-anchor="middle" x="214" y="-238.01" font-family="Helvetica,sans-Serif" font-size="10.00"> tilt_detector</text>
</g>
<!-- Node33 -->
<g id="node33" class="node">
<title>Node33</title>
<g id="a_node33"><a xlink:href="structpocket__detector__report.html" target="_top" xlink:title="Holds the report data for the pocket detector.">
<polygon fill="white" stroke="#666666" points="125.5,-206.51 9.5,-206.51 9.5,-187.51 125.5,-187.51 125.5,-206.51"/>
<text text-anchor="middle" x="67.5" y="-194.51" font-family="Helvetica,sans-Serif" font-size="10.00">pocket_detector_report</text>
</a>
</g>
</g>
<!-- Node33&#45;&gt;Node2 -->
<g id="edge32" class="edge">
<title>Node33&#45;&gt;Node2</title>
<path fill="none" stroke="#9a32cd" stroke-dasharray="5,2" d="M111.22,-184.35C157.9,-173.42 231.77,-165.12 275,-206.01 312.97,-241.91 324.14,-639.96 325.78,-708.11"/>
<polygon fill="#9a32cd" stroke="#9a32cd" points="110.59,-180.9 101.73,-186.71 112.28,-187.69 110.59,-180.9"/>
<text text-anchor="middle" x="214" y="-209.01" font-family="Helvetica,sans-Serif" font-size="10.00"> pocket_detector</text>
</g>
<!-- Node34 -->
<g id="node34" class="node">
<title>Node34</title>
<g id="a_node34"><a xlink:href="structcircle__detector__report.html" target="_top" xlink:title="Holds the report data for the circle detector.">
<polygon fill="white" stroke="#666666" points="123,-169.51 12,-169.51 12,-150.51 123,-150.51 123,-169.51"/>
<text text-anchor="middle" x="67.5" y="-157.51" font-family="Helvetica,sans-Serif" font-size="10.00">circle_detector_report</text>
</a>
</g>
</g>
<!-- Node34&#45;&gt;Node2 -->
<g id="edge33" class="edge">
<title>Node34&#45;&gt;Node2</title>
<path fill="none" stroke="#9a32cd" stroke-dasharray="5,2" d="M134.7,-150.74C187.24,-145.01 255.08,-141.82 275,-160.01 317.21,-198.54 324.9,-636.54 325.88,-708.14"/>
<polygon fill="#9a32cd" stroke="#9a32cd" points="134.44,-147.24 124.9,-151.86 135.24,-154.2 134.44,-147.24"/>
<text text-anchor="middle" x="214" y="-163.01" font-family="Helvetica,sans-Serif" font-size="10.00"> circle_detector</text>
</g>
<!-- Node35 -->
<g id="node35" class="node">
<title>Node35</title>
<g id="a_node35"><a xlink:href="structheart__rate__monitor__report.html" target="_top" xlink:title="Holds the report data for the heart rate monitor.">
<polygon fill="white" stroke="#666666" points="116.5,-132.01 18.5,-132.01 18.5,-102.01 116.5,-102.01 116.5,-132.01"/>
<text text-anchor="start" x="26.5" y="-120.01" font-family="Helvetica,sans-Serif" font-size="10.00">heart_rate_monitor</text>
<text text-anchor="middle" x="67.5" y="-109.01" font-family="Helvetica,sans-Serif" font-size="10.00">_report</text>
</a>
</g>
</g>
<!-- Node35&#45;&gt;Node2 -->
<g id="edge34" class="edge">
<title>Node35&#45;&gt;Node2</title>
<path fill="none" stroke="#9a32cd" stroke-dasharray="5,2" d="M128.09,-102.39C174.51,-94.89 237.21,-93.92 275,-131.01 317.99,-173.19 325.04,-634.51 325.9,-708.13"/>
<polygon fill="#9a32cd" stroke="#9a32cd" points="127.69,-98.91 118.46,-104.1 128.91,-105.8 127.69,-98.91"/>
<text text-anchor="middle" x="214" y="-134.01" font-family="Helvetica,sans-Serif" font-size="10.00"> heart_rate_monitor</text>
</g>
<!-- Node36 -->
<g id="node36" class="node">
<title>Node36</title>
<g id="a_node36"><a xlink:href="structarvr__stabilised__rotation__vector__report.html" target="_top" xlink:title="Holds the report data for the ARVR stabilised rotation vector.">
<polygon fill="white" stroke="#666666" points="126.5,-84.01 8.5,-84.01 8.5,-54.01 126.5,-54.01 126.5,-84.01"/>
<text text-anchor="start" x="16.5" y="-72.01" font-family="Helvetica,sans-Serif" font-size="10.00">arvr_stabilised_rotation</text>
<text text-anchor="middle" x="67.5" y="-61.01" font-family="Helvetica,sans-Serif" font-size="10.00">_vector_report</text>
</a>
</g>
</g>
<!-- Node36&#45;&gt;Node2 -->
<g id="edge35" class="edge">
<title>Node36&#45;&gt;Node2</title>
<path fill="none" stroke="#9a32cd" stroke-dasharray="5,2" d="M138.02,-60.41C190.16,-55.68 255.72,-53.93 275,-72.01 323.52,-117.51 325.92,-630.27 326,-708.12"/>
<polygon fill="#9a32cd" stroke="#9a32cd" points="137.9,-56.91 128.28,-61.35 138.57,-63.87 137.9,-56.91"/>
<text text-anchor="start" x="161.5" y="-86.01" font-family="Helvetica,sans-Serif" font-size="10.00"> arvr_stabilised_rotation</text>
<text text-anchor="middle" x="214" y="-75.01" font-family="Helvetica,sans-Serif" font-size="10.00">_vector</text>
</g>
<!-- Node37 -->
<g id="node37" class="node">
<title>Node37</title>
<g id="a_node37"><a xlink:href="structarvr__stabilised__game__rotation__vector__report.html" target="_top" xlink:title="Holds the report data for the ARVR stabilised game rotation vector.">
<polygon fill="white" stroke="#666666" points="125.5,-36.01 9.5,-36.01 9.5,-6.01 125.5,-6.01 125.5,-36.01"/>
<text text-anchor="start" x="17.5" y="-24.01" font-family="Helvetica,sans-Serif" font-size="10.00">arvr_stabilised_game</text>
<text text-anchor="middle" x="67.5" y="-13.01" font-family="Helvetica,sans-Serif" font-size="10.00">_rotation_vector_report</text>
</a>
</g>
</g>
<!-- Node37&#45;&gt;Node2 -->
<g id="edge36" class="edge">
<title>Node37&#45;&gt;Node2</title>
<path fill="none" stroke="#9a32cd" stroke-dasharray="5,2" d="M136.84,-3.81C182.13,3.15 239.53,2.73 275,-32.01 325.56,-81.51 326.22,-627.31 326.03,-708.05"/>
<polygon fill="#9a32cd" stroke="#9a32cd" points="136.37,-0.34 127.09,-5.47 137.54,-7.24 136.37,-0.34"/>
<text text-anchor="start" x="165.5" y="-46.01" font-family="Helvetica,sans-Serif" font-size="10.00"> arvr_stabilised_game</text>
<text text-anchor="middle" x="214" y="-35.01" font-family="Helvetica,sans-Serif" font-size="10.00">_rotation_vector</text>
</g>
</g>
</svg>
