<?xml version="1.0" encoding="UTF-8" standalone="no"?>
<!DOCTYPE svg PUBLIC "-//W3C//DTD SVG 1.1//EN"
 "http://www.w3.org/Graphics/SVG/1.1/DTD/svg11.dtd">
<!-- Generated by graphviz version 7.1.0 (0)
 -->
<!-- Title: sensor Pages: 1 -->
<svg width="506pt" height="1576pt"
 viewBox="0.00 0.00 506.00 1575.67" xmlns="http://www.w3.org/2000/svg" xmlns:xlink="http://www.w3.org/1999/xlink">
<g id="graph0" class="graph" transform="scale(1 1) rotate(0) translate(4 1571.67)">
<title>sensor</title>
<!-- Node1 -->
<g id="node1" class="node">
<title>Node1</title>
<g id="a_node1"><a xlink:title="Stores an instance of a single sensor.">
<polygon fill="#999999" stroke="#666666" points="498,-789.17 452,-789.17 452,-770.17 498,-770.17 498,-789.17"/>
<text text-anchor="middle" x="475" y="-777.17" font-family="Helvetica,sans-Serif" font-size="10.00">sensor</text>
</a>
</g>
</g>
<!-- Node2 -->
<g id="node2" class="node">
<title>Node2</title>
<g id="a_node2"><a xlink:href="unioninput__report.html" target="_top" xlink:title=" ">
<polygon fill="white" stroke="#bfbfbf" points="361,-789.17 293,-789.17 293,-770.17 361,-770.17 361,-789.17"/>
<text text-anchor="middle" x="327" y="-777.17" font-family="Helvetica,sans-Serif" font-size="10.00">input_report</text>
</a>
</g>
</g>
<!-- Node2&#45;&gt;Node1 -->
<g id="edge1" class="edge">
<title>Node2&#45;&gt;Node1</title>
<path fill="none" stroke="#9a32cd" stroke-dasharray="5,2" d="M372.66,-779.67C398.77,-779.67 430.61,-779.67 451.55,-779.67"/>
<polygon fill="#9a32cd" stroke="#9a32cd" points="373.01,-776.17 363.01,-779.67 373.01,-783.17 373.01,-776.17"/>
<text text-anchor="middle" x="406.5" y="-782.67" font-family="Helvetica,sans-Serif" font-size="10.00"> input_report</text>
</g>
<!-- Node3 -->
<g id="node3" class="node">
<title>Node3</title>
<g id="a_node3"><a xlink:href="structaccelerometer__report.html" target="_top" xlink:title="Holds the report data for the accelerometer.">
<polygon fill="white" stroke="#666666" points="122,-1552.17 13,-1552.17 13,-1533.17 122,-1533.17 122,-1552.17"/>
<text text-anchor="middle" x="67.5" y="-1540.17" font-family="Helvetica,sans-Serif" font-size="10.00">accelerometer_report</text>
</a>
</g>
</g>
<!-- Node3&#45;&gt;Node2 -->
<g id="edge2" class="edge">
<title>Node3&#45;&gt;Node2</title>
<path fill="none" stroke="#9a32cd" stroke-dasharray="5,2" d="M124.26,-1554.27C171.34,-1560.49 236.99,-1560.13 275,-1520.67 328.17,-1465.47 326.57,-873.68 326.07,-789.59"/>
<polygon fill="#9a32cd" stroke="#9a32cd" points="124.92,-1550.83 114.51,-1552.84 123.9,-1557.76 124.92,-1550.83"/>
<text text-anchor="middle" x="214" y="-1559.67" font-family="Helvetica,sans-Serif" font-size="10.00"> accelerometer</text>
</g>
<!-- Node4 -->
<g id="node4" class="node">
<title>Node4</title>
<g id="a_node4"><a xlink:href="structgyroscope__report.html" target="_top" xlink:title="Holds the report data for the gyroscope.">
<polygon fill="white" stroke="#666666" points="113.5,-1515.17 21.5,-1515.17 21.5,-1496.17 113.5,-1496.17 113.5,-1515.17"/>
<text text-anchor="middle" x="67.5" y="-1503.17" font-family="Helvetica,sans-Serif" font-size="10.00">gyroscope_report</text>
</a>
</g>
</g>
<!-- Node4&#45;&gt;Node2 -->
<g id="edge3" class="edge">
<title>Node4&#45;&gt;Node2</title>
<path fill="none" stroke="#9a32cd" stroke-dasharray="5,2" d="M125.17,-1506.87C179.13,-1506.7 255,-1502.55 275,-1481.67 325.13,-1429.33 326.15,-871.07 326.03,-789.57"/>
<polygon fill="#9a32cd" stroke="#9a32cd" points="125.19,-1503.37 115.19,-1506.86 125.18,-1510.37 125.19,-1503.37"/>
<text text-anchor="middle" x="214" y="-1508.67" font-family="Helvetica,sans-Serif" font-size="10.00"> gyroscope</text>
</g>
<!-- Node5 -->
<g id="node5" class="node">
<title>Node5</title>
<g id="a_node5"><a xlink:href="structmagnetic__field__report.html" target="_top" xlink:title="Holds the report data for the magnetic field.">
<polygon fill="white" stroke="#666666" points="122.5,-1478.17 12.5,-1478.17 12.5,-1459.17 122.5,-1459.17 122.5,-1478.17"/>
<text text-anchor="middle" x="67.5" y="-1466.17" font-family="Helvetica,sans-Serif" font-size="10.00">magnetic_field_report</text>
</a>
</g>
</g>
<!-- Node5&#45;&gt;Node2 -->
<g id="edge4" class="edge">
<title>Node5&#45;&gt;Node2</title>
<path fill="none" stroke="#9a32cd" stroke-dasharray="5,2" d="M134.36,-1468.11C187.45,-1466.13 256.24,-1459.64 275,-1439.67 321.62,-1390.04 325.63,-866.64 325.97,-789.22"/>
<polygon fill="#9a32cd" stroke="#9a32cd" points="134.35,-1464.6 124.47,-1468.42 134.58,-1471.6 134.35,-1464.6"/>
<text text-anchor="middle" x="214" y="-1469.67" font-family="Helvetica,sans-Serif" font-size="10.00"> magnetic_field</text>
</g>
<!-- Node6 -->
<g id="node6" class="node">
<title>Node6</title>
<g id="a_node6"><a xlink:href="structlinear__acceleration__report.html" target="_top" xlink:title="Holds the report data for the linear acceleration.">
<polygon fill="white" stroke="#666666" points="116.5,-1440.67 18.5,-1440.67 18.5,-1410.67 116.5,-1410.67 116.5,-1440.67"/>
<text text-anchor="start" x="26.5" y="-1428.67" font-family="Helvetica,sans-Serif" font-size="10.00">linear_acceleration</text>
<text text-anchor="middle" x="67.5" y="-1417.67" font-family="Helvetica,sans-Serif" font-size="10.00">_report</text>
</a>
</g>
</g>
<!-- Node6&#45;&gt;Node2 -->
<g id="edge5" class="edge">
<title>Node6&#45;&gt;Node2</title>
<path fill="none" stroke="#9a32cd" stroke-dasharray="5,2" d="M128.02,-1425.91C181.77,-1424.75 255.36,-1419.27 275,-1398.67 318.9,-1352.62 325.2,-865.42 325.92,-789.57"/>
<polygon fill="#9a32cd" stroke="#9a32cd" points="127.99,-1422.41 118.05,-1426.07 128.1,-1429.41 127.99,-1422.41"/>
<text text-anchor="middle" x="214" y="-1427.67" font-family="Helvetica,sans-Serif" font-size="10.00"> linear_acceleration</text>
</g>
<!-- Node7 -->
<g id="node7" class="node">
<title>Node7</title>
<g id="a_node7"><a xlink:href="structrotation__vector__report.html" target="_top" xlink:title="Holds the report data for the rotation vector.">
<polygon fill="white" stroke="#666666" points="123,-1392.17 12,-1392.17 12,-1373.17 123,-1373.17 123,-1392.17"/>
<text text-anchor="middle" x="67.5" y="-1380.17" font-family="Helvetica,sans-Serif" font-size="10.00">rotation_vector_report</text>
</a>
</g>
</g>
<!-- Node7&#45;&gt;Node2 -->
<g id="edge6" class="edge">
<title>Node7&#45;&gt;Node2</title>
<path fill="none" stroke="#9a32cd" stroke-dasharray="5,2" d="M134.69,-1384.07C187.61,-1383.65 255.98,-1379.14 275,-1359.67 316.59,-1317.1 324.82,-862.02 325.87,-789.41"/>
<polygon fill="#9a32cd" stroke="#9a32cd" points="134.82,-1380.57 124.83,-1384.09 134.84,-1387.57 134.82,-1380.57"/>
<text text-anchor="middle" x="214" y="-1386.67" font-family="Helvetica,sans-Serif" font-size="10.00"> rotation_vector</text>
</g>
<!-- Node8 -->
<g id="node8" class="node">
<title>Node8</title>
<g id="a_node8"><a xlink:href="structgravity__report.html" target="_top" xlink:title="Holds the report data for the gravity.">
<polygon fill="white" stroke="#666666" points="106,-1355.17 29,-1355.17 29,-1336.17 106,-1336.17 106,-1355.17"/>
<text text-anchor="middle" x="67.5" y="-1343.17" font-family="Helvetica,sans-Serif" font-size="10.00">gravity_report</text>
</a>
</g>
</g>
<!-- Node8&#45;&gt;Node2 -->
<g id="edge7" class="edge">
<title>Node8&#45;&gt;Node2</title>
<path fill="none" stroke="#9a32cd" stroke-dasharray="5,2" d="M117.75,-1346.04C171.87,-1345.31 253.95,-1340.49 275,-1318.67 313.26,-1279.02 324.22,-859.74 325.79,-789.6"/>
<polygon fill="#9a32cd" stroke="#9a32cd" points="117.8,-1342.54 107.83,-1346.12 117.86,-1349.53 117.8,-1342.54"/>
<text text-anchor="middle" x="214" y="-1347.67" font-family="Helvetica,sans-Serif" font-size="10.00"> gravity</text>
</g>
<!-- Node9 -->
<g id="node9" class="node">
<title>Node9</title>
<g id="a_node9"><a xlink:href="structuncalibrated__gyroscope__report.html" target="_top" xlink:title="Holds the report data for the uncalibrated gyroscope.">
<polygon fill="white" stroke="#666666" points="127,-1317.67 8,-1317.67 8,-1287.67 127,-1287.67 127,-1317.67"/>
<text text-anchor="start" x="16" y="-1305.67" font-family="Helvetica,sans-Serif" font-size="10.00">uncalibrated_gyroscope</text>
<text text-anchor="middle" x="67.5" y="-1294.67" font-family="Helvetica,sans-Serif" font-size="10.00">_report</text>
</a>
</g>
</g>
<!-- Node9&#45;&gt;Node2 -->
<g id="edge8" class="edge">
<title>Node9&#45;&gt;Node2</title>
<path fill="none" stroke="#9a32cd" stroke-dasharray="5,2" d="M138.55,-1304.32C190.82,-1303.93 256.28,-1299.48 275,-1280.67 311.08,-1244.42 323.81,-855.85 325.73,-789.33"/>
<polygon fill="#9a32cd" stroke="#9a32cd" points="138.79,-1300.82 128.8,-1304.34 138.8,-1307.82 138.79,-1300.82"/>
<text text-anchor="middle" x="214" y="-1306.67" font-family="Helvetica,sans-Serif" font-size="10.00"> uncalibrated_gyroscope</text>
</g>
<!-- Node10 -->
<g id="node10" class="node">
<title>Node10</title>
<g id="a_node10"><a xlink:href="structgame__rotation__vector__report.html" target="_top" xlink:title="Holds the report data for the game rotation vector.">
<polygon fill="white" stroke="#666666" points="122.5,-1269.67 12.5,-1269.67 12.5,-1239.67 122.5,-1239.67 122.5,-1269.67"/>
<text text-anchor="start" x="20.5" y="-1257.67" font-family="Helvetica,sans-Serif" font-size="10.00">game_rotation_vector</text>
<text text-anchor="middle" x="67.5" y="-1246.67" font-family="Helvetica,sans-Serif" font-size="10.00">_report</text>
</a>
</g>
</g>
<!-- Node10&#45;&gt;Node2 -->
<g id="edge9" class="edge">
<title>Node10&#45;&gt;Node2</title>
<path fill="none" stroke="#9a32cd" stroke-dasharray="5,2" d="M134.24,-1266.67C179.98,-1270.94 239,-1267.62 275,-1231.67 307.48,-1199.24 323.03,-852.89 325.61,-789.58"/>
<polygon fill="#9a32cd" stroke="#9a32cd" points="134.74,-1263.2 124.42,-1265.6 133.99,-1270.16 134.74,-1263.2"/>
<text text-anchor="middle" x="214" y="-1270.67" font-family="Helvetica,sans-Serif" font-size="10.00"> game_rotation_vector</text>
</g>
<!-- Node11 -->
<g id="node11" class="node">
<title>Node11</title>
<g id="a_node11"><a xlink:href="structgeomagnetic__rotation__vector__report.html" target="_top" xlink:title="Holds the report data for the geomagnetic rotation vector.">
<polygon fill="white" stroke="#666666" points="122.5,-1221.67 12.5,-1221.67 12.5,-1191.67 122.5,-1191.67 122.5,-1221.67"/>
<text text-anchor="start" x="20.5" y="-1209.67" font-family="Helvetica,sans-Serif" font-size="10.00">geomagnetic_rotation</text>
<text text-anchor="middle" x="67.5" y="-1198.67" font-family="Helvetica,sans-Serif" font-size="10.00">_vector_report</text>
</a>
</g>
</g>
<!-- Node11&#45;&gt;Node2 -->
<g id="edge10" class="edge">
<title>Node11&#45;&gt;Node2</title>
<path fill="none" stroke="#9a32cd" stroke-dasharray="5,2" d="M134.08,-1206.54C186.99,-1204.95 255.68,-1199.05 275,-1179.67 331.84,-1122.65 327.71,-845.21 326.29,-789.45"/>
<polygon fill="#9a32cd" stroke="#9a32cd" points="134.14,-1203.04 124.23,-1206.78 134.31,-1210.03 134.14,-1203.04"/>
<text text-anchor="start" x="165.5" y="-1219.67" font-family="Helvetica,sans-Serif" font-size="10.00"> geomagnetic_rotation</text>
<text text-anchor="middle" x="214" y="-1208.67" font-family="Helvetica,sans-Serif" font-size="10.00">_vector</text>
</g>
<!-- Node12 -->
<g id="node12" class="node">
<title>Node12</title>
<g id="a_node12"><a xlink:href="structpressure__report.html" target="_top" xlink:title="Holds the report data for the pressure.">
<polygon fill="white" stroke="#666666" points="110,-1173.17 25,-1173.17 25,-1154.17 110,-1154.17 110,-1173.17"/>
<text text-anchor="middle" x="67.5" y="-1161.17" font-family="Helvetica,sans-Serif" font-size="10.00">pressure_report</text>
</a>
</g>
</g>
<!-- Node12&#45;&gt;Node2 -->
<g id="edge11" class="edge">
<title>Node12&#45;&gt;Node2</title>
<path fill="none" stroke="#9a32cd" stroke-dasharray="5,2" d="M121.6,-1165.15C175.45,-1165.45 253.81,-1162.16 275,-1141.67 327.13,-1091.27 326.83,-842.44 326.17,-789.56"/>
<polygon fill="#9a32cd" stroke="#9a32cd" points="121.72,-1161.65 111.68,-1165.05 121.64,-1168.65 121.72,-1161.65"/>
<text text-anchor="middle" x="214" y="-1167.67" font-family="Helvetica,sans-Serif" font-size="10.00"> pressure</text>
</g>
<!-- Node13 -->
<g id="node13" class="node">
<title>Node13</title>
<g id="a_node13"><a xlink:href="structambient__light__report.html" target="_top" xlink:title="Holds the report data for the ambient light.">
<polygon fill="white" stroke="#666666" points="120,-1136.17 15,-1136.17 15,-1117.17 120,-1117.17 120,-1136.17"/>
<text text-anchor="middle" x="67.5" y="-1124.17" font-family="Helvetica,sans-Serif" font-size="10.00">ambient_light_report</text>
</a>
</g>
</g>
<!-- Node13&#45;&gt;Node2 -->
<g id="edge12" class="edge">
<title>Node13&#45;&gt;Node2</title>
<path fill="none" stroke="#9a32cd" stroke-dasharray="5,2" d="M131.44,-1128.09C184.5,-1127.87 254.93,-1123.77 275,-1104.67 321.96,-1059.98 325.74,-839.01 325.99,-789.52"/>
<polygon fill="#9a32cd" stroke="#9a32cd" points="131.58,-1124.59 121.57,-1128.08 131.57,-1131.59 131.58,-1124.59"/>
<text text-anchor="middle" x="214" y="-1130.67" font-family="Helvetica,sans-Serif" font-size="10.00"> ambient_light</text>
</g>
<!-- Node14 -->
<g id="node14" class="node">
<title>Node14</title>
<g id="a_node14"><a xlink:href="structhumidity__report.html" target="_top" xlink:title="Holds the report data for the humidity.">
<polygon fill="white" stroke="#666666" points="109.5,-1099.17 25.5,-1099.17 25.5,-1080.17 109.5,-1080.17 109.5,-1099.17"/>
<text text-anchor="middle" x="67.5" y="-1087.17" font-family="Helvetica,sans-Serif" font-size="10.00">humidity_report</text>
</a>
</g>
</g>
<!-- Node14&#45;&gt;Node2 -->
<g id="edge13" class="edge">
<title>Node14&#45;&gt;Node2</title>
<path fill="none" stroke="#9a32cd" stroke-dasharray="5,2" d="M121,-1091C174.75,-1091.2 253.39,-1087.84 275,-1067.67 316.77,-1028.7 324.51,-835.76 325.77,-789.6"/>
<polygon fill="#9a32cd" stroke="#9a32cd" points="121.14,-1087.5 111.11,-1090.92 121.08,-1094.5 121.14,-1087.5"/>
<text text-anchor="middle" x="214" y="-1092.67" font-family="Helvetica,sans-Serif" font-size="10.00"> humidity</text>
</g>
<!-- Node15 -->
<g id="node15" class="node">
<title>Node15</title>
<g id="a_node15"><a xlink:href="structproximity__report.html" target="_top" xlink:title="Holds the report data for the proximity.">
<polygon fill="white" stroke="#666666" points="111,-1062.17 24,-1062.17 24,-1043.17 111,-1043.17 111,-1062.17"/>
<text text-anchor="middle" x="67.5" y="-1050.17" font-family="Helvetica,sans-Serif" font-size="10.00">proximity_report</text>
</a>
</g>
</g>
<!-- Node15&#45;&gt;Node2 -->
<g id="edge14" class="edge">
<title>Node15&#45;&gt;Node2</title>
<path fill="none" stroke="#9a32cd" stroke-dasharray="5,2" d="M122.74,-1053.9C176.34,-1053.92 253.39,-1050.34 275,-1030.67 311.67,-997.3 323.15,-831.61 325.5,-789.44"/>
<polygon fill="#9a32cd" stroke="#9a32cd" points="122.88,-1050.4 112.86,-1053.85 122.84,-1057.4 122.88,-1050.4"/>
<text text-anchor="middle" x="214" y="-1055.67" font-family="Helvetica,sans-Serif" font-size="10.00"> proximity</text>
</g>
<!-- Node16 -->
<g id="node16" class="node">
<title>Node16</title>
<g id="a_node16"><a xlink:href="structtemperature__report.html" target="_top" xlink:title="Holds the report data for the temperature.">
<polygon fill="white" stroke="#666666" points="117,-1025.17 18,-1025.17 18,-1006.17 117,-1006.17 117,-1025.17"/>
<text text-anchor="middle" x="67.5" y="-1013.17" font-family="Helvetica,sans-Serif" font-size="10.00">temperature_report</text>
</a>
</g>
</g>
<!-- Node16&#45;&gt;Node2 -->
<g id="edge15" class="edge">
<title>Node16&#45;&gt;Node2</title>
<path fill="none" stroke="#9a32cd" stroke-dasharray="5,2" d="M128.7,-1016.73C181.78,-1016.35 253.88,-1012.25 275,-993.67 306.54,-965.92 321.54,-827.82 325.13,-789.53"/>
<polygon fill="#9a32cd" stroke="#9a32cd" points="128.85,-1013.22 118.86,-1016.75 128.87,-1020.22 128.85,-1013.22"/>
<text text-anchor="middle" x="214" y="-1018.67" font-family="Helvetica,sans-Serif" font-size="10.00"> temperature</text>
</g>
<!-- Node17 -->
<g id="node17" class="node">
<title>Node17</title>
<g id="a_node17"><a xlink:href="structuncalibrated__magnetic__field__report.html" target="_top" xlink:title="Holds the report data for the uncalibrated magnetic field.">
<polygon fill="white" stroke="#666666" points="124.5,-987.67 10.5,-987.67 10.5,-957.67 124.5,-957.67 124.5,-987.67"/>
<text text-anchor="start" x="18.5" y="-975.67" font-family="Helvetica,sans-Serif" font-size="10.00">uncalibrated_magnetic</text>
<text text-anchor="middle" x="67.5" y="-964.67" font-family="Helvetica,sans-Serif" font-size="10.00">_field_report</text>
</a>
</g>
</g>
<!-- Node17&#45;&gt;Node2 -->
<g id="edge16" class="edge">
<title>Node17&#45;&gt;Node2</title>
<path fill="none" stroke="#9a32cd" stroke-dasharray="5,2" d="M135.98,-970.49C188.03,-967.45 254.48,-960.16 275,-942.67 322.39,-902.28 326.35,-818.47 326.24,-789.65"/>
<polygon fill="#9a32cd" stroke="#9a32cd" points="136.09,-966.98 126.29,-971.02 136.47,-973.97 136.09,-966.98"/>
<text text-anchor="start" x="163.5" y="-982.67" font-family="Helvetica,sans-Serif" font-size="10.00"> uncalibrated_magnetic</text>
<text text-anchor="middle" x="214" y="-971.67" font-family="Helvetica,sans-Serif" font-size="10.00">_field</text>
</g>
<!-- Node18 -->
<g id="node18" class="node">
<title>Node18</title>
<g id="a_node18"><a xlink:href="structtap__detector__report.html" target="_top" xlink:title="Holds the report data for the tap detector.">
<polygon fill="white" stroke="#666666" points="118,-939.17 17,-939.17 17,-920.17 118,-920.17 118,-939.17"/>
<text text-anchor="middle" x="67.5" y="-927.17" font-family="Helvetica,sans-Serif" font-size="10.00">tap_detector_report</text>
</a>
</g>
</g>
<!-- Node18&#45;&gt;Node2 -->
<g id="edge17" class="edge">
<title>Node18&#45;&gt;Node2</title>
<path fill="none" stroke="#9a32cd" stroke-dasharray="5,2" d="M129.53,-929.32C182.06,-927.82 252.8,-922.58 275,-905.67 313.3,-876.5 322.94,-813.81 325.28,-789.54"/>
<polygon fill="#9a32cd" stroke="#9a32cd" points="129.71,-925.81 119.8,-929.55 129.88,-932.81 129.71,-925.81"/>
<text text-anchor="middle" x="214" y="-930.67" font-family="Helvetica,sans-Serif" font-size="10.00"> tap_detector</text>
</g>
<!-- Node19 -->
<g id="node19" class="node">
<title>Node19</title>
<g id="a_node19"><a xlink:href="structstep__counter__report.html" target="_top" xlink:title="Holds the report data for the step counter.">
<polygon fill="white" stroke="#666666" points="119.5,-902.17 15.5,-902.17 15.5,-883.17 119.5,-883.17 119.5,-902.17"/>
<text text-anchor="middle" x="67.5" y="-890.17" font-family="Helvetica,sans-Serif" font-size="10.00">step_counter_report</text>
</a>
</g>
</g>
<!-- Node19&#45;&gt;Node2 -->
<g id="edge18" class="edge">
<title>Node19&#45;&gt;Node2</title>
<path fill="none" stroke="#9a32cd" stroke-dasharray="5,2" d="M130.91,-893.07C174.45,-890.58 232.19,-881.53 275,-853.67 299.45,-837.75 315.39,-805.6 322.21,-789.43"/>
<polygon fill="#9a32cd" stroke="#9a32cd" points="130.94,-889.56 121.11,-893.52 131.26,-896.56 130.94,-889.56"/>
<text text-anchor="middle" x="214" y="-893.67" font-family="Helvetica,sans-Serif" font-size="10.00"> step_counter</text>
</g>
<!-- Node20 -->
<g id="node20" class="node">
<title>Node20</title>
<g id="a_node20"><a xlink:href="structsignificant__motion__report.html" target="_top" xlink:title="Holds the report data for the significant motion.">
<polygon fill="white" stroke="#666666" points="115,-864.67 20,-864.67 20,-834.67 115,-834.67 115,-864.67"/>
<text text-anchor="start" x="28" y="-852.67" font-family="Helvetica,sans-Serif" font-size="10.00">significant_motion</text>
<text text-anchor="middle" x="67.5" y="-841.67" font-family="Helvetica,sans-Serif" font-size="10.00">_report</text>
</a>
</g>
</g>
<!-- Node20&#45;&gt;Node2 -->
<g id="edge19" class="edge">
<title>Node20&#45;&gt;Node2</title>
<path fill="none" stroke="#9a32cd" stroke-dasharray="5,2" d="M126.37,-843.24C168.54,-837.35 226.52,-826.72 275,-808.67 287.98,-803.84 301.56,-795.95 311.44,-789.63"/>
<polygon fill="#9a32cd" stroke="#9a32cd" points="126.13,-839.74 116.69,-844.54 127.06,-846.67 126.13,-839.74"/>
<text text-anchor="middle" x="214" y="-841.67" font-family="Helvetica,sans-Serif" font-size="10.00"> significant_motion</text>
</g>
<!-- Node21 -->
<g id="node21" class="node">
<title>Node21</title>
<g id="a_node21"><a xlink:href="structstability__classifier__report.html" target="_top" xlink:title="Holds the report data for the stability classifier.">
<polygon fill="white" stroke="#666666" points="115,-816.67 20,-816.67 20,-786.67 115,-786.67 115,-816.67"/>
<text text-anchor="start" x="28" y="-804.67" font-family="Helvetica,sans-Serif" font-size="10.00">stability_classifier</text>
<text text-anchor="middle" x="67.5" y="-793.67" font-family="Helvetica,sans-Serif" font-size="10.00">_report</text>
</a>
</g>
</g>
<!-- Node21&#45;&gt;Node2 -->
<g id="edge20" class="edge">
<title>Node21&#45;&gt;Node2</title>
<path fill="none" stroke="#9a32cd" stroke-dasharray="5,2" d="M126.65,-796.7C177.81,-792.33 250.5,-786.12 292.51,-782.53"/>
<polygon fill="#9a32cd" stroke="#9a32cd" points="126.6,-793.19 116.94,-797.53 127.2,-800.17 126.6,-793.19"/>
<text text-anchor="middle" x="214" y="-796.67" font-family="Helvetica,sans-Serif" font-size="10.00"> stability_classifier</text>
</g>
<!-- Node22 -->
<g id="node22" class="node">
<title>Node22</title>
<g id="a_node22"><a xlink:href="structraw__accelerometer__report.html" target="_top" xlink:title="Holds the report data for the raw accelerometer.">
<polygon fill="white" stroke="#666666" points="132.5,-768.17 2.5,-768.17 2.5,-749.17 132.5,-749.17 132.5,-768.17"/>
<text text-anchor="middle" x="67.5" y="-756.17" font-family="Helvetica,sans-Serif" font-size="10.00">raw_accelerometer_report</text>
</a>
</g>
</g>
<!-- Node22&#45;&gt;Node2 -->
<g id="edge21" class="edge">
<title>Node22&#45;&gt;Node2</title>
<path fill="none" stroke="#9a32cd" stroke-dasharray="5,2" d="M144.24,-759.37C183.41,-760.48 231.92,-763.02 275,-768.67 280.75,-769.42 286.81,-770.49 292.67,-771.66"/>
<polygon fill="#9a32cd" stroke="#9a32cd" points="144.52,-755.87 134.44,-759.12 144.34,-762.87 144.52,-755.87"/>
<text text-anchor="middle" x="214" y="-771.67" font-family="Helvetica,sans-Serif" font-size="10.00"> raw_accelerometer</text>
</g>
<!-- Node23 -->
<g id="node23" class="node">
<title>Node23</title>
<g id="a_node23"><a xlink:href="structraw__gyroscope__report.html" target="_top" xlink:title="Holds the report data for the raw gyroscope.">
<polygon fill="white" stroke="#666666" points="124,-731.17 11,-731.17 11,-712.17 124,-712.17 124,-731.17"/>
<text text-anchor="middle" x="67.5" y="-719.17" font-family="Helvetica,sans-Serif" font-size="10.00">raw_gyroscope_report</text>
</a>
</g>
</g>
<!-- Node23&#45;&gt;Node2 -->
<g id="edge22" class="edge">
<title>Node23&#45;&gt;Node2</title>
<path fill="none" stroke="#9a32cd" stroke-dasharray="5,2" d="M135.42,-720.94C176.8,-722.46 230.35,-728.06 275,-744.67 290.3,-750.36 305.41,-761.63 315.16,-769.85"/>
<polygon fill="#9a32cd" stroke="#9a32cd" points="135.7,-717.45 125.61,-720.66 135.5,-724.45 135.7,-717.45"/>
<text text-anchor="middle" x="214" y="-747.67" font-family="Helvetica,sans-Serif" font-size="10.00"> raw_gyroscope</text>
</g>
<!-- Node24 -->
<g id="node24" class="node">
<title>Node24</title>
<g id="a_node24"><a xlink:href="structraw__magnetometer__report.html" target="_top" xlink:title="Holds the report data for the raw magnetometer.">
<polygon fill="white" stroke="#666666" points="133,-694.17 2,-694.17 2,-675.17 133,-675.17 133,-694.17"/>
<text text-anchor="middle" x="67.5" y="-682.17" font-family="Helvetica,sans-Serif" font-size="10.00">raw_magnetometer_report</text>
</a>
</g>
</g>
<!-- Node24&#45;&gt;Node2 -->
<g id="edge23" class="edge">
<title>Node24&#45;&gt;Node2</title>
<path fill="none" stroke="#9a32cd" stroke-dasharray="5,2" d="M144.67,-678.05C185.87,-677.95 236.13,-683.71 275,-706.67 299.89,-721.37 315.63,-753.55 322.31,-769.82"/>
<polygon fill="#9a32cd" stroke="#9a32cd" points="144.77,-674.55 134.82,-678.2 144.88,-681.55 144.77,-674.55"/>
<text text-anchor="middle" x="214" y="-709.67" font-family="Helvetica,sans-Serif" font-size="10.00"> raw_magnetometer</text>
</g>
<!-- Node25 -->
<g id="node25" class="node">
<title>Node25</title>
<g id="a_node25"><a xlink:href="structstep__detector__report.html" target="_top" xlink:title="Holds the report data for the step detector.">
<polygon fill="white" stroke="#666666" points="121,-657.17 14,-657.17 14,-638.17 121,-638.17 121,-657.17"/>
<text text-anchor="middle" x="67.5" y="-645.17" font-family="Helvetica,sans-Serif" font-size="10.00">step_detector_report</text>
</a>
</g>
</g>
<!-- Node25&#45;&gt;Node2 -->
<g id="edge24" class="edge">
<title>Node25&#45;&gt;Node2</title>
<path fill="none" stroke="#9a32cd" stroke-dasharray="5,2" d="M130.41,-636.37C174.64,-631.79 233.44,-633.24 275,-662.67 311.53,-688.54 322.16,-746.43 325.03,-769.7"/>
<polygon fill="#9a32cd" stroke="#9a32cd" points="130.23,-632.86 120.71,-637.51 131.05,-639.81 130.23,-632.86"/>
<text text-anchor="middle" x="214" y="-665.67" font-family="Helvetica,sans-Serif" font-size="10.00"> step_detector</text>
</g>
<!-- Node26 -->
<g id="node26" class="node">
<title>Node26</title>
<g id="a_node26"><a xlink:href="structshake__detector__report.html" target="_top" xlink:title="Holds the report data for the shake detector.">
<polygon fill="white" stroke="#666666" points="124,-620.17 11,-620.17 11,-601.17 124,-601.17 124,-620.17"/>
<text text-anchor="middle" x="67.5" y="-608.17" font-family="Helvetica,sans-Serif" font-size="10.00">shake_detector_report</text>
</a>
</g>
</g>
<!-- Node26&#45;&gt;Node2 -->
<g id="edge25" class="edge">
<title>Node26&#45;&gt;Node2</title>
<path fill="none" stroke="#9a32cd" stroke-dasharray="5,2" d="M115.42,-598.35C160.94,-589.38 229.63,-584.08 275,-618.67 324.2,-656.18 326.94,-741.23 326.39,-769.97"/>
<polygon fill="#9a32cd" stroke="#9a32cd" points="114.91,-594.88 105.85,-600.38 116.36,-601.73 114.91,-594.88"/>
<text text-anchor="middle" x="214" y="-621.67" font-family="Helvetica,sans-Serif" font-size="10.00"> shake_detector</text>
</g>
<!-- Node27 -->
<g id="node27" class="node">
<title>Node27</title>
<g id="a_node27"><a xlink:href="structflip__detector__report.html" target="_top" xlink:title="Holds the report data for the flip detector.">
<polygon fill="white" stroke="#666666" points="118,-583.17 17,-583.17 17,-564.17 118,-564.17 118,-583.17"/>
<text text-anchor="middle" x="67.5" y="-571.17" font-family="Helvetica,sans-Serif" font-size="10.00">flip_detector_report</text>
</a>
</g>
</g>
<!-- Node27&#45;&gt;Node2 -->
<g id="edge26" class="edge">
<title>Node27&#45;&gt;Node2</title>
<path fill="none" stroke="#9a32cd" stroke-dasharray="5,2" d="M129.75,-566.62C182.43,-561.95 253.26,-559.46 275,-576.67 306.2,-601.37 321.34,-732.37 325.07,-769.72"/>
<polygon fill="#9a32cd" stroke="#9a32cd" points="129.61,-563.12 119.98,-567.53 130.26,-570.08 129.61,-563.12"/>
<text text-anchor="middle" x="214" y="-579.67" font-family="Helvetica,sans-Serif" font-size="10.00"> flip_detector</text>
</g>
<!-- Node28 -->
<g id="node28" class="node">
<title>Node28</title>
<g id="a_node28"><a xlink:href="structpickup__detector__report.html" target="_top" xlink:title="Holds the report data for the pickup detector.">
<polygon fill="white" stroke="#666666" points="125.5,-546.17 9.5,-546.17 9.5,-527.17 125.5,-527.17 125.5,-546.17"/>
<text text-anchor="middle" x="67.5" y="-534.17" font-family="Helvetica,sans-Serif" font-size="10.00">pickup_detector_report</text>
</a>
</g>
</g>
<!-- Node28&#45;&gt;Node2 -->
<g id="edge27" class="edge">
<title>Node28&#45;&gt;Node2</title>
<path fill="none" stroke="#9a32cd" stroke-dasharray="5,2" d="M115.81,-524.38C161.94,-515.46 231.35,-510.62 275,-547.67 309.82,-577.23 322.57,-729.32 325.37,-769.78"/>
<polygon fill="#9a32cd" stroke="#9a32cd" points="115.17,-520.94 106.09,-526.41 116.6,-527.79 115.17,-520.94"/>
<text text-anchor="middle" x="214" y="-550.67" font-family="Helvetica,sans-Serif" font-size="10.00"> pickup_detector</text>
</g>
<!-- Node29 -->
<g id="node29" class="node">
<title>Node29</title>
<g id="a_node29"><a xlink:href="structstability__detector__report.html" target="_top" xlink:title="Holds the report data for the stability detector.">
<polygon fill="white" stroke="#666666" points="113,-508.67 22,-508.67 22,-478.67 113,-478.67 113,-508.67"/>
<text text-anchor="start" x="30" y="-496.67" font-family="Helvetica,sans-Serif" font-size="10.00">stability_detector</text>
<text text-anchor="middle" x="67.5" y="-485.67" font-family="Helvetica,sans-Serif" font-size="10.00">_report</text>
</a>
</g>
</g>
<!-- Node29&#45;&gt;Node2 -->
<g id="edge28" class="edge">
<title>Node29&#45;&gt;Node2</title>
<path fill="none" stroke="#9a32cd" stroke-dasharray="5,2" d="M124.69,-478.81C170.64,-470.31 234.45,-467.38 275,-502.67 316.41,-538.7 324.41,-724.56 325.75,-769.76"/>
<polygon fill="#9a32cd" stroke="#9a32cd" points="124.01,-475.38 114.9,-480.78 125.39,-482.24 124.01,-475.38"/>
<text text-anchor="middle" x="214" y="-505.67" font-family="Helvetica,sans-Serif" font-size="10.00"> stability_detector</text>
</g>
<!-- Node30 -->
<g id="node30" class="node">
<title>Node30</title>
<g id="a_node30"><a xlink:href="structpersonal__activity__classifier__report.html" target="_top" xlink:title="Holds the report data for the personal activity classifier.">
<polygon fill="white" stroke="#666666" points="135,-460.67 0,-460.67 0,-430.67 135,-430.67 135,-460.67"/>
<text text-anchor="start" x="8" y="-448.67" font-family="Helvetica,sans-Serif" font-size="10.00">personal_activity_classifier</text>
<text text-anchor="middle" x="67.5" y="-437.67" font-family="Helvetica,sans-Serif" font-size="10.00">_report</text>
</a>
</g>
</g>
<!-- Node30&#45;&gt;Node2 -->
<g id="edge29" class="edge">
<title>Node30&#45;&gt;Node2</title>
<path fill="none" stroke="#9a32cd" stroke-dasharray="5,2" d="M144.75,-428.69C188.14,-423.75 240.55,-426.47 275,-457.67 322.62,-500.79 325.89,-720.62 326.02,-769.87"/>
<polygon fill="#9a32cd" stroke="#9a32cd" points="144.31,-425.22 134.85,-429.99 145.22,-432.16 144.31,-425.22"/>
<text text-anchor="middle" x="214" y="-460.67" font-family="Helvetica,sans-Serif" font-size="10.00"> personal_activity_classifier</text>
</g>
<!-- Node31 -->
<g id="node31" class="node">
<title>Node31</title>
<g id="a_node31"><a xlink:href="structsleep__detector__report.html" target="_top" xlink:title="Holds the report data for the sleep detector.">
<polygon fill="white" stroke="#666666" points="123,-412.17 12,-412.17 12,-393.17 123,-393.17 123,-412.17"/>
<text text-anchor="middle" x="67.5" y="-400.17" font-family="Helvetica,sans-Serif" font-size="10.00">sleep_detector_report</text>
</a>
</g>
</g>
<!-- Node31&#45;&gt;Node2 -->
<g id="edge30" class="edge">
<title>Node31&#45;&gt;Node2</title>
<path fill="none" stroke="#9a32cd" stroke-dasharray="5,2" d="M112.1,-390.06C158.58,-379.55 231.36,-371.95 275,-411.67 329.62,-461.38 327.33,-716.62 326.24,-769.91"/>
<polygon fill="#9a32cd" stroke="#9a32cd" points="111.54,-386.59 102.64,-392.34 113.19,-393.4 111.54,-386.59"/>
<text text-anchor="middle" x="214" y="-414.67" font-family="Helvetica,sans-Serif" font-size="10.00"> sleep_detector</text>
</g>
<!-- Node32 -->
<g id="node32" class="node">
<title>Node32</title>
<g id="a_node32"><a xlink:href="structtilt__detector__report.html" target="_top" xlink:title="Holds the report data for the tilt detector.">
<polygon fill="white" stroke="#666666" points="116.5,-375.17 18.5,-375.17 18.5,-356.17 116.5,-356.17 116.5,-375.17"/>
<text text-anchor="middle" x="67.5" y="-363.17" font-family="Helvetica,sans-Serif" font-size="10.00">tilt_detector_report</text>
</a>
</g>
</g>
<!-- Node32&#45;&gt;Node2 -->
<g id="edge31" class="edge">
<title>Node32&#45;&gt;Node2</title>
<path fill="none" stroke="#9a32cd" stroke-dasharray="5,2" d="M128.3,-357.25C181.48,-351.22 253.98,-347.08 275,-365.67 306.4,-393.44 322.71,-709.53 325.55,-769.78"/>
<polygon fill="#9a32cd" stroke="#9a32cd" points="127.95,-353.77 118.43,-358.42 128.78,-360.72 127.95,-353.77"/>
<text text-anchor="middle" x="214" y="-368.67" font-family="Helvetica,sans-Serif" font-size="10.00"> tilt_detector</text>
</g>
<!-- Node33 -->
<g id="node33" class="node">
<title>Node33</title>
<g id="a_node33"><a xlink:href="structpocket__detector__report.html" target="_top" xlink:title="Holds the report data for the pocket detector.">
<polygon fill="white" stroke="#666666" points="125.5,-338.17 9.5,-338.17 9.5,-319.17 125.5,-319.17 125.5,-338.17"/>
<text text-anchor="middle" x="67.5" y="-326.17" font-family="Helvetica,sans-Serif" font-size="10.00">pocket_detector_report</text>
</a>
</g>
</g>
<!-- Node33&#45;&gt;Node2 -->
<g id="edge32" class="edge">
<title>Node33&#45;&gt;Node2</title>
<path fill="none" stroke="#9a32cd" stroke-dasharray="5,2" d="M110.68,-315.99C157.2,-304.87 231.24,-296.11 275,-336.67 308,-367.26 323.13,-707.69 325.62,-769.93"/>
<polygon fill="#9a32cd" stroke="#9a32cd" points="110.07,-312.53 101.24,-318.39 111.79,-319.32 110.07,-312.53"/>
<text text-anchor="middle" x="214" y="-339.67" font-family="Helvetica,sans-Serif" font-size="10.00"> pocket_detector</text>
</g>
<!-- Node34 -->
<g id="node34" class="node">
<title>Node34</title>
<g id="a_node34"><a xlink:href="structcircle__detector__report.html" target="_top" xlink:title="Holds the report data for the circle detector.">
<polygon fill="white" stroke="#666666" points="123,-301.17 12,-301.17 12,-282.17 123,-282.17 123,-301.17"/>
<text text-anchor="middle" x="67.5" y="-289.17" font-family="Helvetica,sans-Serif" font-size="10.00">circle_detector_report</text>
</a>
</g>
</g>
<!-- Node34&#45;&gt;Node2 -->
<g id="edge33" class="edge">
<title>Node34&#45;&gt;Node2</title>
<path fill="none" stroke="#9a32cd" stroke-dasharray="5,2" d="M134.64,-282.47C187.15,-276.79 254.96,-273.62 275,-291.67 311.94,-324.95 323.92,-703.51 325.74,-769.8"/>
<polygon fill="#9a32cd" stroke="#9a32cd" points="134.39,-278.97 124.85,-283.58 135.18,-285.93 134.39,-278.97"/>
<text text-anchor="middle" x="214" y="-294.67" font-family="Helvetica,sans-Serif" font-size="10.00"> circle_detector</text>
</g>
<!-- Node35 -->
<g id="node35" class="node">
<title>Node35</title>
<g id="a_node35"><a xlink:href="structheart__rate__monitor__report.html" target="_top" xlink:title="Holds the report data for the heart rate monitor.">
<polygon fill="white" stroke="#666666" points="116.5,-263.67 18.5,-263.67 18.5,-233.67 116.5,-233.67 116.5,-263.67"/>
<text text-anchor="start" x="26.5" y="-251.67" font-family="Helvetica,sans-Serif" font-size="10.00">heart_rate_monitor</text>
<text text-anchor="middle" x="67.5" y="-240.67" font-family="Helvetica,sans-Serif" font-size="10.00">_report</text>
</a>
</g>
</g>
<!-- Node35&#45;&gt;Node2 -->
<g id="edge34" class="edge">
<title>Node35&#45;&gt;Node2</title>
<path fill="none" stroke="#9a32cd" stroke-dasharray="5,2" d="M127.98,-234.18C174.32,-226.74 236.99,-225.81 275,-262.67 312.88,-299.4 324.12,-700.94 325.77,-769.69"/>
<polygon fill="#9a32cd" stroke="#9a32cd" points="127.6,-230.69 118.36,-235.87 128.81,-237.58 127.6,-230.69"/>
<text text-anchor="middle" x="214" y="-265.67" font-family="Helvetica,sans-Serif" font-size="10.00"> heart_rate_monitor</text>
</g>
<!-- Node36 -->
<g id="node36" class="node">
<title>Node36</title>
<g id="a_node36"><a xlink:href="structarvr__stabilised__rotation__vector__report.html" target="_top" xlink:title="Holds the report data for the ARVR stabilised rotation vector.">
<polygon fill="white" stroke="#666666" points="126.5,-215.67 8.5,-215.67 8.5,-185.67 126.5,-185.67 126.5,-215.67"/>
<text text-anchor="start" x="16.5" y="-203.67" font-family="Helvetica,sans-Serif" font-size="10.00">arvr_stabilised_rotation</text>
<text text-anchor="middle" x="67.5" y="-192.67" font-family="Helvetica,sans-Serif" font-size="10.00">_vector_report</text>
</a>
</g>
</g>
<!-- Node36&#45;&gt;Node2 -->
<g id="edge35" class="edge">
<title>Node36&#45;&gt;Node2</title>
<path fill="none" stroke="#9a32cd" stroke-dasharray="5,2" d="M138.22,-192.1C190.29,-187.41 255.66,-185.71 275,-203.67 318.31,-243.89 325.09,-697.56 325.9,-769.95"/>
<polygon fill="#9a32cd" stroke="#9a32cd" points="138.12,-188.6 128.5,-193.03 138.79,-195.57 138.12,-188.6"/>
<text text-anchor="start" x="161.5" y="-217.67" font-family="Helvetica,sans-Serif" font-size="10.00"> arvr_stabilised_rotation</text>
<text text-anchor="middle" x="214" y="-206.67" font-family="Helvetica,sans-Serif" font-size="10.00">_vector</text>
</g>
<!-- Node37 -->
<g id="node37" class="node">
<title>Node37</title>
<g id="a_node37"><a xlink:href="structarvr__stabilised__game__rotation__vector__report.html" target="_top" xlink:title="Holds the report data for the ARVR stabilised game rotation vector.">
<polygon fill="white" stroke="#666666" points="125.5,-167.67 9.5,-167.67 9.5,-137.67 125.5,-137.67 125.5,-167.67"/>
<text text-anchor="start" x="17.5" y="-155.67" font-family="Helvetica,sans-Serif" font-size="10.00">arvr_stabilised_game</text>
<text text-anchor="middle" x="67.5" y="-144.67" font-family="Helvetica,sans-Serif" font-size="10.00">_rotation_vector_report</text>
</a>
</g>
</g>
<!-- Node37&#45;&gt;Node2 -->
<g id="edge36" class="edge">
<title>Node37&#45;&gt;Node2</title>
<path fill="none" stroke="#9a32cd" stroke-dasharray="5,2" d="M136.25,-135.26C181.54,-128.03 239.19,-128.06 275,-162.67 320.6,-206.74 325.47,-693.92 325.95,-769.77"/>
<polygon fill="#9a32cd" stroke="#9a32cd" points="135.75,-131.79 126.51,-136.98 136.96,-138.69 135.75,-131.79"/>
<text text-anchor="start" x="165.5" y="-176.67" font-family="Helvetica,sans-Serif" font-size="10.00"> arvr_stabilised_game</text>
<text text-anchor="middle" x="214" y="-165.67" font-family="Helvetica,sans-Serif" font-size="10.00">_rotation_vector</text>
</g>
<!-- Node38 -->
<g id="node38" class="node">
<title>Node38</title>
<g id="a_node38"><a xlink:href="structgyro__integrated__rotation__vector__report.html" target="_top" xlink:title="Holds the report data for the gyro&#45;integrated rotation vector.">
<polygon fill="white" stroke="#666666" points="128,-119.67 7,-119.67 7,-89.67 128,-89.67 128,-119.67"/>
<text text-anchor="start" x="15" y="-107.67" font-family="Helvetica,sans-Serif" font-size="10.00">gyro_integrated_rotation</text>
<text text-anchor="middle" x="67.5" y="-96.67" font-family="Helvetica,sans-Serif" font-size="10.00">_vector_report</text>
</a>
</g>
</g>
<!-- Node38&#45;&gt;Node2 -->
<g id="edge37" class="edge">
<title>Node38&#45;&gt;Node2</title>
<path fill="none" stroke="#9a32cd" stroke-dasharray="5,2" d="M123.72,-86.21C170.16,-74.52 235.17,-67.74 275,-104.67 326.06,-152.02 326.29,-690.22 326.04,-769.85"/>
<polygon fill="#9a32cd" stroke="#9a32cd" points="122.85,-82.82 114.1,-88.79 124.66,-89.58 122.85,-82.82"/>
<text text-anchor="start" x="160" y="-118.67" font-family="Helvetica,sans-Serif" font-size="10.00"> gyro_integrated_rotation</text>
<text text-anchor="middle" x="214" y="-107.67" font-family="Helvetica,sans-Serif" font-size="10.00">_vector</text>
</g>
<!-- Node39 -->
<g id="node39" class="node">
<title>Node39</title>
<g id="a_node39"><a xlink:href="structmotion__request__report.html" target="_top" xlink:title="Holds the report data for the motion request.">
<polygon fill="white" stroke="#666666" points="124.5,-71.17 10.5,-71.17 10.5,-52.17 124.5,-52.17 124.5,-71.17"/>
<text text-anchor="middle" x="67.5" y="-59.17" font-family="Helvetica,sans-Serif" font-size="10.00">motion_request_report</text>
</a>
</g>
</g>
<!-- Node39&#45;&gt;Node2 -->
<g id="edge38" class="edge">
<title>Node39&#45;&gt;Node2</title>
<path fill="none" stroke="#9a32cd" stroke-dasharray="5,2" d="M136.26,-52.14C188.65,-46.45 255.45,-43.46 275,-61.67 329.29,-112.24 326.74,-686.96 326.09,-769.76"/>
<polygon fill="#9a32cd" stroke="#9a32cd" points="136.03,-48.64 126.49,-53.25 136.82,-55.6 136.03,-48.64"/>
<text text-anchor="middle" x="214" y="-64.67" font-family="Helvetica,sans-Serif" font-size="10.00"> motion_request</text>
</g>
<!-- Node40 -->
<g id="node40" class="node">
<title>Node40</title>
<g id="a_node40"><a xlink:href="structdead__reckoning__pose__report.html" target="_top" xlink:title="Holds the report data for the Dead Reckoning position report.">
<polygon fill="white" stroke="#666666" points="122.5,-33.67 12.5,-33.67 12.5,-3.67 122.5,-3.67 122.5,-33.67"/>
<text text-anchor="start" x="20.5" y="-21.67" font-family="Helvetica,sans-Serif" font-size="10.00">dead_reckoning_pose</text>
<text text-anchor="middle" x="67.5" y="-10.67" font-family="Helvetica,sans-Serif" font-size="10.00">_report</text>
</a>
</g>
</g>
<!-- Node40&#45;&gt;Node2 -->
<g id="edge39" class="edge">
<title>Node40&#45;&gt;Node2</title>
<path fill="none" stroke="#9a32cd" stroke-dasharray="5,2" d="M133.93,-3.36C179.8,3.15 239.11,2.37 275,-33.67 329.44,-88.35 326.75,-684.89 326.09,-769.67"/>
<polygon fill="#9a32cd" stroke="#9a32cd" points="133.41,0.1 124.08,-4.92 134.5,-6.81 133.41,0.1"/>
<text text-anchor="middle" x="214" y="-36.67" font-family="Helvetica,sans-Serif" font-size="10.00"> dead_reckoning_pose</text>
</g>
</g>
</svg>
