<?xml version="1.0" encoding="UTF-8" standalone="no"?>
<!DOCTYPE svg PUBLIC "-//W3C//DTD SVG 1.1//EN"
 "http://www.w3.org/Graphics/SVG/1.1/DTD/svg11.dtd">
<!-- Generated by graphviz version 7.1.0 (0)
 -->
<!-- Title: sensor Pages: 1 -->
<svg width="506pt" height="1487pt"
 viewBox="0.00 0.00 506.00 1486.94" xmlns="http://www.w3.org/2000/svg" xmlns:xlink="http://www.w3.org/1999/xlink">
<g id="graph0" class="graph" transform="scale(1 1) rotate(0) translate(4 1482.94)">
<title>sensor</title>
<!-- Node1 -->
<g id="node1" class="node">
<title>Node1</title>
<g id="a_node1"><a xlink:title="Stores an instance of a single sensor.">
<polygon fill="#999999" stroke="#666666" points="498,-746.44 452,-746.44 452,-727.44 498,-727.44 498,-746.44"/>
<text text-anchor="middle" x="475" y="-734.44" font-family="Helvetica,sans-Serif" font-size="10.00">sensor</text>
</a>
</g>
</g>
<!-- Node2 -->
<g id="node2" class="node">
<title>Node2</title>
<g id="a_node2"><a xlink:href="unioninput__report.html" target="_top" xlink:title=" ">
<polygon fill="white" stroke="#bfbfbf" points="361,-746.44 293,-746.44 293,-727.44 361,-727.44 361,-746.44"/>
<text text-anchor="middle" x="327" y="-734.44" font-family="Helvetica,sans-Serif" font-size="10.00">input_report</text>
</a>
</g>
</g>
<!-- Node2&#45;&gt;Node1 -->
<g id="edge1" class="edge">
<title>Node2&#45;&gt;Node1</title>
<path fill="none" stroke="#9a32cd" stroke-dasharray="5,2" d="M372.66,-736.94C398.77,-736.94 430.61,-736.94 451.55,-736.94"/>
<polygon fill="#9a32cd" stroke="#9a32cd" points="373.01,-733.44 363.01,-736.94 373.01,-740.44 373.01,-733.44"/>
<text text-anchor="middle" x="406.5" y="-739.94" font-family="Helvetica,sans-Serif" font-size="10.00"> input_report</text>
</g>
<!-- Node3 -->
<g id="node3" class="node">
<title>Node3</title>
<g id="a_node3"><a xlink:href="structaccelerometer__report.html" target="_top" xlink:title="Holds the report data for the accelerometer.">
<polygon fill="white" stroke="#666666" points="122,-1463.44 13,-1463.44 13,-1444.44 122,-1444.44 122,-1463.44"/>
<text text-anchor="middle" x="67.5" y="-1451.44" font-family="Helvetica,sans-Serif" font-size="10.00">accelerometer_report</text>
</a>
</g>
</g>
<!-- Node3&#45;&gt;Node2 -->
<g id="edge2" class="edge">
<title>Node3&#45;&gt;Node2</title>
<path fill="none" stroke="#9a32cd" stroke-dasharray="5,2" d="M124.64,-1465.55C171.66,-1471.69 237.02,-1471.19 275,-1431.94 324.9,-1380.37 326.11,-827.46 326.02,-746.75"/>
<polygon fill="#9a32cd" stroke="#9a32cd" points="125.31,-1462.11 114.91,-1464.14 124.3,-1469.04 125.31,-1462.11"/>
<text text-anchor="middle" x="214" y="-1470.94" font-family="Helvetica,sans-Serif" font-size="10.00"> accelerometer</text>
</g>
<!-- Node4 -->
<g id="node4" class="node">
<title>Node4</title>
<g id="a_node4"><a xlink:href="structgyroscope__report.html" target="_top" xlink:title="Holds the report data for the gyroscope.">
<polygon fill="white" stroke="#666666" points="113.5,-1426.44 21.5,-1426.44 21.5,-1407.44 113.5,-1407.44 113.5,-1426.44"/>
<text text-anchor="middle" x="67.5" y="-1414.44" font-family="Helvetica,sans-Serif" font-size="10.00">gyroscope_report</text>
</a>
</g>
</g>
<!-- Node4&#45;&gt;Node2 -->
<g id="edge3" class="edge">
<title>Node4&#45;&gt;Node2</title>
<path fill="none" stroke="#9a32cd" stroke-dasharray="5,2" d="M125.15,-1418.12C179.09,-1417.93 254.95,-1413.77 275,-1392.94 321.84,-1344.28 325.66,-825.65 325.97,-746.93"/>
<polygon fill="#9a32cd" stroke="#9a32cd" points="125.17,-1414.62 115.17,-1418.11 125.16,-1421.62 125.17,-1414.62"/>
<text text-anchor="middle" x="214" y="-1419.94" font-family="Helvetica,sans-Serif" font-size="10.00"> gyroscope</text>
</g>
<!-- Node5 -->
<g id="node5" class="node">
<title>Node5</title>
<g id="a_node5"><a xlink:href="structmagnetic__field__report.html" target="_top" xlink:title="Holds the report data for the magnetic field.">
<polygon fill="white" stroke="#666666" points="122.5,-1389.44 12.5,-1389.44 12.5,-1370.44 122.5,-1370.44 122.5,-1389.44"/>
<text text-anchor="middle" x="67.5" y="-1377.44" font-family="Helvetica,sans-Serif" font-size="10.00">magnetic_field_report</text>
</a>
</g>
</g>
<!-- Node5&#45;&gt;Node2 -->
<g id="edge4" class="edge">
<title>Node5&#45;&gt;Node2</title>
<path fill="none" stroke="#9a32cd" stroke-dasharray="5,2" d="M134.33,-1379.34C187.4,-1377.36 256.18,-1370.85 275,-1350.94 318.34,-1305.07 325.11,-821.96 325.91,-746.75"/>
<polygon fill="#9a32cd" stroke="#9a32cd" points="134.33,-1375.84 124.45,-1379.66 134.55,-1382.84 134.33,-1375.84"/>
<text text-anchor="middle" x="214" y="-1380.94" font-family="Helvetica,sans-Serif" font-size="10.00"> magnetic_field</text>
</g>
<!-- Node6 -->
<g id="node6" class="node">
<title>Node6</title>
<g id="a_node6"><a xlink:href="structlinear__acceleration__report.html" target="_top" xlink:title="Holds the report data for the linear acceleration.">
<polygon fill="white" stroke="#666666" points="116.5,-1351.94 18.5,-1351.94 18.5,-1321.94 116.5,-1321.94 116.5,-1351.94"/>
<text text-anchor="start" x="26.5" y="-1339.94" font-family="Helvetica,sans-Serif" font-size="10.00">linear_acceleration</text>
<text text-anchor="middle" x="67.5" y="-1328.94" font-family="Helvetica,sans-Serif" font-size="10.00">_report</text>
</a>
</g>
</g>
<!-- Node6&#45;&gt;Node2 -->
<g id="edge5" class="edge">
<title>Node6&#45;&gt;Node2</title>
<path fill="none" stroke="#9a32cd" stroke-dasharray="5,2" d="M128.46,-1337.13C182.15,-1335.93 255.35,-1330.41 275,-1309.94 315.71,-1267.51 324.68,-818.24 325.85,-746.55"/>
<polygon fill="#9a32cd" stroke="#9a32cd" points="128.44,-1333.63 118.5,-1337.31 128.56,-1340.63 128.44,-1333.63"/>
<text text-anchor="middle" x="214" y="-1338.94" font-family="Helvetica,sans-Serif" font-size="10.00"> linear_acceleration</text>
</g>
<!-- Node7 -->
<g id="node7" class="node">
<title>Node7</title>
<g id="a_node7"><a xlink:href="structrotation__vector__report.html" target="_top" xlink:title="Holds the report data for the rotation vector.">
<polygon fill="white" stroke="#666666" points="123,-1303.44 12,-1303.44 12,-1284.44 123,-1284.44 123,-1303.44"/>
<text text-anchor="middle" x="67.5" y="-1291.44" font-family="Helvetica,sans-Serif" font-size="10.00">rotation_vector_report</text>
</a>
</g>
</g>
<!-- Node7&#45;&gt;Node2 -->
<g id="edge6" class="edge">
<title>Node7&#45;&gt;Node2</title>
<path fill="none" stroke="#9a32cd" stroke-dasharray="5,2" d="M134.66,-1295.3C187.55,-1294.86 255.9,-1290.34 275,-1270.94 313.3,-1232.03 324.23,-816.33 325.79,-746.78"/>
<polygon fill="#9a32cd" stroke="#9a32cd" points="134.79,-1291.8 124.8,-1295.33 134.81,-1298.8 134.79,-1291.8"/>
<text text-anchor="middle" x="214" y="-1297.94" font-family="Helvetica,sans-Serif" font-size="10.00"> rotation_vector</text>
</g>
<!-- Node8 -->
<g id="node8" class="node">
<title>Node8</title>
<g id="a_node8"><a xlink:href="structgravity__report.html" target="_top" xlink:title="Holds the report data for the gravity.">
<polygon fill="white" stroke="#666666" points="106,-1266.44 29,-1266.44 29,-1247.44 106,-1247.44 106,-1266.44"/>
<text text-anchor="middle" x="67.5" y="-1254.44" font-family="Helvetica,sans-Serif" font-size="10.00">gravity_report</text>
</a>
</g>
</g>
<!-- Node8&#45;&gt;Node2 -->
<g id="edge7" class="edge">
<title>Node8&#45;&gt;Node2</title>
<path fill="none" stroke="#9a32cd" stroke-dasharray="5,2" d="M117.71,-1257.27C171.8,-1256.51 253.85,-1251.66 275,-1229.94 310.04,-1193.94 323.59,-813.46 325.7,-746.86"/>
<polygon fill="#9a32cd" stroke="#9a32cd" points="117.77,-1253.77 107.81,-1257.36 117.84,-1260.77 117.77,-1253.77"/>
<text text-anchor="middle" x="214" y="-1258.94" font-family="Helvetica,sans-Serif" font-size="10.00"> gravity</text>
</g>
<!-- Node9 -->
<g id="node9" class="node">
<title>Node9</title>
<g id="a_node9"><a xlink:href="structuncalibrated__gyroscope__report.html" target="_top" xlink:title="Holds the report data for the uncalibrated gyroscope.">
<polygon fill="white" stroke="#666666" points="127,-1228.94 8,-1228.94 8,-1198.94 127,-1198.94 127,-1228.94"/>
<text text-anchor="start" x="16" y="-1216.94" font-family="Helvetica,sans-Serif" font-size="10.00">uncalibrated_gyroscope</text>
<text text-anchor="middle" x="67.5" y="-1205.94" font-family="Helvetica,sans-Serif" font-size="10.00">_report</text>
</a>
</g>
</g>
<!-- Node9&#45;&gt;Node2 -->
<g id="edge8" class="edge">
<title>Node9&#45;&gt;Node2</title>
<path fill="none" stroke="#9a32cd" stroke-dasharray="5,2" d="M138.75,-1215.53C190.94,-1215.1 256.22,-1210.62 275,-1191.94 307.76,-1159.36 323.08,-810.66 325.62,-746.91"/>
<polygon fill="#9a32cd" stroke="#9a32cd" points="139,-1212.03 129.01,-1215.56 139.02,-1219.03 139,-1212.03"/>
<text text-anchor="middle" x="214" y="-1217.94" font-family="Helvetica,sans-Serif" font-size="10.00"> uncalibrated_gyroscope</text>
</g>
<!-- Node10 -->
<g id="node10" class="node">
<title>Node10</title>
<g id="a_node10"><a xlink:href="structgame__rotation__vector__report.html" target="_top" xlink:title="Holds the report data for the game rotation vector.">
<polygon fill="white" stroke="#666666" points="122.5,-1180.94 12.5,-1180.94 12.5,-1150.94 122.5,-1150.94 122.5,-1180.94"/>
<text text-anchor="start" x="20.5" y="-1168.94" font-family="Helvetica,sans-Serif" font-size="10.00">game_rotation_vector</text>
<text text-anchor="middle" x="67.5" y="-1157.94" font-family="Helvetica,sans-Serif" font-size="10.00">_report</text>
</a>
</g>
</g>
<!-- Node10&#45;&gt;Node2 -->
<g id="edge9" class="edge">
<title>Node10&#45;&gt;Node2</title>
<path fill="none" stroke="#9a32cd" stroke-dasharray="5,2" d="M134.14,-1177.43C179.83,-1181.39 238.83,-1177.76 275,-1141.94 304.14,-1113.07 322.28,-805.22 325.49,-746.56"/>
<polygon fill="#9a32cd" stroke="#9a32cd" points="134.64,-1173.97 124.34,-1176.43 133.93,-1180.93 134.64,-1173.97"/>
<text text-anchor="middle" x="214" y="-1180.94" font-family="Helvetica,sans-Serif" font-size="10.00"> game_rotation_vector</text>
</g>
<!-- Node11 -->
<g id="node11" class="node">
<title>Node11</title>
<g id="a_node11"><a xlink:href="structgeomagnetic__rotation__vector__report.html" target="_top" xlink:title="Holds the report data for the geomagnetic rotation vector.">
<polygon fill="white" stroke="#666666" points="122.5,-1132.94 12.5,-1132.94 12.5,-1102.94 122.5,-1102.94 122.5,-1132.94"/>
<text text-anchor="start" x="20.5" y="-1120.94" font-family="Helvetica,sans-Serif" font-size="10.00">geomagnetic_rotation</text>
<text text-anchor="middle" x="67.5" y="-1109.94" font-family="Helvetica,sans-Serif" font-size="10.00">_vector_report</text>
</a>
</g>
</g>
<!-- Node11&#45;&gt;Node2 -->
<g id="edge10" class="edge">
<title>Node11&#45;&gt;Node2</title>
<path fill="none" stroke="#9a32cd" stroke-dasharray="5,2" d="M134,-1117.73C186.86,-1116.09 255.52,-1110.16 275,-1090.94 325.38,-1041.21 326.47,-799.26 326.11,-746.93"/>
<polygon fill="#9a32cd" stroke="#9a32cd" points="134.07,-1114.22 124.16,-1117.98 134.25,-1121.22 134.07,-1114.22"/>
<text text-anchor="start" x="165.5" y="-1129.94" font-family="Helvetica,sans-Serif" font-size="10.00"> geomagnetic_rotation</text>
<text text-anchor="middle" x="214" y="-1118.94" font-family="Helvetica,sans-Serif" font-size="10.00">_vector</text>
</g>
<!-- Node12 -->
<g id="node12" class="node">
<title>Node12</title>
<g id="a_node12"><a xlink:href="structpressure__report.html" target="_top" xlink:title="Holds the report data for the pressure.">
<polygon fill="white" stroke="#666666" points="110,-1084.44 25,-1084.44 25,-1065.44 110,-1065.44 110,-1084.44"/>
<text text-anchor="middle" x="67.5" y="-1072.44" font-family="Helvetica,sans-Serif" font-size="10.00">pressure_report</text>
</a>
</g>
</g>
<!-- Node12&#45;&gt;Node2 -->
<g id="edge11" class="edge">
<title>Node12&#45;&gt;Node2</title>
<path fill="none" stroke="#9a32cd" stroke-dasharray="5,2" d="M121.51,-1076.34C175.3,-1076.56 253.6,-1073.21 275,-1052.94 320.68,-1009.65 325.45,-795.59 325.94,-746.83"/>
<polygon fill="#9a32cd" stroke="#9a32cd" points="121.65,-1072.84 111.62,-1076.25 121.58,-1079.84 121.65,-1072.84"/>
<text text-anchor="middle" x="214" y="-1078.94" font-family="Helvetica,sans-Serif" font-size="10.00"> pressure</text>
</g>
<!-- Node13 -->
<g id="node13" class="node">
<title>Node13</title>
<g id="a_node13"><a xlink:href="structambient__light__report.html" target="_top" xlink:title="Holds the report data for the ambient light.">
<polygon fill="white" stroke="#666666" points="120,-1047.44 15,-1047.44 15,-1028.44 120,-1028.44 120,-1047.44"/>
<text text-anchor="middle" x="67.5" y="-1035.44" font-family="Helvetica,sans-Serif" font-size="10.00">ambient_light_report</text>
</a>
</g>
</g>
<!-- Node13&#45;&gt;Node2 -->
<g id="edge12" class="edge">
<title>Node13&#45;&gt;Node2</title>
<path fill="none" stroke="#9a32cd" stroke-dasharray="5,2" d="M131.8,-1039.23C184.74,-1038.91 254.75,-1034.73 275,-1015.94 315.51,-978.34 324.19,-792.12 325.71,-746.86"/>
<polygon fill="#9a32cd" stroke="#9a32cd" points="131.96,-1035.73 121.97,-1039.24 131.97,-1042.73 131.96,-1035.73"/>
<text text-anchor="middle" x="214" y="-1040.94" font-family="Helvetica,sans-Serif" font-size="10.00"> ambient_light</text>
</g>
<!-- Node14 -->
<g id="node14" class="node">
<title>Node14</title>
<g id="a_node14"><a xlink:href="structhumidity__report.html" target="_top" xlink:title="Holds the report data for the humidity.">
<polygon fill="white" stroke="#666666" points="109.5,-1010.44 25.5,-1010.44 25.5,-991.44 109.5,-991.44 109.5,-1010.44"/>
<text text-anchor="middle" x="67.5" y="-998.44" font-family="Helvetica,sans-Serif" font-size="10.00">humidity_report</text>
</a>
</g>
</g>
<!-- Node14&#45;&gt;Node2 -->
<g id="edge13" class="edge">
<title>Node14&#45;&gt;Node2</title>
<path fill="none" stroke="#9a32cd" stroke-dasharray="5,2" d="M121.33,-1002.13C174.96,-1002.19 253.13,-998.69 275,-978.94 310.37,-946.99 322.75,-788.46 325.41,-746.92"/>
<polygon fill="#9a32cd" stroke="#9a32cd" points="121.48,-998.63 111.46,-1002.08 121.44,-1005.63 121.48,-998.63"/>
<text text-anchor="middle" x="214" y="-1003.94" font-family="Helvetica,sans-Serif" font-size="10.00"> humidity</text>
</g>
<!-- Node15 -->
<g id="node15" class="node">
<title>Node15</title>
<g id="a_node15"><a xlink:href="structproximity__report.html" target="_top" xlink:title="Holds the report data for the proximity.">
<polygon fill="white" stroke="#666666" points="111,-973.44 24,-973.44 24,-954.44 111,-954.44 111,-973.44"/>
<text text-anchor="middle" x="67.5" y="-961.44" font-family="Helvetica,sans-Serif" font-size="10.00">proximity_report</text>
</a>
</g>
</g>
<!-- Node15&#45;&gt;Node2 -->
<g id="edge14" class="edge">
<title>Node15&#45;&gt;Node2</title>
<path fill="none" stroke="#9a32cd" stroke-dasharray="5,2" d="M122.57,-964.97C176.03,-964.84 252.96,-961.13 275,-941.94 305.28,-915.56 321.08,-784.29 325.01,-746.89"/>
<polygon fill="#9a32cd" stroke="#9a32cd" points="122.73,-961.48 112.72,-964.96 122.71,-968.48 122.73,-961.48"/>
<text text-anchor="middle" x="214" y="-966.94" font-family="Helvetica,sans-Serif" font-size="10.00"> proximity</text>
</g>
<!-- Node16 -->
<g id="node16" class="node">
<title>Node16</title>
<g id="a_node16"><a xlink:href="structtemperature__report.html" target="_top" xlink:title="Holds the report data for the temperature.">
<polygon fill="white" stroke="#666666" points="117,-936.44 18,-936.44 18,-917.44 117,-917.44 117,-936.44"/>
<text text-anchor="middle" x="67.5" y="-924.44" font-family="Helvetica,sans-Serif" font-size="10.00">temperature_report</text>
</a>
</g>
</g>
<!-- Node16&#45;&gt;Node2 -->
<g id="edge15" class="edge">
<title>Node16&#45;&gt;Node2</title>
<path fill="none" stroke="#9a32cd" stroke-dasharray="5,2" d="M128.44,-927.69C181.34,-927.11 253.32,-922.87 275,-904.94 324.56,-863.94 327.07,-776.4 326.42,-746.88"/>
<polygon fill="#9a32cd" stroke="#9a32cd" points="128.62,-924.19 118.65,-927.76 128.67,-931.19 128.62,-924.19"/>
<text text-anchor="middle" x="214" y="-929.94" font-family="Helvetica,sans-Serif" font-size="10.00"> temperature</text>
</g>
<!-- Node17 -->
<g id="node17" class="node">
<title>Node17</title>
<g id="a_node17"><a xlink:href="structuncalibrated__magnetic__field__report.html" target="_top" xlink:title="Holds the report data for the uncalibrated magnetic field.">
<polygon fill="white" stroke="#666666" points="124.5,-898.94 10.5,-898.94 10.5,-868.94 124.5,-868.94 124.5,-898.94"/>
<text text-anchor="start" x="18.5" y="-886.94" font-family="Helvetica,sans-Serif" font-size="10.00">uncalibrated_magnetic</text>
<text text-anchor="middle" x="67.5" y="-875.94" font-family="Helvetica,sans-Serif" font-size="10.00">_field_report</text>
</a>
</g>
</g>
<!-- Node17&#45;&gt;Node2 -->
<g id="edge16" class="edge">
<title>Node17&#45;&gt;Node2</title>
<path fill="none" stroke="#9a32cd" stroke-dasharray="5,2" d="M136.07,-882.23C187.75,-879.64 253.65,-873.15 275,-856.94 311.6,-829.15 322.22,-769.97 325.05,-746.66"/>
<polygon fill="#9a32cd" stroke="#9a32cd" points="135.96,-878.73 126.13,-882.68 136.28,-885.72 135.96,-878.73"/>
<text text-anchor="start" x="163.5" y="-893.94" font-family="Helvetica,sans-Serif" font-size="10.00"> uncalibrated_magnetic</text>
<text text-anchor="middle" x="214" y="-882.94" font-family="Helvetica,sans-Serif" font-size="10.00">_field</text>
</g>
<!-- Node18 -->
<g id="node18" class="node">
<title>Node18</title>
<g id="a_node18"><a xlink:href="structtap__detector__report.html" target="_top" xlink:title="Holds the report data for the tap detector.">
<polygon fill="white" stroke="#666666" points="118,-850.44 17,-850.44 17,-831.44 118,-831.44 118,-850.44"/>
<text text-anchor="middle" x="67.5" y="-838.44" font-family="Helvetica,sans-Serif" font-size="10.00">tap_detector_report</text>
</a>
</g>
</g>
<!-- Node18&#45;&gt;Node2 -->
<g id="edge17" class="edge">
<title>Node18&#45;&gt;Node2</title>
<path fill="none" stroke="#9a32cd" stroke-dasharray="5,2" d="M129.43,-844.1C173.02,-843.57 231.44,-836.94 275,-809.94 299.44,-794.78 315.29,-763.11 322.13,-746.93"/>
<polygon fill="#9a32cd" stroke="#9a32cd" points="129.64,-840.6 119.64,-844.1 129.64,-847.6 129.64,-840.6"/>
<text text-anchor="middle" x="214" y="-844.94" font-family="Helvetica,sans-Serif" font-size="10.00"> tap_detector</text>
</g>
<!-- Node19 -->
<g id="node19" class="node">
<title>Node19</title>
<g id="a_node19"><a xlink:href="structstep__counter__report.html" target="_top" xlink:title="Holds the report data for the step counter.">
<polygon fill="white" stroke="#666666" points="119.5,-813.44 15.5,-813.44 15.5,-794.44 119.5,-794.44 119.5,-813.44"/>
<text text-anchor="middle" x="67.5" y="-801.44" font-family="Helvetica,sans-Serif" font-size="10.00">step_counter_report</text>
</a>
</g>
</g>
<!-- Node19&#45;&gt;Node2 -->
<g id="edge18" class="edge">
<title>Node19&#45;&gt;Node2</title>
<path fill="none" stroke="#9a32cd" stroke-dasharray="5,2" d="M131.28,-798.52C173.01,-793.53 228.48,-784.16 275,-766.94 288.49,-761.94 302.48,-753.44 312.38,-746.76"/>
<polygon fill="#9a32cd" stroke="#9a32cd" points="130.94,-795.04 121.4,-799.65 131.73,-802 130.94,-795.04"/>
<text text-anchor="middle" x="214" y="-797.94" font-family="Helvetica,sans-Serif" font-size="10.00"> step_counter</text>
</g>
<!-- Node20 -->
<g id="node20" class="node">
<title>Node20</title>
<g id="a_node20"><a xlink:href="structsignificant__motion__report.html" target="_top" xlink:title="Holds the report data for the significant motion.">
<polygon fill="white" stroke="#666666" points="115,-775.94 20,-775.94 20,-745.94 115,-745.94 115,-775.94"/>
<text text-anchor="start" x="28" y="-763.94" font-family="Helvetica,sans-Serif" font-size="10.00">significant_motion</text>
<text text-anchor="middle" x="67.5" y="-752.94" font-family="Helvetica,sans-Serif" font-size="10.00">_report</text>
</a>
</g>
</g>
<!-- Node20&#45;&gt;Node2 -->
<g id="edge19" class="edge">
<title>Node20&#45;&gt;Node2</title>
<path fill="none" stroke="#9a32cd" stroke-dasharray="5,2" d="M126.65,-755.52C177.81,-750.75 250.5,-743.97 292.51,-740.06"/>
<polygon fill="#9a32cd" stroke="#9a32cd" points="126.57,-752.01 116.94,-756.42 127.22,-758.98 126.57,-752.01"/>
<text text-anchor="middle" x="214" y="-754.94" font-family="Helvetica,sans-Serif" font-size="10.00"> significant_motion</text>
</g>
<!-- Node21 -->
<g id="node21" class="node">
<title>Node21</title>
<g id="a_node21"><a xlink:href="structstability__classifier__report.html" target="_top" xlink:title="Holds the report data for the stability classifier.">
<polygon fill="white" stroke="#666666" points="115,-727.94 20,-727.94 20,-697.94 115,-697.94 115,-727.94"/>
<text text-anchor="start" x="28" y="-715.94" font-family="Helvetica,sans-Serif" font-size="10.00">stability_classifier</text>
<text text-anchor="middle" x="67.5" y="-704.94" font-family="Helvetica,sans-Serif" font-size="10.00">_report</text>
</a>
</g>
</g>
<!-- Node21&#45;&gt;Node2 -->
<g id="edge20" class="edge">
<title>Node21&#45;&gt;Node2</title>
<path fill="none" stroke="#9a32cd" stroke-dasharray="5,2" d="M126.68,-714.92C168.16,-716.82 225.18,-720.39 275,-726.94 280.73,-727.69 286.78,-728.69 292.63,-729.77"/>
<polygon fill="#9a32cd" stroke="#9a32cd" points="127.07,-711.44 116.93,-714.5 126.76,-718.43 127.07,-711.44"/>
<text text-anchor="middle" x="214" y="-729.94" font-family="Helvetica,sans-Serif" font-size="10.00"> stability_classifier</text>
</g>
<!-- Node22 -->
<g id="node22" class="node">
<title>Node22</title>
<g id="a_node22"><a xlink:href="structraw__accelerometer__report.html" target="_top" xlink:title="Holds the report data for the raw accelerometer.">
<polygon fill="white" stroke="#666666" points="132.5,-679.44 2.5,-679.44 2.5,-660.44 132.5,-660.44 132.5,-679.44"/>
<text text-anchor="middle" x="67.5" y="-667.44" font-family="Helvetica,sans-Serif" font-size="10.00">raw_accelerometer_report</text>
</a>
</g>
</g>
<!-- Node22&#45;&gt;Node2 -->
<g id="edge21" class="edge">
<title>Node22&#45;&gt;Node2</title>
<path fill="none" stroke="#9a32cd" stroke-dasharray="5,2" d="M144.16,-672.88C184.23,-676.5 233.58,-684.3 275,-700.94 290.29,-707.07 305.4,-718.62 315.16,-726.98"/>
<polygon fill="#9a32cd" stroke="#9a32cd" points="144.61,-669.4 134.36,-672.07 144.04,-676.38 144.61,-669.4"/>
<text text-anchor="middle" x="214" y="-703.94" font-family="Helvetica,sans-Serif" font-size="10.00"> raw_accelerometer</text>
</g>
<!-- Node23 -->
<g id="node23" class="node">
<title>Node23</title>
<g id="a_node23"><a xlink:href="structraw__gyroscope__report.html" target="_top" xlink:title="Holds the report data for the raw gyroscope.">
<polygon fill="white" stroke="#666666" points="124,-642.44 11,-642.44 11,-623.44 124,-623.44 124,-642.44"/>
<text text-anchor="middle" x="67.5" y="-630.44" font-family="Helvetica,sans-Serif" font-size="10.00">raw_gyroscope_report</text>
</a>
</g>
</g>
<!-- Node23&#45;&gt;Node2 -->
<g id="edge22" class="edge">
<title>Node23&#45;&gt;Node2</title>
<path fill="none" stroke="#9a32cd" stroke-dasharray="5,2" d="M135.92,-627.08C178.79,-626.57 233.77,-632.15 275,-657.94 301.3,-674.39 316.65,-709.94 322.82,-727.17"/>
<polygon fill="#9a32cd" stroke="#9a32cd" points="135.88,-623.58 125.97,-627.32 136.05,-630.58 135.88,-623.58"/>
<text text-anchor="middle" x="214" y="-660.94" font-family="Helvetica,sans-Serif" font-size="10.00"> raw_gyroscope</text>
</g>
<!-- Node24 -->
<g id="node24" class="node">
<title>Node24</title>
<g id="a_node24"><a xlink:href="structraw__magnetometer__report.html" target="_top" xlink:title="Holds the report data for the raw magnetometer.">
<polygon fill="white" stroke="#666666" points="133,-605.44 2,-605.44 2,-586.44 133,-586.44 133,-605.44"/>
<text text-anchor="middle" x="67.5" y="-593.44" font-family="Helvetica,sans-Serif" font-size="10.00">raw_magnetometer_report</text>
</a>
</g>
</g>
<!-- Node24&#45;&gt;Node2 -->
<g id="edge23" class="edge">
<title>Node24&#45;&gt;Node2</title>
<path fill="none" stroke="#9a32cd" stroke-dasharray="5,2" d="M130.65,-584.69C175,-580.22 233.85,-581.91 275,-611.94 313.62,-640.12 323.08,-702.76 325.32,-727.05"/>
<polygon fill="#9a32cd" stroke="#9a32cd" points="130.46,-581.19 120.92,-585.81 131.26,-588.15 130.46,-581.19"/>
<text text-anchor="middle" x="214" y="-614.94" font-family="Helvetica,sans-Serif" font-size="10.00"> raw_magnetometer</text>
</g>
<!-- Node25 -->
<g id="node25" class="node">
<title>Node25</title>
<g id="a_node25"><a xlink:href="structsar__report.html" target="_top" xlink:title="Holds the report data for the SAR.">
<polygon fill="white" stroke="#666666" points="98,-568.44 37,-568.44 37,-549.44 98,-549.44 98,-568.44"/>
<text text-anchor="middle" x="67.5" y="-556.44" font-family="Helvetica,sans-Serif" font-size="10.00">sar_report</text>
</a>
</g>
</g>
<!-- Node25&#45;&gt;Node2 -->
<g id="edge24" class="edge">
<title>Node25&#45;&gt;Node2</title>
<path fill="none" stroke="#9a32cd" stroke-dasharray="5,2" d="M109.63,-547.69C155.03,-537.93 227.9,-530.46 275,-566.94 326.64,-606.94 327.73,-697.27 326.58,-727.14"/>
<polygon fill="#9a32cd" stroke="#9a32cd" points="108.87,-544.28 99.9,-549.93 110.43,-551.1 108.87,-544.28"/>
<text text-anchor="middle" x="214" y="-569.94" font-family="Helvetica,sans-Serif" font-size="10.00"> sar</text>
</g>
<!-- Node26 -->
<g id="node26" class="node">
<title>Node26</title>
<g id="a_node26"><a xlink:href="structstep__detector__report.html" target="_top" xlink:title="Holds the report data for the step detector.">
<polygon fill="white" stroke="#666666" points="121,-531.44 14,-531.44 14,-512.44 121,-512.44 121,-531.44"/>
<text text-anchor="middle" x="67.5" y="-519.44" font-family="Helvetica,sans-Serif" font-size="10.00">step_detector_report</text>
</a>
</g>
</g>
<!-- Node26&#45;&gt;Node2 -->
<g id="edge25" class="edge">
<title>Node26&#45;&gt;Node2</title>
<path fill="none" stroke="#9a32cd" stroke-dasharray="5,2" d="M132.65,-514.24C185.01,-509.43 253.71,-506.97 275,-523.94 307.71,-550 321.87,-688.57 325.2,-727.03"/>
<polygon fill="#9a32cd" stroke="#9a32cd" points="132.53,-510.73 122.92,-515.18 133.21,-517.7 132.53,-510.73"/>
<text text-anchor="middle" x="214" y="-526.94" font-family="Helvetica,sans-Serif" font-size="10.00"> step_detector</text>
</g>
<!-- Node27 -->
<g id="node27" class="node">
<title>Node27</title>
<g id="a_node27"><a xlink:href="structshake__detector__report.html" target="_top" xlink:title="Holds the report data for the shake detector.">
<polygon fill="white" stroke="#666666" points="124,-494.44 11,-494.44 11,-475.44 124,-475.44 124,-494.44"/>
<text text-anchor="middle" x="67.5" y="-482.44" font-family="Helvetica,sans-Serif" font-size="10.00">shake_detector_report</text>
</a>
</g>
</g>
<!-- Node27&#45;&gt;Node2 -->
<g id="edge26" class="edge">
<title>Node27&#45;&gt;Node2</title>
<path fill="none" stroke="#9a32cd" stroke-dasharray="5,2" d="M114.65,-472.54C160.8,-463.15 231.05,-457.49 275,-494.94 311.36,-525.92 323.04,-685.85 325.48,-727.18"/>
<polygon fill="#9a32cd" stroke="#9a32cd" points="113.97,-469.1 104.95,-474.66 115.46,-475.94 113.97,-469.1"/>
<text text-anchor="middle" x="214" y="-497.94" font-family="Helvetica,sans-Serif" font-size="10.00"> shake_detector</text>
</g>
<!-- Node28 -->
<g id="node28" class="node">
<title>Node28</title>
<g id="a_node28"><a xlink:href="structflip__detector__report.html" target="_top" xlink:title="Holds the report data for the flip detector.">
<polygon fill="white" stroke="#666666" points="118,-457.44 17,-457.44 17,-438.44 118,-438.44 118,-457.44"/>
<text text-anchor="middle" x="67.5" y="-445.44" font-family="Helvetica,sans-Serif" font-size="10.00">flip_detector_report</text>
</a>
</g>
</g>
<!-- Node28&#45;&gt;Node2 -->
<g id="edge27" class="edge">
<title>Node28&#45;&gt;Node2</title>
<path fill="none" stroke="#9a32cd" stroke-dasharray="5,2" d="M129.54,-440.26C182.45,-435.05 253.77,-431.97 275,-449.94 318.46,-486.71 324.92,-680.54 325.85,-726.95"/>
<polygon fill="#9a32cd" stroke="#9a32cd" points="129.31,-436.76 119.72,-441.27 130.03,-443.72 129.31,-436.76"/>
<text text-anchor="middle" x="214" y="-452.94" font-family="Helvetica,sans-Serif" font-size="10.00"> flip_detector</text>
</g>
<!-- Node29 -->
<g id="node29" class="node">
<title>Node29</title>
<g id="a_node29"><a xlink:href="structpickup__detector__report.html" target="_top" xlink:title="Holds the report data for the pickup detector.">
<polygon fill="white" stroke="#666666" points="125.5,-420.44 9.5,-420.44 9.5,-401.44 125.5,-401.44 125.5,-420.44"/>
<text text-anchor="middle" x="67.5" y="-408.44" font-family="Helvetica,sans-Serif" font-size="10.00">pickup_detector_report</text>
</a>
</g>
</g>
<!-- Node29&#45;&gt;Node2 -->
<g id="edge28" class="edge">
<title>Node29&#45;&gt;Node2</title>
<path fill="none" stroke="#9a32cd" stroke-dasharray="5,2" d="M113.14,-398.51C159.55,-388.55 231.37,-381.93 275,-420.94 321.91,-462.89 325.74,-677.97 325.99,-726.99"/>
<polygon fill="#9a32cd" stroke="#9a32cd" points="112.65,-395.03 103.69,-400.68 114.22,-401.85 112.65,-395.03"/>
<text text-anchor="middle" x="214" y="-423.94" font-family="Helvetica,sans-Serif" font-size="10.00"> pickup_detector</text>
</g>
<!-- Node30 -->
<g id="node30" class="node">
<title>Node30</title>
<g id="a_node30"><a xlink:href="structstability__detector__report.html" target="_top" xlink:title="Holds the report data for the stability detector.">
<polygon fill="white" stroke="#666666" points="113,-382.94 22,-382.94 22,-352.94 113,-352.94 113,-382.94"/>
<text text-anchor="start" x="30" y="-370.94" font-family="Helvetica,sans-Serif" font-size="10.00">stability_detector</text>
<text text-anchor="middle" x="67.5" y="-359.94" font-family="Helvetica,sans-Serif" font-size="10.00">_report</text>
</a>
</g>
</g>
<!-- Node30&#45;&gt;Node2 -->
<g id="edge29" class="edge">
<title>Node30&#45;&gt;Node2</title>
<path fill="none" stroke="#9a32cd" stroke-dasharray="5,2" d="M124.28,-352.15C170.47,-342.77 234.83,-338.82 275,-374.94 328.92,-423.42 327.22,-673.76 326.23,-726.98"/>
<polygon fill="#9a32cd" stroke="#9a32cd" points="123.74,-348.68 114.72,-354.24 125.24,-355.52 123.74,-348.68"/>
<text text-anchor="middle" x="214" y="-377.94" font-family="Helvetica,sans-Serif" font-size="10.00"> stability_detector</text>
</g>
<!-- Node31 -->
<g id="node31" class="node">
<title>Node31</title>
<g id="a_node31"><a xlink:href="structpersonal__activity__classifier__report.html" target="_top" xlink:title="Holds the report data for the personal activity classifier.">
<polygon fill="white" stroke="#666666" points="135,-334.94 0,-334.94 0,-304.94 135,-304.94 135,-334.94"/>
<text text-anchor="start" x="8" y="-322.94" font-family="Helvetica,sans-Serif" font-size="10.00">personal_activity_classifier</text>
<text text-anchor="middle" x="67.5" y="-311.94" font-family="Helvetica,sans-Serif" font-size="10.00">_report</text>
</a>
</g>
</g>
<!-- Node31&#45;&gt;Node2 -->
<g id="edge30" class="edge">
<title>Node31&#45;&gt;Node2</title>
<path fill="none" stroke="#9a32cd" stroke-dasharray="5,2" d="M138.05,-302.66C182.79,-296.01 239.08,-296.65 275,-329.94 305.23,-357.95 322.49,-668.12 325.52,-727.24"/>
<polygon fill="#9a32cd" stroke="#9a32cd" points="137.73,-299.17 128.44,-304.25 138.87,-306.07 137.73,-299.17"/>
<text text-anchor="middle" x="214" y="-332.94" font-family="Helvetica,sans-Serif" font-size="10.00"> personal_activity_classifier</text>
</g>
<!-- Node32 -->
<g id="node32" class="node">
<title>Node32</title>
<g id="a_node32"><a xlink:href="structsleep__detector__report.html" target="_top" xlink:title="Holds the report data for the sleep detector.">
<polygon fill="white" stroke="#666666" points="123,-286.44 12,-286.44 12,-267.44 123,-267.44 123,-286.44"/>
<text text-anchor="middle" x="67.5" y="-274.44" font-family="Helvetica,sans-Serif" font-size="10.00">sleep_detector_report</text>
</a>
</g>
</g>
<!-- Node32&#45;&gt;Node2 -->
<g id="edge31" class="edge">
<title>Node32&#45;&gt;Node2</title>
<path fill="none" stroke="#9a32cd" stroke-dasharray="5,2" d="M134.75,-270.18C187.33,-266.41 255.19,-265.62 275,-283.94 308.78,-315.17 323.27,-663.32 325.64,-726.98"/>
<polygon fill="#9a32cd" stroke="#9a32cd" points="134.66,-266.68 124.96,-270.94 135.2,-273.66 134.66,-266.68"/>
<text text-anchor="middle" x="214" y="-286.94" font-family="Helvetica,sans-Serif" font-size="10.00"> sleep_detector</text>
</g>
<!-- Node33 -->
<g id="node33" class="node">
<title>Node33</title>
<g id="a_node33"><a xlink:href="structtilt__detector__report.html" target="_top" xlink:title="Holds the report data for the tilt detector.">
<polygon fill="white" stroke="#666666" points="116.5,-249.44 18.5,-249.44 18.5,-230.44 116.5,-230.44 116.5,-249.44"/>
<text text-anchor="middle" x="67.5" y="-237.44" font-family="Helvetica,sans-Serif" font-size="10.00">tilt_detector_report</text>
</a>
</g>
</g>
<!-- Node33&#45;&gt;Node2 -->
<g id="edge32" class="edge">
<title>Node33&#45;&gt;Node2</title>
<path fill="none" stroke="#9a32cd" stroke-dasharray="5,2" d="M114.88,-227.56C161.75,-218.13 233.08,-212.75 275,-252.94 310.6,-287.07 323.69,-661.6 325.71,-727.17"/>
<polygon fill="#9a32cd" stroke="#9a32cd" points="114.32,-224.1 105.29,-229.63 115.8,-230.94 114.32,-224.1"/>
<text text-anchor="middle" x="214" y="-255.94" font-family="Helvetica,sans-Serif" font-size="10.00"> tilt_detector</text>
</g>
<!-- Node34 -->
<g id="node34" class="node">
<title>Node34</title>
<g id="a_node34"><a xlink:href="structpocket__detector__report.html" target="_top" xlink:title="Holds the report data for the pocket detector.">
<polygon fill="white" stroke="#666666" points="125.5,-212.44 9.5,-212.44 9.5,-193.44 125.5,-193.44 125.5,-212.44"/>
<text text-anchor="middle" x="67.5" y="-200.44" font-family="Helvetica,sans-Serif" font-size="10.00">pocket_detector_report</text>
</a>
</g>
</g>
<!-- Node34&#45;&gt;Node2 -->
<g id="edge33" class="edge">
<title>Node34&#45;&gt;Node2</title>
<path fill="none" stroke="#9a32cd" stroke-dasharray="5,2" d="M137.17,-194.14C189.37,-189.14 255.43,-186.98 275,-204.94 315.08,-241.71 324.53,-657.51 325.83,-727.09"/>
<polygon fill="#9a32cd" stroke="#9a32cd" points="137.03,-190.64 127.44,-195.13 137.74,-197.6 137.03,-190.64"/>
<text text-anchor="middle" x="214" y="-207.94" font-family="Helvetica,sans-Serif" font-size="10.00"> pocket_detector</text>
</g>
<!-- Node35 -->
<g id="node35" class="node">
<title>Node35</title>
<g id="a_node35"><a xlink:href="structcircle__detector__report.html" target="_top" xlink:title="Holds the report data for the circle detector.">
<polygon fill="white" stroke="#666666" points="123,-175.44 12,-175.44 12,-156.44 123,-156.44 123,-175.44"/>
<text text-anchor="middle" x="67.5" y="-163.44" font-family="Helvetica,sans-Serif" font-size="10.00">circle_detector_report</text>
</a>
</g>
</g>
<!-- Node35&#45;&gt;Node2 -->
<g id="edge34" class="edge">
<title>Node35&#45;&gt;Node2</title>
<path fill="none" stroke="#9a32cd" stroke-dasharray="5,2" d="M111.29,-153.21C158.02,-142.22 231.95,-133.86 275,-174.94 316.64,-214.67 324.81,-655.03 325.87,-727.01"/>
<polygon fill="#9a32cd" stroke="#9a32cd" points="110.63,-149.77 101.78,-155.59 112.33,-156.56 110.63,-149.77"/>
<text text-anchor="middle" x="214" y="-177.94" font-family="Helvetica,sans-Serif" font-size="10.00"> circle_detector</text>
</g>
<!-- Node36 -->
<g id="node36" class="node">
<title>Node36</title>
<g id="a_node36"><a xlink:href="structheart__rate__monitor__report.html" target="_top" xlink:title="Holds the report data for the heart rate monitor.">
<polygon fill="white" stroke="#666666" points="116.5,-137.94 18.5,-137.94 18.5,-107.94 116.5,-107.94 116.5,-137.94"/>
<text text-anchor="start" x="26.5" y="-125.94" font-family="Helvetica,sans-Serif" font-size="10.00">heart_rate_monitor</text>
<text text-anchor="middle" x="67.5" y="-114.94" font-family="Helvetica,sans-Serif" font-size="10.00">_report</text>
</a>
</g>
</g>
<!-- Node36&#45;&gt;Node2 -->
<g id="edge35" class="edge">
<title>Node36&#45;&gt;Node2</title>
<path fill="none" stroke="#9a32cd" stroke-dasharray="5,2" d="M128.11,-116.25C181.54,-111.71 254.56,-109.58 275,-128.94 320.38,-171.9 325.43,-652.36 325.95,-727.17"/>
<polygon fill="#9a32cd" stroke="#9a32cd" points="127.84,-112.76 118.2,-117.14 128.47,-119.73 127.84,-112.76"/>
<text text-anchor="middle" x="214" y="-131.94" font-family="Helvetica,sans-Serif" font-size="10.00"> heart_rate_monitor</text>
</g>
<!-- Node37 -->
<g id="node37" class="node">
<title>Node37</title>
<g id="a_node37"><a xlink:href="structarvr__stabilised__rotation__vector__report.html" target="_top" xlink:title="Holds the report data for the ARVR stabilised rotation vector.">
<polygon fill="white" stroke="#666666" points="126.5,-89.94 8.5,-89.94 8.5,-59.94 126.5,-59.94 126.5,-89.94"/>
<text text-anchor="start" x="16.5" y="-77.94" font-family="Helvetica,sans-Serif" font-size="10.00">arvr_stabilised_rotation</text>
<text text-anchor="middle" x="67.5" y="-66.94" font-family="Helvetica,sans-Serif" font-size="10.00">_vector_report</text>
</a>
</g>
</g>
<!-- Node37&#45;&gt;Node2 -->
<g id="edge36" class="edge">
<title>Node37&#45;&gt;Node2</title>
<path fill="none" stroke="#9a32cd" stroke-dasharray="5,2" d="M137.75,-58.03C182.89,-51.48 239.77,-52.41 275,-86.94 322.8,-133.78 325.81,-648.82 325.99,-727.01"/>
<polygon fill="#9a32cd" stroke="#9a32cd" points="137.35,-54.55 128.03,-59.6 138.46,-61.46 137.35,-54.55"/>
<text text-anchor="start" x="161.5" y="-100.94" font-family="Helvetica,sans-Serif" font-size="10.00"> arvr_stabilised_rotation</text>
<text text-anchor="middle" x="214" y="-89.94" font-family="Helvetica,sans-Serif" font-size="10.00">_vector</text>
</g>
<!-- Node38 -->
<g id="node38" class="node">
<title>Node38</title>
<g id="a_node38"><a xlink:href="structarvr__stabilised__game__rotation__vector__report.html" target="_top" xlink:title="Holds the report data for the ARVR stabilised game rotation vector.">
<polygon fill="white" stroke="#666666" points="125.5,-41.94 9.5,-41.94 9.5,-11.94 125.5,-11.94 125.5,-41.94"/>
<text text-anchor="start" x="17.5" y="-29.94" font-family="Helvetica,sans-Serif" font-size="10.00">arvr_stabilised_game</text>
<text text-anchor="middle" x="67.5" y="-18.94" font-family="Helvetica,sans-Serif" font-size="10.00">_rotation_vector_report</text>
</a>
</g>
</g>
<!-- Node38&#45;&gt;Node2 -->
<g id="edge37" class="edge">
<title>Node38&#45;&gt;Node2</title>
<path fill="none" stroke="#9a32cd" stroke-dasharray="5,2" d="M125.55,-8.67C171.94,2.27 235.9,7.81 275,-28.94 328.32,-79.04 326.6,-645.55 326.07,-727.16"/>
<polygon fill="#9a32cd" stroke="#9a32cd" points="124.77,-5.25 115.93,-11.09 126.48,-12.04 124.77,-5.25"/>
<text text-anchor="start" x="165.5" y="-42.94" font-family="Helvetica,sans-Serif" font-size="10.00"> arvr_stabilised_game</text>
<text text-anchor="middle" x="214" y="-31.94" font-family="Helvetica,sans-Serif" font-size="10.00">_rotation_vector</text>
</g>
</g>
</svg>
