<?xml version="1.0" encoding="UTF-8" standalone="no"?>
<!DOCTYPE svg PUBLIC "-//W3C//DTD SVG 1.1//EN"
 "http://www.w3.org/Graphics/SVG/1.1/DTD/svg11.dtd">
<!-- Generated by graphviz version 7.1.0 (0)
 -->
<!-- Title: report Pages: 1 -->
<svg width="343pt" height="1487pt"
 viewBox="0.00 0.00 343.00 1486.55" xmlns="http://www.w3.org/2000/svg" xmlns:xlink="http://www.w3.org/1999/xlink">
<g id="graph0" class="graph" transform="scale(1 1) rotate(0) translate(4 1482.55)">
<title>report</title>
<!-- Node1 -->
<g id="node1" class="node">
<title>Node1</title>
<g id="a_node1"><a xlink:title=" ">
<polygon fill="#999999" stroke="#666666" points="335,-746.05 293,-746.05 293,-727.05 335,-727.05 335,-746.05"/>
<text text-anchor="middle" x="314" y="-734.05" font-family="Helvetica,sans-Serif" font-size="10.00">report</text>
</a>
</g>
</g>
<!-- Node2 -->
<g id="node2" class="node">
<title>Node2</title>
<g id="a_node2"><a xlink:href="structaccelerometer__report.html" target="_top" xlink:title="Holds the report data for the accelerometer.">
<polygon fill="white" stroke="#666666" points="122,-1463.05 13,-1463.05 13,-1444.05 122,-1444.05 122,-1463.05"/>
<text text-anchor="middle" x="67.5" y="-1451.05" font-family="Helvetica,sans-Serif" font-size="10.00">accelerometer_report</text>
</a>
</g>
</g>
<!-- Node2&#45;&gt;Node1 -->
<g id="edge1" class="edge">
<title>Node2&#45;&gt;Node1</title>
<path fill="none" stroke="#9a32cd" stroke-dasharray="5,2" d="M123.96,-1465.23C171.16,-1471.59 237.15,-1471.4 275,-1431.55 299.71,-1405.54 311.28,-829.61 312.82,-746.5"/>
<polygon fill="#9a32cd" stroke="#9a32cd" points="124.6,-1461.78 114.2,-1463.76 123.57,-1468.71 124.6,-1461.78"/>
<text text-anchor="middle" x="214" y="-1470.55" font-family="Helvetica,sans-Serif" font-size="10.00"> accelerometer</text>
</g>
<!-- Node3 -->
<g id="node3" class="node">
<title>Node3</title>
<g id="a_node3"><a xlink:href="structgyroscope__report.html" target="_top" xlink:title="Holds the report data for the gyroscope.">
<polygon fill="white" stroke="#666666" points="113.5,-1426.05 21.5,-1426.05 21.5,-1407.05 113.5,-1407.05 113.5,-1426.05"/>
<text text-anchor="middle" x="67.5" y="-1414.05" font-family="Helvetica,sans-Serif" font-size="10.00">gyroscope_report</text>
</a>
</g>
</g>
<!-- Node3&#45;&gt;Node1 -->
<g id="edge2" class="edge">
<title>Node3&#45;&gt;Node1</title>
<path fill="none" stroke="#9a32cd" stroke-dasharray="5,2" d="M125.23,-1417.81C179.24,-1417.68 255.15,-1413.58 275,-1392.55 298.2,-1367.97 311.01,-826.66 312.79,-746.45"/>
<polygon fill="#9a32cd" stroke="#9a32cd" points="125.25,-1414.31 115.24,-1417.79 125.23,-1421.31 125.25,-1414.31"/>
<text text-anchor="middle" x="214" y="-1419.55" font-family="Helvetica,sans-Serif" font-size="10.00"> gyroscope</text>
</g>
<!-- Node4 -->
<g id="node4" class="node">
<title>Node4</title>
<g id="a_node4"><a xlink:href="structmagnetic__field__report.html" target="_top" xlink:title="Holds the report data for the magnetic field.">
<polygon fill="white" stroke="#666666" points="122.5,-1389.05 12.5,-1389.05 12.5,-1370.05 122.5,-1370.05 122.5,-1389.05"/>
<text text-anchor="middle" x="67.5" y="-1377.05" font-family="Helvetica,sans-Serif" font-size="10.00">magnetic_field_report</text>
</a>
</g>
</g>
<!-- Node4&#45;&gt;Node1 -->
<g id="edge3" class="edge">
<title>Node4&#45;&gt;Node1</title>
<path fill="none" stroke="#9a32cd" stroke-dasharray="5,2" d="M133.95,-1379.07C187.15,-1377.17 256.33,-1370.73 275,-1350.55 317.79,-1304.29 313.98,-821.51 313.12,-746.36"/>
<polygon fill="#9a32cd" stroke="#9a32cd" points="133.92,-1375.57 124.04,-1379.38 134.14,-1382.57 133.92,-1375.57"/>
<text text-anchor="middle" x="214" y="-1380.55" font-family="Helvetica,sans-Serif" font-size="10.00"> magnetic_field</text>
</g>
<!-- Node5 -->
<g id="node5" class="node">
<title>Node5</title>
<g id="a_node5"><a xlink:href="structlinear__acceleration__report.html" target="_top" xlink:title="Holds the report data for the linear acceleration.">
<polygon fill="white" stroke="#666666" points="116.5,-1351.55 18.5,-1351.55 18.5,-1321.55 116.5,-1321.55 116.5,-1351.55"/>
<text text-anchor="start" x="26.5" y="-1339.55" font-family="Helvetica,sans-Serif" font-size="10.00">linear_acceleration</text>
<text text-anchor="middle" x="67.5" y="-1328.55" font-family="Helvetica,sans-Serif" font-size="10.00">_report</text>
</a>
</g>
</g>
<!-- Node5&#45;&gt;Node1 -->
<g id="edge4" class="edge">
<title>Node5&#45;&gt;Node1</title>
<path fill="none" stroke="#9a32cd" stroke-dasharray="5,2" d="M128.09,-1336.85C181.9,-1335.74 255.53,-1330.31 275,-1309.55 315.16,-1266.74 313.59,-817.79 313.08,-746.16"/>
<polygon fill="#9a32cd" stroke="#9a32cd" points="128.05,-1333.35 118.11,-1337.01 128.16,-1340.35 128.05,-1333.35"/>
<text text-anchor="middle" x="214" y="-1338.55" font-family="Helvetica,sans-Serif" font-size="10.00"> linear_acceleration</text>
</g>
<!-- Node6 -->
<g id="node6" class="node">
<title>Node6</title>
<g id="a_node6"><a xlink:href="structrotation__vector__report.html" target="_top" xlink:title="Holds the report data for the rotation vector.">
<polygon fill="white" stroke="#666666" points="123,-1303.05 12,-1303.05 12,-1284.05 123,-1284.05 123,-1303.05"/>
<text text-anchor="middle" x="67.5" y="-1291.05" font-family="Helvetica,sans-Serif" font-size="10.00">rotation_vector_report</text>
</a>
</g>
</g>
<!-- Node6&#45;&gt;Node1 -->
<g id="edge5" class="edge">
<title>Node6&#45;&gt;Node1</title>
<path fill="none" stroke="#9a32cd" stroke-dasharray="5,2" d="M134.78,-1295.03C187.74,-1294.66 256.14,-1290.18 275,-1270.55 312.75,-1231.26 313.23,-815.88 313.04,-746.38"/>
<polygon fill="#9a32cd" stroke="#9a32cd" points="134.9,-1291.52 124.9,-1295.04 134.91,-1298.52 134.9,-1291.52"/>
<text text-anchor="middle" x="214" y="-1297.55" font-family="Helvetica,sans-Serif" font-size="10.00"> rotation_vector</text>
</g>
<!-- Node7 -->
<g id="node7" class="node">
<title>Node7</title>
<g id="a_node7"><a xlink:href="structgravity__report.html" target="_top" xlink:title="Holds the report data for the gravity.">
<polygon fill="white" stroke="#666666" points="106,-1266.05 29,-1266.05 29,-1247.05 106,-1247.05 106,-1266.05"/>
<text text-anchor="middle" x="67.5" y="-1254.05" font-family="Helvetica,sans-Serif" font-size="10.00">gravity_report</text>
</a>
</g>
</g>
<!-- Node7&#45;&gt;Node1 -->
<g id="edge6" class="edge">
<title>Node7&#45;&gt;Node1</title>
<path fill="none" stroke="#9a32cd" stroke-dasharray="5,2" d="M117.81,-1256.98C172,-1256.31 254.14,-1251.55 275,-1229.55 309.48,-1193.19 312.68,-813.01 312.97,-746.46"/>
<polygon fill="#9a32cd" stroke="#9a32cd" points="117.86,-1253.48 107.89,-1257.05 117.91,-1260.48 117.86,-1253.48"/>
<text text-anchor="middle" x="214" y="-1258.55" font-family="Helvetica,sans-Serif" font-size="10.00"> gravity</text>
</g>
<!-- Node8 -->
<g id="node8" class="node">
<title>Node8</title>
<g id="a_node8"><a xlink:href="structuncalibrated__gyroscope__report.html" target="_top" xlink:title="Holds the report data for the uncalibrated gyroscope.">
<polygon fill="white" stroke="#666666" points="127,-1228.55 8,-1228.55 8,-1198.55 127,-1198.55 127,-1228.55"/>
<text text-anchor="start" x="16" y="-1216.55" font-family="Helvetica,sans-Serif" font-size="10.00">uncalibrated_gyroscope</text>
<text text-anchor="middle" x="67.5" y="-1205.55" font-family="Helvetica,sans-Serif" font-size="10.00">_report</text>
</a>
</g>
</g>
<!-- Node8&#45;&gt;Node1 -->
<g id="edge7" class="edge">
<title>Node8&#45;&gt;Node1</title>
<path fill="none" stroke="#9a32cd" stroke-dasharray="5,2" d="M138.64,-1215.29C190.96,-1214.95 256.45,-1210.52 275,-1191.55 307.21,-1158.6 312.26,-810.2 312.91,-746.51"/>
<polygon fill="#9a32cd" stroke="#9a32cd" points="138.87,-1211.79 128.88,-1215.3 138.88,-1218.79 138.87,-1211.79"/>
<text text-anchor="middle" x="214" y="-1217.55" font-family="Helvetica,sans-Serif" font-size="10.00"> uncalibrated_gyroscope</text>
</g>
<!-- Node9 -->
<g id="node9" class="node">
<title>Node9</title>
<g id="a_node9"><a xlink:href="structgame__rotation__vector__report.html" target="_top" xlink:title="Holds the report data for the game rotation vector.">
<polygon fill="white" stroke="#666666" points="122.5,-1180.55 12.5,-1180.55 12.5,-1150.55 122.5,-1150.55 122.5,-1180.55"/>
<text text-anchor="start" x="20.5" y="-1168.55" font-family="Helvetica,sans-Serif" font-size="10.00">game_rotation_vector</text>
<text text-anchor="middle" x="67.5" y="-1157.55" font-family="Helvetica,sans-Serif" font-size="10.00">_report</text>
</a>
</g>
</g>
<!-- Node9&#45;&gt;Node1 -->
<g id="edge8" class="edge">
<title>Node9&#45;&gt;Node1</title>
<path fill="none" stroke="#9a32cd" stroke-dasharray="5,2" d="M134,-1177.71C179.9,-1182.14 239.22,-1178.96 275,-1142.55 303.72,-1113.32 311.57,-804.95 312.81,-746.19"/>
<polygon fill="#9a32cd" stroke="#9a32cd" points="134.47,-1174.24 124.14,-1176.6 133.69,-1181.2 134.47,-1174.24"/>
<text text-anchor="middle" x="214" y="-1181.55" font-family="Helvetica,sans-Serif" font-size="10.00"> game_rotation_vector</text>
</g>
<!-- Node10 -->
<g id="node10" class="node">
<title>Node10</title>
<g id="a_node10"><a xlink:href="structgeomagnetic__rotation__vector__report.html" target="_top" xlink:title="Holds the report data for the geomagnetic rotation vector.">
<polygon fill="white" stroke="#666666" points="122.5,-1132.55 12.5,-1132.55 12.5,-1102.55 122.5,-1102.55 122.5,-1132.55"/>
<text text-anchor="start" x="20.5" y="-1120.55" font-family="Helvetica,sans-Serif" font-size="10.00">geomagnetic_rotation</text>
<text text-anchor="middle" x="67.5" y="-1109.55" font-family="Helvetica,sans-Serif" font-size="10.00">_vector_report</text>
</a>
</g>
</g>
<!-- Node10&#45;&gt;Node1 -->
<g id="edge9" class="edge">
<title>Node10&#45;&gt;Node1</title>
<path fill="none" stroke="#9a32cd" stroke-dasharray="5,2" d="M134.18,-1117.51C187.15,-1115.99 255.87,-1110.12 275,-1090.55 299.79,-1065.18 310.67,-800.79 312.66,-746.33"/>
<polygon fill="#9a32cd" stroke="#9a32cd" points="134.23,-1114.01 124.31,-1117.75 134.39,-1121.01 134.23,-1114.01"/>
<text text-anchor="start" x="165.5" y="-1130.55" font-family="Helvetica,sans-Serif" font-size="10.00"> geomagnetic_rotation</text>
<text text-anchor="middle" x="214" y="-1119.55" font-family="Helvetica,sans-Serif" font-size="10.00">_vector</text>
</g>
<!-- Node11 -->
<g id="node11" class="node">
<title>Node11</title>
<g id="a_node11"><a xlink:href="structpressure__report.html" target="_top" xlink:title="Holds the report data for the pressure.">
<polygon fill="white" stroke="#666666" points="110,-1084.05 25,-1084.05 25,-1065.05 110,-1065.05 110,-1084.05"/>
<text text-anchor="middle" x="67.5" y="-1072.05" font-family="Helvetica,sans-Serif" font-size="10.00">pressure_report</text>
</a>
</g>
</g>
<!-- Node11&#45;&gt;Node1 -->
<g id="edge10" class="edge">
<title>Node11&#45;&gt;Node1</title>
<path fill="none" stroke="#9a32cd" stroke-dasharray="5,2" d="M121.68,-1076.11C175.6,-1076.48 254.02,-1073.25 275,-1052.55 297.42,-1030.43 310.05,-797.05 312.54,-746.27"/>
<polygon fill="#9a32cd" stroke="#9a32cd" points="121.79,-1072.62 111.75,-1076 121.71,-1079.62 121.79,-1072.62"/>
<text text-anchor="middle" x="214" y="-1078.55" font-family="Helvetica,sans-Serif" font-size="10.00"> pressure</text>
</g>
<!-- Node12 -->
<g id="node12" class="node">
<title>Node12</title>
<g id="a_node12"><a xlink:href="structambient__light__report.html" target="_top" xlink:title="Holds the report data for the ambient light.">
<polygon fill="white" stroke="#666666" points="120,-1047.05 15,-1047.05 15,-1028.05 120,-1028.05 120,-1047.05"/>
<text text-anchor="middle" x="67.5" y="-1035.05" font-family="Helvetica,sans-Serif" font-size="10.00">ambient_light_report</text>
</a>
</g>
</g>
<!-- Node12&#45;&gt;Node1 -->
<g id="edge11" class="edge">
<title>Node12&#45;&gt;Node1</title>
<path fill="none" stroke="#9a32cd" stroke-dasharray="5,2" d="M131.53,-1039.06C184.66,-1038.91 255.12,-1034.85 275,-1015.55 314.36,-977.32 313.91,-791.58 313.2,-746.45"/>
<polygon fill="#9a32cd" stroke="#9a32cd" points="131.66,-1035.56 121.65,-1039.04 131.65,-1042.56 131.66,-1035.56"/>
<text text-anchor="middle" x="214" y="-1041.55" font-family="Helvetica,sans-Serif" font-size="10.00"> ambient_light</text>
</g>
<!-- Node13 -->
<g id="node13" class="node">
<title>Node13</title>
<g id="a_node13"><a xlink:href="structhumidity__report.html" target="_top" xlink:title="Holds the report data for the humidity.">
<polygon fill="white" stroke="#666666" points="109.5,-1010.05 25.5,-1010.05 25.5,-991.05 109.5,-991.05 109.5,-1010.05"/>
<text text-anchor="middle" x="67.5" y="-998.05" font-family="Helvetica,sans-Serif" font-size="10.00">humidity_report</text>
</a>
</g>
</g>
<!-- Node13&#45;&gt;Node1 -->
<g id="edge12" class="edge">
<title>Node13&#45;&gt;Node1</title>
<path fill="none" stroke="#9a32cd" stroke-dasharray="5,2" d="M121.07,-1001.96C174.89,-1002.22 253.59,-998.92 275,-978.55 309.2,-946.01 312.66,-787.92 312.98,-746.5"/>
<polygon fill="#9a32cd" stroke="#9a32cd" points="121.21,-998.46 111.17,-1001.87 121.14,-1005.46 121.21,-998.46"/>
<text text-anchor="middle" x="214" y="-1004.55" font-family="Helvetica,sans-Serif" font-size="10.00"> humidity</text>
</g>
<!-- Node14 -->
<g id="node14" class="node">
<title>Node14</title>
<g id="a_node14"><a xlink:href="structproximity__report.html" target="_top" xlink:title="Holds the report data for the proximity.">
<polygon fill="white" stroke="#666666" points="111,-973.05 24,-973.05 24,-954.05 111,-954.05 111,-973.05"/>
<text text-anchor="middle" x="67.5" y="-961.05" font-family="Helvetica,sans-Serif" font-size="10.00">proximity_report</text>
</a>
</g>
</g>
<!-- Node14&#45;&gt;Node1 -->
<g id="edge13" class="edge">
<title>Node14&#45;&gt;Node1</title>
<path fill="none" stroke="#9a32cd" stroke-dasharray="5,2" d="M122.81,-964.85C176.47,-964.93 253.56,-961.4 275,-941.55 304.09,-914.62 311.22,-783.74 312.67,-746.47"/>
<polygon fill="#9a32cd" stroke="#9a32cd" points="122.94,-961.35 112.92,-964.79 122.89,-968.35 122.94,-961.35"/>
<text text-anchor="middle" x="214" y="-966.55" font-family="Helvetica,sans-Serif" font-size="10.00"> proximity</text>
</g>
<!-- Node15 -->
<g id="node15" class="node">
<title>Node15</title>
<g id="a_node15"><a xlink:href="structtemperature__report.html" target="_top" xlink:title="Holds the report data for the temperature.">
<polygon fill="white" stroke="#666666" points="117,-936.05 18,-936.05 18,-917.05 117,-917.05 117,-936.05"/>
<text text-anchor="middle" x="67.5" y="-924.05" font-family="Helvetica,sans-Serif" font-size="10.00">temperature_report</text>
</a>
</g>
</g>
<!-- Node15&#45;&gt;Node1 -->
<g id="edge14" class="edge">
<title>Node15&#45;&gt;Node1</title>
<path fill="none" stroke="#9a32cd" stroke-dasharray="5,2" d="M128.75,-927.34C181.88,-926.73 254.01,-922.3 275,-903.55 298.84,-882.26 309.44,-778.94 312.22,-746.39"/>
<polygon fill="#9a32cd" stroke="#9a32cd" points="128.88,-923.84 118.91,-927.41 128.93,-930.84 128.88,-923.84"/>
<text text-anchor="middle" x="214" y="-929.55" font-family="Helvetica,sans-Serif" font-size="10.00"> temperature</text>
</g>
<!-- Node16 -->
<g id="node16" class="node">
<title>Node16</title>
<g id="a_node16"><a xlink:href="structuncalibrated__magnetic__field__report.html" target="_top" xlink:title="Holds the report data for the uncalibrated magnetic field.">
<polygon fill="white" stroke="#666666" points="124.5,-898.55 10.5,-898.55 10.5,-868.55 124.5,-868.55 124.5,-898.55"/>
<text text-anchor="start" x="18.5" y="-886.55" font-family="Helvetica,sans-Serif" font-size="10.00">uncalibrated_magnetic</text>
<text text-anchor="middle" x="67.5" y="-875.55" font-family="Helvetica,sans-Serif" font-size="10.00">_field_report</text>
</a>
</g>
</g>
<!-- Node16&#45;&gt;Node1 -->
<g id="edge15" class="edge">
<title>Node16&#45;&gt;Node1</title>
<path fill="none" stroke="#9a32cd" stroke-dasharray="5,2" d="M136.26,-879.34C192.29,-875.26 264.35,-868.4 275,-859.55 309.89,-830.55 313.34,-770.2 313.27,-746.45"/>
<polygon fill="#9a32cd" stroke="#9a32cd" points="136.17,-875.84 126.44,-880.04 136.66,-882.82 136.17,-875.84"/>
<text text-anchor="start" x="163.5" y="-891.55" font-family="Helvetica,sans-Serif" font-size="10.00"> uncalibrated_magnetic</text>
<text text-anchor="middle" x="214" y="-880.55" font-family="Helvetica,sans-Serif" font-size="10.00">_field</text>
</g>
<!-- Node17 -->
<g id="node17" class="node">
<title>Node17</title>
<g id="a_node17"><a xlink:href="structtap__detector__report.html" target="_top" xlink:title="Holds the report data for the tap detector.">
<polygon fill="white" stroke="#666666" points="118,-850.05 17,-850.05 17,-831.05 118,-831.05 118,-850.05"/>
<text text-anchor="middle" x="67.5" y="-838.05" font-family="Helvetica,sans-Serif" font-size="10.00">tap_detector_report</text>
</a>
</g>
</g>
<!-- Node17&#45;&gt;Node1 -->
<g id="edge16" class="edge">
<title>Node17&#45;&gt;Node1</title>
<path fill="none" stroke="#9a32cd" stroke-dasharray="5,2" d="M129.75,-846.61C174.01,-847.81 233.13,-842.5 275,-812.55 297.56,-796.41 307.48,-762.99 311.16,-746.37"/>
<polygon fill="#9a32cd" stroke="#9a32cd" points="129.91,-843.11 119.78,-846.21 129.63,-850.11 129.91,-843.11"/>
<text text-anchor="middle" x="214" y="-849.55" font-family="Helvetica,sans-Serif" font-size="10.00"> tap_detector</text>
</g>
<!-- Node18 -->
<g id="node18" class="node">
<title>Node18</title>
<g id="a_node18"><a xlink:href="structstep__counter__report.html" target="_top" xlink:title="Holds the report data for the step counter.">
<polygon fill="white" stroke="#666666" points="119.5,-813.05 15.5,-813.05 15.5,-794.05 119.5,-794.05 119.5,-813.05"/>
<text text-anchor="middle" x="67.5" y="-801.05" font-family="Helvetica,sans-Serif" font-size="10.00">step_counter_report</text>
</a>
</g>
</g>
<!-- Node18&#45;&gt;Node1 -->
<g id="edge17" class="edge">
<title>Node18&#45;&gt;Node1</title>
<path fill="none" stroke="#9a32cd" stroke-dasharray="5,2" d="M131.01,-800.3C173.23,-796.23 229.36,-787.08 275,-766.55 285.73,-761.72 296.09,-753.2 303.27,-746.47"/>
<polygon fill="#9a32cd" stroke="#9a32cd" points="130.93,-796.8 121.28,-801.17 131.55,-803.77 130.93,-796.8"/>
<text text-anchor="middle" x="214" y="-800.55" font-family="Helvetica,sans-Serif" font-size="10.00"> step_counter</text>
</g>
<!-- Node19 -->
<g id="node19" class="node">
<title>Node19</title>
<g id="a_node19"><a xlink:href="structsignificant__motion__report.html" target="_top" xlink:title="Holds the report data for the significant motion.">
<polygon fill="white" stroke="#666666" points="115,-775.55 20,-775.55 20,-745.55 115,-745.55 115,-775.55"/>
<text text-anchor="start" x="28" y="-763.55" font-family="Helvetica,sans-Serif" font-size="10.00">significant_motion</text>
<text text-anchor="middle" x="67.5" y="-752.55" font-family="Helvetica,sans-Serif" font-size="10.00">_report</text>
</a>
</g>
</g>
<!-- Node19&#45;&gt;Node1 -->
<g id="edge18" class="edge">
<title>Node19&#45;&gt;Node1</title>
<path fill="none" stroke="#9a32cd" stroke-dasharray="5,2" d="M126.75,-754.83C180.3,-749.57 256.68,-742.08 292.71,-738.54"/>
<polygon fill="#9a32cd" stroke="#9a32cd" points="126.47,-751.34 116.86,-755.8 127.15,-758.31 126.47,-751.34"/>
<text text-anchor="middle" x="214" y="-754.55" font-family="Helvetica,sans-Serif" font-size="10.00"> significant_motion</text>
</g>
<!-- Node20 -->
<g id="node20" class="node">
<title>Node20</title>
<g id="a_node20"><a xlink:href="structstability__classifier__report.html" target="_top" xlink:title="Holds the report data for the stability classifier.">
<polygon fill="white" stroke="#666666" points="115,-727.55 20,-727.55 20,-697.55 115,-697.55 115,-727.55"/>
<text text-anchor="start" x="28" y="-715.55" font-family="Helvetica,sans-Serif" font-size="10.00">stability_classifier</text>
<text text-anchor="middle" x="67.5" y="-704.55" font-family="Helvetica,sans-Serif" font-size="10.00">_report</text>
</a>
</g>
</g>
<!-- Node20&#45;&gt;Node1 -->
<g id="edge19" class="edge">
<title>Node20&#45;&gt;Node1</title>
<path fill="none" stroke="#9a32cd" stroke-dasharray="5,2" d="M126.48,-712.82C168.09,-713.83 225.35,-716.91 275,-725.55 280.82,-726.56 287.02,-728.13 292.68,-729.78"/>
<polygon fill="#9a32cd" stroke="#9a32cd" points="126.76,-709.32 116.69,-712.62 126.62,-716.32 126.76,-709.32"/>
<text text-anchor="middle" x="214" y="-728.55" font-family="Helvetica,sans-Serif" font-size="10.00"> stability_classifier</text>
</g>
<!-- Node21 -->
<g id="node21" class="node">
<title>Node21</title>
<g id="a_node21"><a xlink:href="structraw__accelerometer__report.html" target="_top" xlink:title="Holds the report data for the raw accelerometer.">
<polygon fill="white" stroke="#666666" points="132.5,-679.05 2.5,-679.05 2.5,-660.05 132.5,-660.05 132.5,-679.05"/>
<text text-anchor="middle" x="67.5" y="-667.05" font-family="Helvetica,sans-Serif" font-size="10.00">raw_accelerometer_report</text>
</a>
</g>
</g>
<!-- Node21&#45;&gt;Node1 -->
<g id="edge20" class="edge">
<title>Node21&#45;&gt;Node1</title>
<path fill="none" stroke="#9a32cd" stroke-dasharray="5,2" d="M144.05,-668.73C184.72,-671.03 234.66,-678.44 275,-698.55 288.03,-705.04 299.29,-717.73 306.1,-726.66"/>
<polygon fill="#9a32cd" stroke="#9a32cd" points="144.23,-665.23 134.08,-668.26 143.91,-672.22 144.23,-665.23"/>
<text text-anchor="middle" x="214" y="-701.55" font-family="Helvetica,sans-Serif" font-size="10.00"> raw_accelerometer</text>
</g>
<!-- Node22 -->
<g id="node22" class="node">
<title>Node22</title>
<g id="a_node22"><a xlink:href="structraw__gyroscope__report.html" target="_top" xlink:title="Holds the report data for the raw gyroscope.">
<polygon fill="white" stroke="#666666" points="124,-642.05 11,-642.05 11,-623.05 124,-623.05 124,-642.05"/>
<text text-anchor="middle" x="67.5" y="-630.05" font-family="Helvetica,sans-Serif" font-size="10.00">raw_gyroscope_report</text>
</a>
</g>
</g>
<!-- Node22&#45;&gt;Node1 -->
<g id="edge21" class="edge">
<title>Node22&#45;&gt;Node1</title>
<path fill="none" stroke="#9a32cd" stroke-dasharray="5,2" d="M135.51,-623.27C179.1,-620.85 235.06,-624.95 275,-653.55 299.61,-671.17 308.65,-708.7 311.65,-726.62"/>
<polygon fill="#9a32cd" stroke="#9a32cd" points="135.38,-619.78 125.65,-623.96 135.87,-626.76 135.38,-619.78"/>
<text text-anchor="middle" x="214" y="-656.55" font-family="Helvetica,sans-Serif" font-size="10.00"> raw_gyroscope</text>
</g>
<!-- Node23 -->
<g id="node23" class="node">
<title>Node23</title>
<g id="a_node23"><a xlink:href="structraw__magnetometer__report.html" target="_top" xlink:title="Holds the report data for the raw magnetometer.">
<polygon fill="white" stroke="#666666" points="133,-605.05 2,-605.05 2,-586.05 133,-586.05 133,-605.05"/>
<text text-anchor="middle" x="67.5" y="-593.05" font-family="Helvetica,sans-Serif" font-size="10.00">raw_magnetometer_report</text>
</a>
</g>
</g>
<!-- Node23&#45;&gt;Node1 -->
<g id="edge22" class="edge">
<title>Node23&#45;&gt;Node1</title>
<path fill="none" stroke="#9a32cd" stroke-dasharray="5,2" d="M118.91,-583.56C164.62,-575.85 231.32,-572.86 275,-607.55 312.48,-637.31 314.3,-702.13 313.54,-726.77"/>
<polygon fill="#9a32cd" stroke="#9a32cd" points="118.47,-580.09 109.26,-585.33 119.73,-586.97 118.47,-580.09"/>
<text text-anchor="middle" x="214" y="-610.55" font-family="Helvetica,sans-Serif" font-size="10.00"> raw_magnetometer</text>
</g>
<!-- Node24 -->
<g id="node24" class="node">
<title>Node24</title>
<g id="a_node24"><a xlink:href="structsar__report.html" target="_top" xlink:title="Holds the report data for the SAR.">
<polygon fill="white" stroke="#666666" points="98,-568.05 37,-568.05 37,-549.05 98,-549.05 98,-568.05"/>
<text text-anchor="middle" x="67.5" y="-556.05" font-family="Helvetica,sans-Serif" font-size="10.00">sar_report</text>
</a>
</g>
</g>
<!-- Node24&#45;&gt;Node1 -->
<g id="edge23" class="edge">
<title>Node24&#45;&gt;Node1</title>
<path fill="none" stroke="#9a32cd" stroke-dasharray="5,2" d="M109.52,-553.8C162.47,-548.62 250.69,-543.51 275,-563.55 300.63,-584.67 310.06,-693.31 312.38,-726.74"/>
<polygon fill="#9a32cd" stroke="#9a32cd" points="109.25,-550.31 99.66,-554.81 109.97,-557.27 109.25,-550.31"/>
<text text-anchor="middle" x="214" y="-566.55" font-family="Helvetica,sans-Serif" font-size="10.00"> sar</text>
</g>
<!-- Node25 -->
<g id="node25" class="node">
<title>Node25</title>
<g id="a_node25"><a xlink:href="structstep__detector__report.html" target="_top" xlink:title="Holds the report data for the step detector.">
<polygon fill="white" stroke="#666666" points="121,-531.05 14,-531.05 14,-512.05 121,-512.05 121,-531.05"/>
<text text-anchor="middle" x="67.5" y="-519.05" font-family="Helvetica,sans-Serif" font-size="10.00">step_detector_report</text>
</a>
</g>
</g>
<!-- Node25&#45;&gt;Node1 -->
<g id="edge24" class="edge">
<title>Node25&#45;&gt;Node1</title>
<path fill="none" stroke="#9a32cd" stroke-dasharray="5,2" d="M116.09,-509.24C162.44,-500.35 232.01,-495.7 275,-533.55 304.47,-559.49 311.33,-689.61 312.69,-726.68"/>
<polygon fill="#9a32cd" stroke="#9a32cd" points="115.41,-505.81 106.32,-511.26 116.82,-512.66 115.41,-505.81"/>
<text text-anchor="middle" x="214" y="-536.55" font-family="Helvetica,sans-Serif" font-size="10.00"> step_detector</text>
</g>
<!-- Node26 -->
<g id="node26" class="node">
<title>Node26</title>
<g id="a_node26"><a xlink:href="structshake__detector__report.html" target="_top" xlink:title="Holds the report data for the shake detector.">
<polygon fill="white" stroke="#666666" points="124,-494.05 11,-494.05 11,-475.05 124,-475.05 124,-494.05"/>
<text text-anchor="middle" x="67.5" y="-482.05" font-family="Helvetica,sans-Serif" font-size="10.00">shake_detector_report</text>
</a>
</g>
</g>
<!-- Node26&#45;&gt;Node1 -->
<g id="edge25" class="edge">
<title>Node26&#45;&gt;Node1</title>
<path fill="none" stroke="#9a32cd" stroke-dasharray="5,2" d="M135.46,-476.53C187.74,-471.87 254.79,-469.93 275,-487.55 311.76,-519.59 313.31,-684.75 313.1,-726.8"/>
<polygon fill="#9a32cd" stroke="#9a32cd" points="135.35,-473.03 125.72,-477.45 136.01,-480 135.35,-473.03"/>
<text text-anchor="middle" x="214" y="-490.55" font-family="Helvetica,sans-Serif" font-size="10.00"> shake_detector</text>
</g>
<!-- Node27 -->
<g id="node27" class="node">
<title>Node27</title>
<g id="a_node27"><a xlink:href="structflip__detector__report.html" target="_top" xlink:title="Holds the report data for the flip detector.">
<polygon fill="white" stroke="#666666" points="118,-457.05 17,-457.05 17,-438.05 118,-438.05 118,-457.05"/>
<text text-anchor="middle" x="67.5" y="-445.05" font-family="Helvetica,sans-Serif" font-size="10.00">flip_detector_report</text>
</a>
</g>
</g>
<!-- Node27&#45;&gt;Node1 -->
<g id="edge26" class="edge">
<title>Node27&#45;&gt;Node1</title>
<path fill="none" stroke="#9a32cd" stroke-dasharray="5,2" d="M112.94,-434.99C159.49,-424.82 231.73,-417.89 275,-457.55 315.45,-494.63 314.18,-681.24 313.25,-726.6"/>
<polygon fill="#9a32cd" stroke="#9a32cd" points="112.39,-431.53 103.45,-437.21 113.99,-438.34 112.39,-431.53"/>
<text text-anchor="middle" x="214" y="-460.55" font-family="Helvetica,sans-Serif" font-size="10.00"> flip_detector</text>
</g>
<!-- Node28 -->
<g id="node28" class="node">
<title>Node28</title>
<g id="a_node28"><a xlink:href="structpickup__detector__report.html" target="_top" xlink:title="Holds the report data for the pickup detector.">
<polygon fill="white" stroke="#666666" points="125.5,-420.05 9.5,-420.05 9.5,-401.05 125.5,-401.05 125.5,-420.05"/>
<text text-anchor="middle" x="67.5" y="-408.05" font-family="Helvetica,sans-Serif" font-size="10.00">pickup_detector_report</text>
</a>
</g>
</g>
<!-- Node28&#45;&gt;Node1 -->
<g id="edge27" class="edge">
<title>Node28&#45;&gt;Node1</title>
<path fill="none" stroke="#9a32cd" stroke-dasharray="5,2" d="M137.05,-401.5C189.18,-396.3 255.21,-393.85 275,-411.55 299.19,-433.18 310.47,-675.12 312.62,-726.85"/>
<polygon fill="#9a32cd" stroke="#9a32cd" points="136.91,-398 127.33,-402.53 137.64,-404.96 136.91,-398"/>
<text text-anchor="middle" x="214" y="-414.55" font-family="Helvetica,sans-Serif" font-size="10.00"> pickup_detector</text>
</g>
<!-- Node29 -->
<g id="node29" class="node">
<title>Node29</title>
<g id="a_node29"><a xlink:href="structstability__detector__report.html" target="_top" xlink:title="Holds the report data for the stability detector.">
<polygon fill="white" stroke="#666666" points="113,-382.55 22,-382.55 22,-352.55 113,-352.55 113,-382.55"/>
<text text-anchor="start" x="30" y="-370.55" font-family="Helvetica,sans-Serif" font-size="10.00">stability_detector</text>
<text text-anchor="middle" x="67.5" y="-359.55" font-family="Helvetica,sans-Serif" font-size="10.00">_report</text>
</a>
</g>
</g>
<!-- Node29&#45;&gt;Node1 -->
<g id="edge28" class="edge">
<title>Node29&#45;&gt;Node1</title>
<path fill="none" stroke="#9a32cd" stroke-dasharray="5,2" d="M124.48,-354.02C171.1,-346.39 235.95,-344.82 275,-382.55 300.5,-407.19 310.82,-672.15 312.68,-726.75"/>
<polygon fill="#9a32cd" stroke="#9a32cd" points="124.06,-350.54 114.83,-355.75 125.29,-357.43 124.06,-350.54"/>
<text text-anchor="middle" x="214" y="-385.55" font-family="Helvetica,sans-Serif" font-size="10.00"> stability_detector</text>
</g>
<!-- Node30 -->
<g id="node30" class="node">
<title>Node30</title>
<g id="a_node30"><a xlink:href="structpersonal__activity__classifier__report.html" target="_top" xlink:title="Holds the report data for the personal activity classifier.">
<polygon fill="white" stroke="#666666" points="135,-334.55 0,-334.55 0,-304.55 135,-304.55 135,-334.55"/>
<text text-anchor="start" x="8" y="-322.55" font-family="Helvetica,sans-Serif" font-size="10.00">personal_activity_classifier</text>
<text text-anchor="middle" x="67.5" y="-311.55" font-family="Helvetica,sans-Serif" font-size="10.00">_report</text>
</a>
</g>
</g>
<!-- Node30&#45;&gt;Node1 -->
<g id="edge29" class="edge">
<title>Node30&#45;&gt;Node1</title>
<path fill="none" stroke="#9a32cd" stroke-dasharray="5,2" d="M146.28,-303C189.85,-298.57 241.91,-302.17 275,-334.55 303.94,-362.86 311.59,-667.4 312.81,-726.61"/>
<polygon fill="#9a32cd" stroke="#9a32cd" points="146.14,-299.49 136.62,-304.14 146.96,-306.44 146.14,-299.49"/>
<text text-anchor="middle" x="214" y="-337.55" font-family="Helvetica,sans-Serif" font-size="10.00"> personal_activity_classifier</text>
</g>
<!-- Node31 -->
<g id="node31" class="node">
<title>Node31</title>
<g id="a_node31"><a xlink:href="structsleep__detector__report.html" target="_top" xlink:title="Holds the report data for the sleep detector.">
<polygon fill="white" stroke="#666666" points="123,-286.05 12,-286.05 12,-267.05 123,-267.05 123,-286.05"/>
<text text-anchor="middle" x="67.5" y="-274.05" font-family="Helvetica,sans-Serif" font-size="10.00">sleep_detector_report</text>
</a>
</g>
</g>
<!-- Node31&#45;&gt;Node1 -->
<g id="edge30" class="edge">
<title>Node31&#45;&gt;Node1</title>
<path fill="none" stroke="#9a32cd" stroke-dasharray="5,2" d="M110.95,-263.86C157.7,-252.78 231.96,-244.22 275,-285.55 307.94,-317.18 312.39,-663.36 312.93,-726.64"/>
<polygon fill="#9a32cd" stroke="#9a32cd" points="110.28,-260.42 101.44,-266.26 111.99,-267.21 110.28,-260.42"/>
<text text-anchor="middle" x="214" y="-288.55" font-family="Helvetica,sans-Serif" font-size="10.00"> sleep_detector</text>
</g>
<!-- Node32 -->
<g id="node32" class="node">
<title>Node32</title>
<g id="a_node32"><a xlink:href="structtilt__detector__report.html" target="_top" xlink:title="Holds the report data for the tilt detector.">
<polygon fill="white" stroke="#666666" points="116.5,-249.05 18.5,-249.05 18.5,-230.05 116.5,-230.05 116.5,-249.05"/>
<text text-anchor="middle" x="67.5" y="-237.05" font-family="Helvetica,sans-Serif" font-size="10.00">tilt_detector_report</text>
</a>
</g>
</g>
<!-- Node32&#45;&gt;Node1 -->
<g id="edge31" class="edge">
<title>Node32&#45;&gt;Node1</title>
<path fill="none" stroke="#9a32cd" stroke-dasharray="5,2" d="M128.02,-230.97C181.38,-224.75 254.36,-220.42 275,-239.55 312.14,-273.95 313.13,-660.71 313.03,-726.93"/>
<polygon fill="#9a32cd" stroke="#9a32cd" points="127.62,-227.49 118.12,-232.17 128.47,-234.44 127.62,-227.49"/>
<text text-anchor="middle" x="214" y="-242.55" font-family="Helvetica,sans-Serif" font-size="10.00"> tilt_detector</text>
</g>
<!-- Node33 -->
<g id="node33" class="node">
<title>Node33</title>
<g id="a_node33"><a xlink:href="structpocket__detector__report.html" target="_top" xlink:title="Holds the report data for the pocket detector.">
<polygon fill="white" stroke="#666666" points="125.5,-212.05 9.5,-212.05 9.5,-193.05 125.5,-193.05 125.5,-212.05"/>
<text text-anchor="middle" x="67.5" y="-200.05" font-family="Helvetica,sans-Serif" font-size="10.00">pocket_detector_report</text>
</a>
</g>
</g>
<!-- Node33&#45;&gt;Node1 -->
<g id="edge32" class="edge">
<title>Node33&#45;&gt;Node1</title>
<path fill="none" stroke="#9a32cd" stroke-dasharray="5,2" d="M137.17,-195.79C189.55,-192.3 255.87,-192.05 275,-210.55 313.58,-247.86 313.37,-658.17 313.06,-726.83"/>
<polygon fill="#9a32cd" stroke="#9a32cd" points="137.12,-192.28 127.4,-196.49 137.63,-199.27 137.12,-192.28"/>
<text text-anchor="middle" x="214" y="-213.55" font-family="Helvetica,sans-Serif" font-size="10.00"> pocket_detector</text>
</g>
<!-- Node34 -->
<g id="node34" class="node">
<title>Node34</title>
<g id="a_node34"><a xlink:href="structcircle__detector__report.html" target="_top" xlink:title="Holds the report data for the circle detector.">
<polygon fill="white" stroke="#666666" points="123,-175.05 12,-175.05 12,-156.05 123,-156.05 123,-175.05"/>
<text text-anchor="middle" x="67.5" y="-163.05" font-family="Helvetica,sans-Serif" font-size="10.00">circle_detector_report</text>
</a>
</g>
</g>
<!-- Node34&#45;&gt;Node1 -->
<g id="edge33" class="edge">
<title>Node34&#45;&gt;Node1</title>
<path fill="none" stroke="#9a32cd" stroke-dasharray="5,2" d="M113.97,-153.11C161.07,-143.28 233.48,-137.24 275,-178.55 315.44,-218.78 313.66,-655.36 313.09,-726.71"/>
<polygon fill="#9a32cd" stroke="#9a32cd" points="113.34,-149.66 104.35,-155.26 114.87,-156.49 113.34,-149.66"/>
<text text-anchor="middle" x="214" y="-181.55" font-family="Helvetica,sans-Serif" font-size="10.00"> circle_detector</text>
</g>
<!-- Node35 -->
<g id="node35" class="node">
<title>Node35</title>
<g id="a_node35"><a xlink:href="structheart__rate__monitor__report.html" target="_top" xlink:title="Holds the report data for the heart rate monitor.">
<polygon fill="white" stroke="#666666" points="116.5,-137.55 18.5,-137.55 18.5,-107.55 116.5,-107.55 116.5,-137.55"/>
<text text-anchor="start" x="26.5" y="-125.55" font-family="Helvetica,sans-Serif" font-size="10.00">heart_rate_monitor</text>
<text text-anchor="middle" x="67.5" y="-114.55" font-family="Helvetica,sans-Serif" font-size="10.00">_report</text>
</a>
</g>
</g>
<!-- Node35&#45;&gt;Node1 -->
<g id="edge34" class="edge">
<title>Node35&#45;&gt;Node1</title>
<path fill="none" stroke="#9a32cd" stroke-dasharray="5,2" d="M128.24,-116.38C181.76,-112.32 254.85,-110.88 275,-130.55 319.5,-174 314.25,-652.35 313.16,-726.83"/>
<polygon fill="#9a32cd" stroke="#9a32cd" points="127.99,-112.89 118.31,-117.19 128.56,-119.87 127.99,-112.89"/>
<text text-anchor="middle" x="214" y="-133.55" font-family="Helvetica,sans-Serif" font-size="10.00"> heart_rate_monitor</text>
</g>
<!-- Node36 -->
<g id="node36" class="node">
<title>Node36</title>
<g id="a_node36"><a xlink:href="structarvr__stabilised__rotation__vector__report.html" target="_top" xlink:title="Holds the report data for the ARVR stabilised rotation vector.">
<polygon fill="white" stroke="#666666" points="126.5,-89.55 8.5,-89.55 8.5,-59.55 126.5,-59.55 126.5,-89.55"/>
<text text-anchor="start" x="16.5" y="-77.55" font-family="Helvetica,sans-Serif" font-size="10.00">arvr_stabilised_rotation</text>
<text text-anchor="middle" x="67.5" y="-66.55" font-family="Helvetica,sans-Serif" font-size="10.00">_vector_report</text>
</a>
</g>
</g>
<!-- Node36&#45;&gt;Node1 -->
<g id="edge35" class="edge">
<title>Node36&#45;&gt;Node1</title>
<path fill="none" stroke="#9a32cd" stroke-dasharray="5,2" d="M138.01,-57.81C183.28,-51.4 240.19,-52.58 275,-87.55 298.59,-111.24 311.07,-647.3 312.79,-726.75"/>
<polygon fill="#9a32cd" stroke="#9a32cd" points="137.6,-54.33 128.27,-59.35 138.7,-61.24 137.6,-54.33"/>
<text text-anchor="start" x="161.5" y="-101.55" font-family="Helvetica,sans-Serif" font-size="10.00"> arvr_stabilised_rotation</text>
<text text-anchor="middle" x="214" y="-90.55" font-family="Helvetica,sans-Serif" font-size="10.00">_vector</text>
</g>
<!-- Node37 -->
<g id="node37" class="node">
<title>Node37</title>
<g id="a_node37"><a xlink:href="structarvr__stabilised__game__rotation__vector__report.html" target="_top" xlink:title="Holds the report data for the ARVR stabilised game rotation vector.">
<polygon fill="white" stroke="#666666" points="125.5,-41.55 9.5,-41.55 9.5,-11.55 125.5,-11.55 125.5,-41.55"/>
<text text-anchor="start" x="17.5" y="-29.55" font-family="Helvetica,sans-Serif" font-size="10.00">arvr_stabilised_game</text>
<text text-anchor="middle" x="67.5" y="-18.55" font-family="Helvetica,sans-Serif" font-size="10.00">_rotation_vector_report</text>
</a>
</g>
</g>
<!-- Node37&#45;&gt;Node1 -->
<g id="edge36" class="edge">
<title>Node37&#45;&gt;Node1</title>
<path fill="none" stroke="#9a32cd" stroke-dasharray="5,2" d="M126.2,-8.32C172.69,2.41 236.44,7.53 275,-29.55 301.33,-54.87 311.53,-642.95 312.85,-726.67"/>
<polygon fill="#9a32cd" stroke="#9a32cd" points="125.42,-4.91 116.55,-10.7 127.1,-11.7 125.42,-4.91"/>
<text text-anchor="start" x="165.5" y="-43.55" font-family="Helvetica,sans-Serif" font-size="10.00"> arvr_stabilised_game</text>
<text text-anchor="middle" x="214" y="-32.55" font-family="Helvetica,sans-Serif" font-size="10.00">_rotation_vector</text>
</g>
</g>
</svg>
